{"glyphs":{" ":{"ha":383,"x_min":0,"x_max":0,"o":""},"E":{"ha":1001,"x_min":0,"x_max":985,"o":"m 1 14 l 1 0 q 90 1 56 0 q 163 1 124 1 l 192 1 l 207 1 q 225 0 218 1 l 243 10 q 248 21 247 13 q 249 35 249 29 q 246 140 249 93 q 243 243 243 188 l 243 249 l 243 274 l 232 306 l 232 329 q 242 356 239 347 q 244 367 244 364 q 244 371 244 369 q 243 378 243 372 q 239 390 243 382 q 244 397 235 397 q 255 396 251 397 q 263 388 258 394 q 265 362 263 383 q 267 332 267 340 q 266 258 267 296 q 267 181 265 219 q 276 105 269 143 q 297 31 282 67 q 315 7 304 15 q 350 0 326 -1 l 525 0 q 753 5 639 0 q 985 7 867 10 q 956 20 964 10 q 949 49 949 31 q 959 127 949 89 q 969 206 969 165 l 969 240 q 940 186 954 217 q 908 131 925 156 q 846 72 885 93 q 762 40 807 50 q 668 27 717 29 q 575 25 619 25 l 481 25 q 430 39 453 33 q 388 53 407 44 q 356 78 369 63 q 333 124 342 94 q 331 153 333 132 q 327 199 329 175 q 323 243 325 222 q 321 272 321 264 l 321 294 l 321 315 q 322 342 321 322 q 323 385 322 363 q 324 427 324 407 q 325 456 325 447 q 342 470 332 464 q 363 476 353 476 l 635 476 q 643 473 635 476 q 654 469 651 469 q 710 446 693 456 q 733 424 726 436 q 747 397 740 413 q 772 357 753 382 l 781 364 l 781 636 q 758 608 760 626 q 750 576 757 589 q 721 550 743 561 q 672 533 699 539 q 618 524 644 526 q 575 521 592 521 l 475 521 l 379 521 q 358 522 372 521 q 342 526 344 524 l 333 531 q 322 660 322 593 q 321 792 321 728 q 323 832 321 807 q 325 871 325 857 q 331 912 328 888 q 333 940 333 936 l 354 965 l 350 969 q 268 971 306 969 q 194 973 231 972 q 122 975 158 974 q 46 976 86 976 l 32 976 q 13 974 25 976 q 0 969 0 972 l 0 965 q 56 956 26 961 q 113 941 86 950 q 163 917 140 932 q 196 878 185 901 q 199 858 197 872 q 203 828 201 844 q 207 798 206 813 q 208 778 208 783 q 210 764 210 775 q 213 743 211 753 l 217 711 q 214 674 219 690 q 208 650 208 657 l 208 631 q 208 584 208 617 q 207 514 207 551 q 206 447 207 478 q 206 403 206 415 q 204 388 206 400 q 201 360 203 375 q 197 333 199 346 q 196 315 196 319 l 196 149 q 178 79 194 106 q 137 38 163 53 q 76 19 111 24 q 1 14 40 14 m 789 947 q 810 933 801 947 q 848 863 832 901 q 875 792 864 824 q 885 799 882 793 q 889 814 888 806 q 890 831 890 822 q 889 846 889 839 l 889 867 q 856 886 864 871 q 847 918 849 901 q 843 949 844 935 q 831 965 842 963 q 762 974 794 971 q 697 976 729 976 l 564 976 l 422 976 q 415 974 422 976 q 407 969 407 972 l 407 965 q 408 961 407 963 q 410 960 410 960 l 647 960 q 703 942 672 944 q 763 940 735 940 q 774 944 769 940 q 789 947 778 947 m 257 924 q 259 939 257 931 q 275 950 261 947 q 300 915 300 935 q 299 906 300 913 q 298 892 299 899 q 295 878 297 885 q 289 871 293 872 q 282 876 286 871 q 274 889 278 882 q 266 901 269 896 q 263 908 263 907 q 260 914 263 908 q 257 924 257 919 m 900 988 q 884 974 892 979 q 868 972 876 969 q 875 932 871 942 q 886 922 879 922 l 896 922 q 900 942 899 922 q 901 975 901 961 q 900 988 901 986 z "},"F":{"ha":997,"x_min":0,"x_max":975,"o":"m 0 963 q 75 958 39 963 q 138 941 111 954 q 180 903 164 928 q 196 835 196 878 l 196 803 q 195 749 196 778 q 194 696 194 721 l 194 665 q 196 648 194 661 q 199 620 197 635 q 203 593 201 606 q 204 578 204 581 l 204 349 l 204 328 q 205 303 204 321 q 206 264 206 285 l 206 224 q 204 199 206 201 q 203 179 204 193 q 199 149 201 165 q 194 120 197 133 q 190 101 192 107 q 158 60 179 76 q 110 35 136 44 q 54 19 83 25 q 0 10 25 14 l 0 6 q 11 2 0 3 q 29 1 22 1 l 42 1 q 113 2 82 1 q 175 3 144 3 q 239 5 206 4 q 317 6 272 6 l 383 6 l 515 1 l 511 10 q 482 18 511 11 q 417 37 453 25 q 352 66 382 49 q 321 107 322 83 q 318 144 319 119 q 317 185 317 168 q 317 319 317 251 q 331 450 318 386 l 339 454 q 355 457 342 456 q 375 458 368 458 l 393 458 q 423 458 407 458 q 451 457 439 457 l 469 457 l 568 457 q 612 454 583 457 q 669 444 640 451 q 722 426 699 438 q 753 399 746 415 q 758 383 757 392 q 760 367 758 375 q 767 351 763 358 q 783 338 772 343 l 785 614 l 776 621 q 751 580 757 596 q 737 552 744 564 q 713 531 729 540 q 658 507 697 521 q 641 502 656 507 q 626 497 626 497 l 358 501 q 335 508 342 501 q 322 524 329 514 l 322 550 q 322 593 322 571 q 321 635 321 615 l 321 664 l 321 685 l 321 710 q 322 738 321 717 q 326 782 324 758 q 330 827 328 806 q 332 857 332 849 q 354 901 340 886 q 387 925 368 917 q 428 940 406 933 q 479 957 451 946 l 497 957 l 525 957 q 553 956 540 957 q 572 956 567 956 q 665 953 615 956 q 763 939 715 950 q 851 906 811 928 q 913 846 890 883 q 944 789 929 819 q 974 735 958 758 l 974 768 q 963 848 974 810 q 956 925 953 886 l 956 958 q 975 975 956 972 q 940 975 958 974 q 907 968 922 976 q 874 951 885 956 q 858 948 863 946 q 852 957 853 950 q 850 975 851 964 q 685 977 767 975 q 524 981 604 979 l 488 981 q 435 981 463 981 q 383 982 407 982 l 350 982 q 306 982 328 988 q 281 961 283 976 l 294 864 q 276 878 285 885 q 262 854 268 871 q 252 821 256 838 q 247 806 249 804 q 248 838 246 808 q 256 944 250 868 q 253 961 256 951 q 246 972 250 971 l 228 983 q 179 981 200 982 q 140 978 158 979 q 101 978 121 978 q 61 978 83 978 l 0 978 l 0 963 m 251 51 q 253 74 251 57 q 254 90 254 90 q 258 115 254 92 q 265 167 261 139 q 274 217 269 194 q 281 240 278 240 q 280 211 283 239 q 275 151 276 183 q 279 92 274 119 q 306 63 285 64 q 311 55 313 63 q 310 46 310 47 q 300 47 310 46 q 264 42 290 47 q 254 43 260 43 l 251 43 l 251 51 z "},"G":{"ha":1001,"x_min":3,"x_max":985,"o":"m 475 969 q 477 969 476 969 q 481 968 478 968 l 482 971 l 510 971 l 514 971 q 516 972 513 971 q 526 974 519 972 l 586 974 l 625 974 q 665 974 643 974 q 728 975 686 975 q 796 966 758 967 q 867 957 833 965 q 923 924 900 949 q 946 844 946 900 l 946 813 l 946 779 q 934 797 938 792 q 928 808 931 803 q 921 819 925 813 q 908 839 917 826 q 847 899 886 876 q 759 932 807 921 q 661 946 711 943 q 568 949 611 949 q 549 949 563 949 q 521 950 536 950 l 521 949 q 519 946 519 947 q 515 943 518 944 q 443 932 468 950 q 425 921 432 928 q 386 897 397 918 q 361 861 365 886 q 353 843 354 853 q 343 826 347 835 q 338 807 339 817 q 328 789 332 799 q 326 769 325 779 l 326 758 q 325 757 326 757 l 325 678 q 326 648 325 658 q 328 618 326 638 q 331 581 329 599 q 335 546 332 564 q 333 542 333 544 q 329 458 322 500 l 329 457 q 328 449 329 453 q 328 440 328 446 q 327 422 328 440 q 326 382 326 404 q 326 340 326 360 q 325 317 325 321 l 325 274 q 327 244 325 265 q 331 200 329 224 q 335 155 333 176 q 338 125 338 133 q 338 123 338 125 q 340 117 339 121 q 341 105 340 110 q 343 94 342 100 q 347 76 343 85 q 358 64 350 68 q 378 46 367 54 q 392 40 385 42 q 407 38 400 39 q 431 32 418 33 q 454 31 443 31 q 489 26 469 24 l 628 26 q 710 56 671 38 q 778 102 749 75 q 826 163 808 129 q 844 239 844 197 l 844 265 q 844 278 844 272 q 842 292 843 285 q 847 316 846 308 q 839 339 847 324 q 838 358 838 349 q 828 372 839 368 q 823 408 825 390 q 803 438 821 426 q 796 447 799 443 q 790 453 793 450 q 783 463 788 458 q 776 471 779 467 l 768 471 l 768 468 q 765 470 765 469 q 761 472 764 471 q 741 482 750 476 q 721 488 732 488 q 711 490 714 488 l 683 490 q 661 503 669 492 l 653 503 q 655 514 651 508 q 665 519 658 519 l 678 519 q 724 522 701 521 q 772 525 747 524 l 781 525 q 777 522 778 524 q 774 519 776 521 q 800 522 788 521 q 825 522 813 522 l 876 522 q 895 527 886 525 q 914 532 904 529 q 940 528 926 533 q 965 525 954 522 q 985 517 978 525 q 973 509 978 514 q 963 499 968 504 q 958 494 960 496 q 953 490 956 493 l 950 490 q 921 478 926 490 q 931 454 915 465 q 933 451 932 453 q 936 449 933 450 q 944 421 938 436 q 947 406 946 414 q 951 392 949 399 l 951 388 l 954 383 l 954 381 q 952 356 953 369 q 960 335 951 343 q 958 329 958 333 q 957 324 958 325 q 960 297 960 306 q 961 269 961 288 q 956 257 958 263 q 951 244 954 251 q 917 123 953 178 q 829 33 882 68 q 825 30 826 31 q 822 26 824 29 q 772 17 796 24 q 724 0 747 11 q 714 6 715 3 q 651 0 686 0 q 583 0 618 0 q 517 -1 550 0 q 504 0 515 0 q 486 -4 499 -10 q 478 0 482 0 q 471 -1 472 0 l 471 0 q 453 -3 463 0 q 436 -6 444 -6 q 400 -1 418 0 q 364 1 382 -1 l 354 1 q 319 8 331 0 q 301 32 308 17 q 280 106 286 68 q 272 183 274 144 q 270 259 269 221 q 271 333 271 297 q 269 363 271 342 q 267 389 267 385 q 259 397 263 396 q 249 399 256 399 q 243 391 239 399 q 247 379 247 383 q 248 372 247 374 q 249 368 249 371 q 246 357 249 365 q 236 331 243 349 l 236 307 l 247 275 l 247 244 q 250 142 247 189 q 253 36 253 94 q 252 22 253 31 q 247 11 251 14 l 229 1 q 211 3 225 3 l 196 3 l 167 3 q 94 2 128 3 q 6 1 60 1 l 6 15 q 80 20 44 15 q 141 40 115 25 q 183 81 167 54 q 200 150 199 107 l 200 317 q 201 334 200 321 q 205 362 203 347 q 208 389 207 376 q 210 404 210 401 q 210 431 210 413 q 211 472 211 449 l 211 556 q 212 601 211 581 q 213 632 213 622 l 213 651 q 218 665 213 658 q 221 693 224 672 l 217 725 q 215 746 215 735 q 213 760 214 757 q 211 780 213 765 q 208 810 210 794 q 203 840 206 826 q 200 860 201 854 q 167 900 189 883 q 117 928 144 917 q 59 947 89 940 q 3 958 29 954 l 3 963 q 15 967 3 965 q 35 969 28 969 l 49 969 q 112 969 82 969 q 171 967 142 968 q 290 967 231 969 q 408 969 349 965 q 425 968 410 968 q 450 967 438 967 q 475 969 463 968 m 260 917 q 263 907 260 913 q 265 901 265 901 q 263 876 265 900 q 259 824 261 853 q 256 772 257 796 q 257 749 254 749 q 269 774 261 750 q 284 828 276 799 q 297 881 292 857 q 303 908 303 906 q 279 942 303 926 l 276 942 q 262 931 264 939 q 260 917 260 924 m 871 376 l 863 381 q 866 399 864 385 q 869 428 868 413 q 872 458 871 444 q 871 475 872 472 q 863 468 868 476 q 853 449 858 460 q 844 428 849 438 q 838 421 840 419 q 846 397 843 411 q 851 370 849 383 q 854 347 853 357 q 858 336 856 338 q 863 347 860 336 q 869 366 867 357 q 871 376 871 375 m 913 315 q 909 287 910 293 q 906 272 908 281 l 922 231 q 924 242 924 231 q 923 266 924 253 q 922 289 922 279 l 922 299 q 933 339 933 319 q 929 381 932 358 q 921 369 926 381 q 913 360 915 358 l 913 315 m 849 163 q 846 154 849 163 q 838 134 843 146 q 826 111 832 122 q 817 94 821 100 q 841 115 829 111 q 861 118 853 118 q 865 124 864 121 q 868 129 865 126 l 849 163 z "},"H":{"ha":1001,"x_min":-19,"x_max":972,"o":"m -19 0 l 292 3 l 300 13 q 294 19 297 15 q 292 22 292 22 q 271 25 288 22 q 250 32 254 28 q 239 40 247 33 q 222 56 231 47 q 206 72 214 64 q 197 82 199 79 q 176 81 182 75 q 168 104 171 88 q 163 156 165 135 q 160 194 161 178 q 160 225 160 211 q 160 254 160 239 q 160 276 160 264 q 158 306 160 290 q 166 289 165 306 q 174 258 167 272 l 182 164 l 193 158 l 190 300 l 193 456 l 213 479 q 231 481 214 479 q 269 485 247 483 q 313 490 290 488 q 349 492 336 492 q 529 491 432 492 q 714 490 626 490 q 746 475 729 490 q 763 440 763 460 l 763 436 q 757 369 760 417 q 751 269 754 322 q 746 169 749 217 q 742 104 743 122 q 722 72 738 89 q 688 39 706 54 q 656 12 669 24 q 642 -6 642 0 l 956 0 q 903 35 924 17 q 869 77 882 54 q 849 130 856 100 q 838 199 842 160 q 847 224 846 213 q 845 247 847 236 q 840 269 843 258 q 838 292 838 281 l 838 446 l 826 515 l 838 599 l 851 689 q 850 760 851 725 q 852 826 849 794 q 867 887 856 858 q 901 939 878 915 q 936 950 921 950 q 972 964 958 950 q 947 974 957 972 q 919 975 936 975 q 774 968 844 975 q 628 964 703 961 q 677 949 654 957 q 717 928 700 942 q 747 894 735 915 q 763 838 758 872 l 763 718 l 763 592 q 757 554 763 579 q 735 521 751 529 q 569 517 643 518 q 417 517 496 517 l 308 517 l 218 517 l 197 542 l 197 632 q 197 759 197 699 q 206 883 196 819 q 235 918 214 903 q 278 944 257 933 q 317 960 300 954 q 335 969 335 967 q 169 974 251 969 q 8 971 88 978 q 83 913 60 954 q 112 820 106 872 q 115 711 118 768 q 113 607 113 654 l 113 425 q 105 406 108 422 q 101 385 101 389 q 107 370 101 382 q 113 356 113 358 l 113 340 l 113 319 q 108 272 110 307 q 104 198 106 238 q 102 123 103 158 q 101 72 101 88 q 82 53 99 65 q 44 30 65 42 q 5 9 24 18 q -19 0 -14 0 z "},"I":{"ha":607,"x_min":8,"x_max":585,"o":"m 244 131 q 237 148 244 142 q 229 165 229 154 q 242 475 229 321 q 254 785 254 629 q 249 849 254 817 q 232 911 244 881 q 210 919 224 922 q 182 921 196 917 q 172 923 179 921 q 157 928 165 925 q 142 934 149 932 q 133 936 135 936 q 87 944 113 942 q 44 957 61 946 l 51 960 l 94 960 q 208 958 153 960 q 322 956 264 956 l 335 956 q 343 957 343 956 q 359 960 344 957 q 374 964 374 964 q 460 969 415 968 q 546 969 504 969 q 567 968 556 969 q 585 960 578 967 q 581 958 582 960 q 579 957 579 957 q 562 954 576 956 q 546 953 547 953 q 529 949 542 951 q 502 943 517 946 q 475 938 488 940 q 460 936 463 936 l 453 936 q 441 939 446 936 q 429 942 436 942 l 426 942 q 419 936 426 936 q 383 881 400 908 q 364 822 367 854 q 363 805 364 818 q 361 775 363 792 q 359 742 360 758 q 358 717 358 725 q 360 695 358 710 q 356 672 363 681 q 349 453 351 564 q 350 233 346 343 q 343 203 343 215 l 343 171 l 343 133 q 349 123 344 131 q 356 113 353 115 q 409 52 369 76 q 499 21 449 28 l 506 21 q 519 20 513 21 q 532 19 526 19 l 542 19 q 551 17 544 19 q 558 14 557 14 l 558 13 q 549 3 558 6 q 526 1 539 1 q 504 2 515 1 q 490 3 493 3 q 442 4 467 3 q 397 6 417 6 q 383 10 386 7 q 374 14 381 14 q 356 10 363 14 q 338 6 349 6 q 322 15 328 6 q 300 24 317 24 q 270 15 283 24 q 229 6 257 6 q 220 8 226 6 q 211 10 214 10 q 109 6 160 10 q 8 3 58 3 q 34 13 8 7 q 94 27 60 18 q 161 51 128 36 q 210 92 194 67 q 213 104 210 94 q 225 117 217 114 q 240 122 235 122 q 244 131 244 122 m 254 92 l 254 86 q 265 62 263 69 q 272 36 267 54 q 279 30 272 29 q 288 31 286 31 l 300 31 q 305 34 301 31 q 308 38 308 38 q 304 45 308 40 q 300 51 300 50 q 298 76 300 57 q 296 100 296 94 q 293 114 294 104 q 290 135 292 124 q 285 154 288 146 q 279 163 283 163 q 272 153 276 163 q 264 131 268 143 q 257 107 260 118 q 254 92 254 96 z "},"J":{"ha":754,"x_min":0,"x_max":719,"o":"m 710 965 q 659 953 679 960 q 624 938 639 947 q 595 913 608 928 q 565 874 582 897 q 561 851 564 867 q 556 819 558 836 q 553 788 554 803 q 551 768 551 774 q 550 749 550 767 l 550 718 q 551 688 550 701 q 551 669 551 674 q 549 626 550 658 q 546 551 547 594 q 542 460 544 508 q 540 369 540 413 q 538 294 539 326 q 538 251 538 263 q 540 187 538 226 q 543 113 543 147 q 542 91 543 101 q 540 72 542 81 l 529 36 q 514 17 525 24 q 492 6 503 10 q 472 2 481 3 q 461 1 463 1 q 450 1 458 1 q 432 0 442 0 l 417 0 q 408 1 410 0 l 433 19 l 436 31 q 452 98 446 74 q 461 135 458 122 q 464 150 464 147 q 463 153 464 153 q 458 158 461 153 q 453 181 456 164 q 448 228 450 197 q 446 311 446 260 l 446 442 l 443 458 q 460 485 460 464 q 444 540 460 513 q 445 544 444 543 q 446 547 446 544 q 447 574 446 556 q 449 614 447 593 q 451 653 450 635 q 451 679 451 672 l 451 825 q 436 861 440 840 q 421 897 432 882 q 347 944 389 929 q 261 965 306 960 l 258 976 l 410 976 q 462 973 438 976 q 514 969 486 969 q 615 974 567 969 q 719 979 664 979 q 710 965 719 971 m 40 410 l 106 397 q 119 392 118 406 q 119 354 121 378 q 114 302 117 331 q 115 251 111 274 q 149 163 126 200 q 217 93 172 125 q 274 62 246 64 q 333 57 301 60 l 356 57 q 395 76 375 57 q 433 151 415 94 q 438 133 432 142 q 443 110 443 125 q 440 69 443 89 q 431 33 438 49 q 413 10 425 18 q 383 6 401 1 q 372 8 383 3 q 360 13 360 13 q 356 8 360 10 q 353 6 353 6 q 351 0 343 0 l 356 0 q 340 0 350 0 q 321 -1 331 0 q 305 -2 311 -1 q 299 -3 299 -3 q 285 -2 296 -3 q 263 -1 275 -1 q 240 -1 250 -1 q 225 0 229 0 q 217 2 224 0 q 204 6 211 4 q 191 10 197 8 q 183 13 185 13 q 177 24 183 13 q 162 53 171 36 q 141 89 153 69 q 118 125 129 108 q 119 115 115 125 q 122 104 122 104 q 126 67 115 85 q 142 35 138 49 q 138 39 142 35 q 128 49 133 43 q 117 59 122 54 q 110 65 113 64 q 60 126 76 85 q 38 203 43 167 q 42 198 36 207 q 54 184 47 189 q 66 186 61 179 q 69 228 71 193 q 42 220 54 228 q 29 201 29 213 l 29 197 q 33 185 29 194 q 36 174 36 176 q 42 160 38 172 q 51 132 46 147 q 56 115 56 117 q 53 119 56 114 q 47 129 50 124 q 39 140 43 135 q 32 144 35 144 q 17 178 24 154 q 10 217 10 201 q 5 253 10 240 q 11 285 0 265 q 12 302 14 288 q 10 328 10 317 l 10 339 q 18 360 22 350 q 17 372 14 369 q 20 380 22 376 q 14 388 18 383 q 5 401 10 393 q 0 422 0 410 l 40 410 m 531 874 q 530 908 531 889 q 517 940 529 928 q 504 915 510 928 q 499 886 499 903 q 504 871 499 883 q 510 853 510 858 q 512 851 510 853 q 517 850 514 850 l 521 844 q 531 856 531 844 l 531 874 m 503 374 q 510 345 504 342 q 517 372 515 349 q 513 431 518 396 q 488 496 507 467 q 486 486 486 494 l 486 468 q 492 449 486 458 q 499 440 497 440 l 503 374 m 36 344 l 69 297 q 81 299 74 296 q 94 333 89 301 q 94 350 97 349 q 85 347 90 351 q 74 337 79 343 q 69 329 69 331 l 36 344 z "},"K":{"ha":1006,"x_min":-6,"x_max":969,"o":"m 178 1 q 198 8 182 1 q 217 14 214 14 l 226 14 q 251 8 242 14 q 285 1 261 1 q 309 4 299 1 q 331 7 319 7 l 335 7 q 408 -1 369 -1 q 415 -1 411 -1 q 419 4 419 0 l 419 7 q 417 8 418 7 q 415 10 415 10 q 329 37 361 22 q 281 76 297 51 q 260 138 265 100 q 256 236 256 176 q 255 488 256 363 q 254 739 254 613 l 254 746 q 253 753 254 747 q 251 767 253 760 q 249 782 250 775 q 249 792 249 789 q 250 814 249 800 q 253 842 251 828 q 257 871 256 857 q 258 893 258 885 q 286 922 264 910 q 333 944 308 935 q 376 960 357 953 q 396 974 396 967 q 321 973 357 974 q 249 972 285 972 q 238 974 242 972 q 226 976 233 976 q 209 974 218 976 q 192 972 200 972 q 167 974 179 972 q 143 976 156 976 l 136 976 q 128 974 135 976 q 115 972 121 972 l 13 972 q 10 963 13 968 q 11 956 7 957 q 78 944 47 953 q 143 917 110 936 l 151 910 q 158 906 154 907 q 161 906 161 906 q 169 918 167 906 q 178 933 172 931 l 181 933 q 196 917 196 933 q 188 893 196 903 q 169 872 181 883 l 169 851 l 169 817 q 170 765 169 793 q 171 713 171 738 l 171 679 q 167 516 171 596 q 164 356 164 436 l 164 308 q 167 297 167 300 q 168 286 168 293 l 168 279 q 167 265 168 276 q 165 240 165 253 q 163 215 164 226 q 161 201 161 203 q 153 126 157 156 q 136 76 149 96 q 99 42 124 56 q 31 14 75 28 q 21 13 29 14 q 10 10 13 13 q -1 3 0 7 q -6 -1 -3 0 q 4 -4 8 -4 l 22 4 l 46 0 q 113 1 79 1 q 178 1 146 0 m 696 151 l 692 142 l 692 75 q 683 80 688 75 q 672 92 678 85 q 663 106 667 99 q 660 117 660 113 q 669 141 660 129 q 679 168 679 153 q 662 200 679 189 q 633 225 644 211 q 529 355 581 288 q 419 481 478 422 q 402 509 413 497 q 392 540 392 521 q 392 553 392 547 q 396 564 393 558 l 563 757 q 591 788 576 776 q 621 815 606 800 q 635 830 625 819 q 656 852 644 840 q 676 874 667 864 q 690 889 686 885 q 699 905 692 892 q 708 922 706 918 l 711 926 l 715 926 q 721 924 719 926 q 728 922 722 922 q 750 928 740 922 q 768 941 760 933 q 783 954 776 949 q 794 960 790 960 l 803 960 q 838 972 815 972 l 843 972 q 844 975 843 974 q 844 979 844 976 l 813 979 q 804 980 810 979 q 792 982 799 981 q 756 974 776 975 q 725 976 735 974 q 717 973 719 974 q 708 972 715 972 l 706 972 q 692 976 703 972 q 681 982 682 979 q 673 979 679 982 q 665 976 667 976 l 547 976 l 547 972 q 597 947 576 961 q 618 901 618 933 q 613 881 618 894 q 601 855 608 868 q 585 829 593 842 q 572 811 578 817 q 567 802 572 808 q 555 788 561 796 q 543 775 549 781 q 536 768 538 769 q 531 756 535 765 q 526 746 526 747 q 519 733 525 742 q 511 724 513 725 q 499 710 508 721 q 477 688 489 700 q 456 665 465 675 q 444 651 446 654 q 441 644 443 650 q 438 639 439 639 q 428 628 435 636 q 413 610 421 619 q 399 594 406 601 q 390 585 392 586 q 385 577 388 582 q 381 571 383 572 q 371 558 378 567 q 356 541 364 550 q 341 523 349 532 q 331 510 333 514 q 317 494 325 504 q 310 472 310 483 l 310 460 q 353 412 335 436 q 392 360 371 388 q 430 317 411 340 q 468 271 449 294 q 481 262 475 264 q 493 254 486 260 q 509 222 500 240 q 528 192 518 203 q 540 185 531 192 q 553 176 550 178 q 576 144 567 165 q 603 113 586 122 l 624 113 q 631 99 631 113 q 635 82 632 86 q 660 58 646 67 q 690 42 675 50 q 745 20 721 29 q 794 6 769 11 q 844 -1 818 1 q 904 -4 871 -4 q 940 1 925 -4 q 969 10 956 6 q 961 15 967 13 l 925 15 q 910 17 918 15 q 897 22 903 18 q 875 26 883 22 q 835 45 853 32 q 794 69 817 58 q 792 58 792 67 q 790 36 792 47 q 781 25 789 25 l 776 25 q 768 81 775 58 q 740 122 761 103 q 718 135 729 133 q 696 151 707 136 m 178 36 l 178 64 q 181 90 179 74 q 183 120 182 106 q 185 146 185 135 q 186 157 186 157 l 206 179 l 213 179 q 213 158 213 174 q 215 123 214 142 q 216 88 215 104 q 217 64 217 71 l 217 61 q 210 41 217 53 q 194 29 203 29 l 186 29 q 178 36 181 29 m 206 214 q 213 222 206 222 l 213 203 q 206 214 206 203 z "},"L":{"ha":957,"x_min":1,"x_max":929,"o":"m 383 3 q 356 10 356 10 q 340 3 343 10 l 113 3 q 54 0 89 0 q 1 0 21 0 l 1 3 q 18 8 6 4 q 45 15 31 11 q 73 22 60 18 q 92 26 86 25 q 139 54 119 35 q 181 94 158 74 q 185 110 181 97 q 189 125 189 122 q 195 138 189 128 q 201 151 201 149 q 211 207 213 181 q 225 261 210 233 l 225 264 q 217 279 225 275 q 208 292 208 283 q 213 303 208 299 q 217 313 217 308 l 217 318 q 210 324 217 321 q 201 328 204 328 l 201 564 q 215 649 213 604 q 217 732 217 693 q 214 755 217 736 q 208 782 211 774 q 207 794 207 786 l 207 808 q 204 853 207 831 q 189 888 201 875 q 181 894 188 889 q 167 908 175 900 q 151 922 158 915 q 139 931 143 928 q 113 941 133 936 q 69 949 92 946 q 28 956 46 953 q 10 963 10 960 q 16 969 10 968 q 25 969 22 969 l 42 969 q 76 967 53 968 q 122 964 99 965 q 166 962 146 963 q 192 961 186 961 q 214 944 207 953 q 224 926 221 935 q 227 913 226 918 q 232 908 228 908 q 238 919 236 908 q 240 932 240 929 q 249 950 240 939 q 269 959 254 956 q 301 965 283 963 q 339 967 319 967 q 375 968 358 968 l 396 968 q 411 969 410 968 q 420 970 413 969 q 438 972 428 971 q 456 973 447 972 q 467 974 464 974 q 492 972 475 974 q 508 969 508 969 l 508 963 l 367 931 l 318 886 l 313 853 q 315 842 313 846 q 319 831 317 838 l 319 722 l 319 613 l 319 567 q 319 478 319 531 q 317 376 318 426 q 315 283 317 325 q 313 225 314 242 q 309 205 310 213 q 308 185 308 197 q 310 151 308 175 q 318 103 313 128 q 333 58 324 78 q 356 35 342 38 q 374 33 358 32 q 392 35 389 35 q 407 33 394 35 q 435 31 419 32 q 463 28 450 29 q 478 26 475 26 l 547 24 l 658 24 q 781 72 721 35 q 874 160 842 108 q 898 200 886 179 q 929 233 910 221 l 929 208 q 910 160 919 186 q 895 106 901 133 q 885 51 889 78 q 881 0 881 24 q 805 4 840 8 q 731 0 769 0 l 383 3 m 236 158 l 228 31 l 253 35 l 260 201 l 236 158 z "},"M":{"ha":1214,"x_min":4,"x_max":1182,"o":"m 1182 0 q 1165 2 1182 0 q 1127 6 1149 4 q 1083 8 1106 7 q 1051 10 1061 10 l 999 10 q 992 22 992 13 l 992 47 q 989 72 992 61 q 974 82 986 82 l 971 82 q 963 75 963 82 l 963 15 q 947 14 963 15 q 910 10 932 13 q 867 6 889 8 q 831 3 844 4 l 817 3 q 799 3 806 3 q 781 10 793 4 q 813 24 796 21 q 849 33 831 28 q 885 49 867 39 q 922 85 904 60 q 924 72 925 78 q 931 65 924 65 q 938 66 933 65 q 943 72 943 67 q 956 128 946 106 q 967 181 967 151 q 966 193 967 183 q 965 206 965 203 q 949 218 961 218 q 944 210 946 218 q 940 192 942 201 q 935 174 938 182 q 931 164 933 165 q 920 274 925 213 q 913 401 915 336 q 909 528 910 465 q 911 640 908 590 q 907 656 908 644 q 906 671 906 668 q 905 694 906 676 q 903 733 904 713 q 901 773 901 754 q 900 799 900 792 q 897 810 903 808 q 886 811 892 811 l 878 811 q 871 793 878 807 q 861 776 864 779 q 853 763 861 774 q 846 751 846 751 q 812 654 826 703 q 769 561 797 606 l 657 292 q 649 264 654 282 q 636 229 643 246 q 620 201 629 213 q 601 194 611 190 q 594 149 600 179 q 578 90 588 119 q 559 38 569 60 q 539 15 549 15 l 532 15 q 523 58 529 32 q 511 100 517 85 q 485 153 501 128 q 468 206 468 179 l 382 401 l 382 425 q 367 459 378 435 q 346 511 357 483 q 324 563 335 539 q 310 596 314 588 q 296 635 306 608 q 274 690 286 663 q 250 740 263 718 q 229 761 238 761 q 220 756 224 761 q 215 743 217 750 q 213 729 214 736 q 210 719 211 722 l 182 383 l 182 358 q 176 256 178 299 q 174 158 174 213 q 217 40 174 81 q 324 -12 260 0 l 324 -19 q 263 -24 289 -25 q 203 -24 238 -24 l 143 -24 q 131 -18 140 -24 q 118 -12 121 -12 l 114 -12 q 94 -18 103 -12 q 75 -24 85 -24 l 4 -24 l 4 -12 q 17 -6 8 -11 q 37 4 26 -1 q 56 15 47 10 q 69 22 65 19 q 83 33 79 28 q 88 43 86 38 q 91 56 89 49 q 100 72 93 63 q 109 74 103 72 q 118 75 115 75 q 120 80 118 78 q 122 82 122 82 q 124 154 121 117 q 134 231 128 192 q 147 306 140 269 q 158 376 154 343 q 172 549 165 461 q 189 719 178 636 q 192 733 190 722 q 197 758 194 744 q 203 783 200 771 q 207 799 206 794 l 207 831 l 207 865 q 156 931 190 915 q 76 950 121 947 l 71 957 l 101 957 q 123 958 107 957 q 157 960 139 960 q 190 963 175 961 q 210 964 206 964 l 214 964 l 217 964 q 228 951 219 961 q 239 940 236 940 q 249 936 240 940 q 261 932 258 932 q 265 926 265 932 l 265 865 q 276 844 271 858 q 285 817 281 831 q 295 793 289 803 q 313 783 301 783 q 311 797 313 786 q 310 811 310 808 q 306 822 308 814 q 301 838 303 829 q 297 855 299 847 q 294 865 294 863 q 293 874 293 867 l 293 888 q 294 902 293 896 q 294 910 294 908 q 287 921 292 913 q 282 932 282 929 l 282 938 l 282 940 q 289 953 282 943 q 301 964 296 964 l 303 964 l 310 957 q 358 741 315 849 q 447 538 400 633 q 506 382 478 463 q 571 231 533 301 q 580 217 572 221 q 594 213 588 213 q 603 214 597 213 q 608 218 608 215 q 626 283 614 251 q 651 344 638 314 q 678 403 664 374 q 704 464 693 433 q 723 508 710 478 q 752 577 736 539 q 786 658 768 615 q 820 739 804 700 q 849 808 836 778 q 868 853 861 839 q 876 861 871 860 q 887 864 882 863 q 896 867 892 865 q 900 878 900 869 q 890 889 900 883 q 878 897 881 894 l 878 901 q 890 910 882 908 q 897 919 897 913 l 897 922 q 885 933 894 922 q 875 947 875 944 q 875 954 872 947 q 878 961 878 961 q 893 963 888 961 q 906 957 899 964 q 928 822 929 903 q 922 646 928 742 q 930 638 925 642 q 940 632 935 635 q 943 644 943 646 l 943 656 l 943 724 q 945 746 943 729 q 947 763 947 763 q 945 789 947 774 q 943 804 943 804 l 956 818 l 956 846 q 951 897 956 875 q 940 947 947 919 l 938 950 q 943 964 938 963 q 958 965 947 964 q 980 968 968 967 q 1001 971 992 969 q 1014 972 1011 972 q 1035 972 1019 972 q 1069 969 1051 971 q 1102 967 1086 968 q 1124 967 1118 967 l 1124 964 q 1117 961 1124 964 q 1101 954 1110 958 q 1082 946 1092 950 q 1064 940 1072 942 q 1046 938 1053 938 q 1029 926 1036 938 q 1023 915 1026 922 q 1016 899 1019 907 q 1010 885 1013 892 q 1007 878 1007 879 l 1007 443 q 1012 426 1010 440 q 1014 408 1014 411 q 1018 362 1015 396 q 1023 290 1021 328 q 1027 217 1025 251 q 1029 171 1029 183 q 1049 101 1038 131 q 1077 54 1060 72 q 1119 28 1094 36 q 1182 19 1144 19 l 1182 0 m 943 282 q 944 265 943 275 q 956 254 946 254 q 976 274 969 254 q 983 310 983 294 q 982 322 983 318 q 971 326 981 326 q 949 311 956 326 q 943 282 943 296 z "},"N":{"ha":1001,"x_min":0,"x_max":974,"o":"m 847 -6 q 846 -8 846 -7 q 878 -10 867 -15 l 871 -10 q 867 83 876 47 q 844 151 857 119 l 840 181 q 842 192 840 183 q 845 209 843 200 q 849 226 847 218 q 851 235 851 233 q 852 252 851 238 q 853 285 853 267 q 855 322 854 304 q 856 350 856 340 q 860 598 857 476 q 871 846 863 719 q 883 890 881 876 q 890 913 886 904 q 902 931 893 922 q 933 961 911 940 q 943 965 936 964 q 957 967 950 967 q 969 969 964 968 q 974 975 974 971 q 969 981 974 981 q 963 982 965 982 q 951 980 956 982 q 942 978 947 978 l 939 978 q 933 980 938 978 q 925 982 928 982 q 921 980 922 982 q 919 978 919 978 q 885 974 908 975 q 843 974 863 974 l 826 974 l 815 974 q 740 977 776 974 q 663 981 703 981 q 672 961 663 968 q 693 951 681 954 q 719 947 706 949 q 740 943 732 946 q 758 935 751 940 q 778 922 765 929 q 781 920 779 922 q 786 918 783 918 q 822 878 814 908 q 832 818 829 849 l 832 678 q 831 547 832 611 q 829 411 829 482 l 829 408 q 830 381 829 400 q 831 340 831 363 q 831 301 831 319 q 832 274 832 282 l 832 265 q 829 247 832 258 q 821 231 826 235 l 818 231 q 810 234 815 233 q 806 235 806 235 l 469 625 q 466 631 468 626 q 461 638 464 636 q 455 649 460 642 q 445 662 450 656 q 435 674 440 668 q 429 681 431 679 l 290 842 q 268 874 285 851 q 233 919 251 896 q 199 960 215 942 q 181 978 183 978 q 167 974 178 978 q 157 968 157 971 l 153 968 q 79 971 118 968 q 6 976 40 974 q 6 964 7 969 q 6 951 6 958 l 8 951 q 69 938 39 951 q 122 907 99 924 q 165 844 150 881 q 181 767 181 807 l 181 764 q 171 610 172 688 q 169 456 169 533 q 165 302 168 379 q 151 149 163 225 q 149 139 151 146 q 144 129 147 132 q 142 122 144 128 q 135 109 139 115 q 129 97 132 103 q 126 89 126 90 q 127 81 126 89 q 126 71 128 74 q 122 69 126 71 q 117 67 118 68 q 82 45 97 61 q 47 26 67 29 q 28 23 40 26 q 14 19 17 19 q 3 6 6 7 q 0 1 0 4 l 0 -1 q 41 -1 22 -6 q 83 1 60 3 q 108 13 99 13 q 124 11 117 13 q 141 12 132 10 q 160 21 150 14 q 181 44 169 28 l 190 44 q 192 25 190 38 q 200 6 193 13 l 256 6 q 264 5 258 6 q 269 1 269 4 l 278 1 q 308 5 286 4 q 344 6 329 6 l 360 6 l 360 8 q 347 19 360 13 q 315 34 333 26 q 281 49 297 42 q 256 60 264 56 q 230 88 238 71 q 208 121 222 106 q 200 125 204 125 q 193 140 196 128 q 188 168 190 151 q 185 203 186 185 q 185 239 185 222 l 185 274 q 190 513 185 392 q 197 753 194 635 q 201 759 199 754 q 207 764 204 764 l 208 764 l 360 593 q 365 589 360 592 q 374 583 371 586 q 376 581 375 583 q 378 579 378 579 q 384 569 379 576 q 394 552 389 561 q 405 535 400 543 q 411 526 410 528 q 417 522 411 526 q 426 515 422 518 l 438 506 q 443 493 438 504 q 449 481 449 482 q 468 459 458 467 q 488 444 478 451 q 506 426 497 436 q 521 400 514 417 q 533 388 525 396 q 549 369 540 379 q 567 351 558 360 q 578 339 575 342 q 600 308 589 325 q 623 274 611 290 q 648 244 635 257 q 678 228 661 232 q 687 220 683 226 q 693 206 690 214 q 699 189 696 197 q 707 175 703 181 q 742 135 722 156 q 778 93 763 114 q 783 79 779 90 q 788 67 788 68 q 815 33 799 47 q 836 0 832 19 q 847 -3 842 -1 q 856 -6 851 -4 l 847 -6 m 793 104 l 785 182 q 790 170 785 183 q 801 140 794 157 q 813 109 807 124 q 818 94 818 94 l 861 69 l 853 49 q 848 50 851 46 q 840 60 844 54 q 830 72 835 67 q 821 75 825 76 l 793 104 m 826 935 q 829 940 826 940 q 837 927 833 933 q 840 914 840 921 l 840 913 q 840 898 840 910 q 839 886 839 886 q 835 894 838 888 q 831 910 833 901 q 828 925 829 918 q 826 935 826 932 m 186 69 l 190 93 q 188 108 190 96 q 186 125 186 119 q 189 131 186 131 q 192 122 189 129 q 199 107 196 115 q 203 99 203 99 l 203 71 q 201 65 201 71 q 202 56 201 61 q 203 44 203 50 l 203 42 l 186 69 m 321 740 q 331 738 326 740 q 336 732 336 735 l 336 694 q 332 701 335 694 q 327 717 329 708 q 323 733 325 725 q 321 740 321 740 z "},"O":{"ha":1001,"x_min":0,"x_max":975,"o":"m 92 224 l 85 231 q 78 226 83 231 q 69 219 72 222 l 67 219 q 56 228 58 219 q 52 250 53 238 q 50 274 51 263 q 44 292 49 286 q 35 301 44 294 q 26 310 26 307 q 8 350 14 328 q 1 395 3 372 q 1 441 0 418 q 1 483 1 464 q 17 614 1 554 q 65 736 33 674 q 82 766 75 754 q 97 787 89 778 q 114 804 104 796 q 140 825 124 813 q 154 842 150 831 q 169 861 158 853 q 172 862 169 861 q 176 863 174 863 q 204 883 193 869 q 233 908 215 897 q 346 956 285 939 q 469 974 407 974 q 535 971 501 974 q 601 963 568 968 q 622 961 604 963 q 642 958 639 960 q 644 957 642 958 q 653 953 647 956 q 684 940 667 946 q 706 931 701 933 q 711 930 706 931 q 717 926 717 929 q 736 917 725 922 q 758 908 747 913 q 776 899 768 903 q 785 894 783 896 l 885 797 q 924 735 907 774 q 951 652 940 696 q 969 565 963 608 q 975 493 975 522 q 960 383 975 435 q 932 276 944 331 q 903 231 913 257 q 875 183 893 206 q 469 3 719 3 q 380 12 429 3 q 283 40 331 21 q 194 86 235 58 q 133 150 154 114 q 126 154 129 156 q 117 157 122 153 q 97 188 101 167 q 92 224 92 208 m 435 31 q 453 28 440 29 q 479 26 465 26 q 505 24 493 25 q 521 24 517 24 q 584 32 549 21 q 642 57 619 43 q 661 72 653 64 q 681 86 669 81 q 726 131 704 107 q 769 181 749 156 q 776 204 775 188 q 789 224 778 221 l 796 219 l 799 219 l 800 219 q 801 222 800 219 q 806 224 803 224 q 804 236 804 225 q 806 265 804 250 q 807 288 807 281 q 812 297 810 289 q 817 307 814 304 q 831 381 819 339 q 842 461 842 424 q 824 610 842 536 q 774 753 806 685 q 756 783 763 772 q 742 814 749 794 q 731 822 738 815 q 716 835 724 828 q 702 850 708 843 q 694 861 696 857 q 685 871 692 861 q 678 883 678 881 q 672 885 675 883 q 669 888 669 888 q 573 938 619 919 q 464 956 526 956 l 431 956 q 422 952 429 954 q 407 947 415 950 q 392 942 399 944 q 383 940 385 940 q 363 936 372 936 q 344 931 350 936 q 319 912 329 922 q 292 894 310 901 q 208 799 243 854 q 160 682 172 744 q 156 667 160 679 q 153 651 153 654 q 139 593 144 622 q 133 533 133 564 q 138 447 133 496 q 153 357 143 397 q 165 320 157 343 q 176 278 174 297 q 185 260 179 274 q 199 233 192 247 q 212 205 206 218 q 219 188 218 192 q 222 182 221 188 q 224 176 224 176 q 228 168 228 174 l 299 93 q 321 81 301 93 q 351 61 340 68 q 393 44 371 51 q 435 31 415 38 m 153 190 l 153 197 q 153 210 151 200 q 154 221 154 221 l 132 279 q 131 267 131 282 q 133 233 132 253 q 134 197 133 214 q 135 179 135 179 q 149 181 144 179 q 153 190 153 182 m 843 294 l 843 278 q 846 247 843 264 q 857 229 849 229 l 860 229 l 864 231 l 864 233 l 864 235 q 867 246 864 238 q 871 256 871 254 l 860 303 q 856 310 857 310 l 856 311 q 853 313 856 313 q 844 306 846 313 q 843 294 843 300 m 899 386 q 900 376 899 383 q 903 361 901 369 q 908 347 906 353 q 913 340 910 340 q 919 347 917 340 q 922 363 921 354 q 924 379 924 371 q 925 390 925 388 q 920 401 925 394 q 913 410 915 408 q 901 401 903 411 q 899 386 899 390 m 42 518 l 42 511 q 44 504 42 507 q 58 517 47 507 q 69 531 69 528 q 71 544 69 532 q 74 572 72 557 q 76 600 75 588 q 78 615 78 613 q 67 601 74 615 q 56 569 61 588 q 46 536 50 551 q 42 518 42 521 m 897 607 l 914 526 q 938 501 914 501 q 931 526 938 507 q 916 565 924 546 q 902 599 908 585 q 897 607 896 613 z "},"P":{"ha":797,"x_min":0,"x_max":775,"o":"m 7 13 q 0 0 0 6 q 101 4 53 0 q 203 8 150 8 q 255 5 231 8 q 307 1 279 1 l 458 1 l 456 13 q 369 33 411 18 q 296 81 328 49 q 281 117 285 96 q 265 153 276 138 l 265 226 l 265 299 q 266 323 265 304 q 268 363 267 342 q 270 403 269 383 q 271 431 271 422 q 280 451 272 444 q 299 461 288 458 q 322 463 310 464 q 347 463 335 463 l 399 465 q 505 477 458 465 q 583 504 551 489 q 635 535 615 519 q 664 557 656 550 q 673 565 665 558 q 690 578 681 571 q 710 593 700 585 q 728 607 721 601 q 732 617 728 610 q 741 631 736 624 q 750 645 746 639 q 756 653 754 651 q 771 703 767 672 q 775 757 775 733 q 768 796 775 772 q 753 829 761 819 q 746 834 750 829 q 738 844 742 839 q 732 855 735 850 q 729 858 729 860 q 734 842 729 857 q 743 814 739 826 q 749 800 747 801 q 749 792 749 799 q 751 780 750 786 q 753 769 753 774 q 754 765 754 764 l 756 772 q 756 773 757 778 q 752 760 756 768 q 743 745 749 753 q 729 738 738 738 q 726 747 721 738 q 728 763 731 756 q 723 802 725 781 q 715 844 721 824 q 701 881 710 864 q 675 908 692 899 q 659 918 671 911 q 647 925 647 925 q 660 900 651 911 q 663 869 669 889 q 666 859 663 869 q 667 849 669 849 q 656 867 663 851 q 642 901 650 883 q 624 934 635 919 q 597 949 613 949 q 588 949 594 949 q 573 951 581 950 q 558 953 565 951 q 550 956 551 954 q 536 958 546 956 q 515 964 526 961 q 494 969 504 967 q 482 972 485 972 q 472 973 481 972 q 449 975 463 974 q 429 976 436 976 q 418 977 426 976 q 399 978 410 978 q 378 978 388 979 q 364 972 368 976 q 360 970 364 972 q 357 965 357 968 q 345 970 357 965 q 333 972 333 975 q 328 969 333 972 q 316 963 322 967 q 305 957 310 960 q 300 953 300 954 q 347 951 314 949 q 407 953 381 953 q 436 949 425 953 q 506 926 468 938 q 578 885 544 914 q 633 808 622 853 q 644 711 644 763 q 613 613 644 656 q 533 542 582 571 q 426 498 485 513 q 311 483 367 483 q 292 486 306 483 q 276 497 279 489 l 271 536 l 271 667 q 270 735 271 699 q 269 810 269 772 q 272 885 269 847 q 283 956 275 922 l 283 958 l 308 976 q 300 978 307 978 l 283 978 q 267 977 275 978 q 256 976 258 976 q 244 972 254 976 q 223 961 235 968 q 202 944 211 954 q 193 925 193 935 l 171 976 q 132 970 158 969 q 78 974 106 971 q 29 978 51 976 q 1 976 7 981 l 1 963 l 85 942 q 94 940 82 942 q 124 930 107 938 q 157 908 142 922 q 175 867 172 893 q 174 797 169 832 q 179 726 179 761 q 178 683 179 715 q 176 608 178 651 q 172 517 174 565 q 169 426 171 469 q 166 351 167 383 q 165 308 165 319 q 166 290 165 304 q 167 258 167 275 l 167 228 q 165 210 167 211 q 164 190 165 206 q 160 158 163 175 q 156 126 158 142 q 151 104 153 110 q 122 65 135 81 q 92 40 108 50 q 56 24 76 31 q 7 13 36 18 m 186 104 l 186 121 q 196 133 186 133 l 200 128 q 205 126 203 128 q 207 125 207 125 l 207 115 q 208 101 207 108 q 208 86 208 93 l 208 78 q 208 56 208 61 q 200 38 207 50 q 187 69 188 50 q 186 104 186 89 m 649 635 l 674 592 q 669 591 675 590 q 656 590 664 592 q 636 583 647 589 q 614 563 625 576 q 622 575 615 564 q 634 599 628 586 q 645 624 640 613 q 649 635 650 635 m 214 604 l 243 538 q 238 528 244 538 q 231 510 231 519 l 231 492 q 229 482 231 483 q 224 501 228 482 q 218 542 221 519 q 214 585 215 565 q 214 604 213 604 z "},"Q":{"ha":1017,"x_min":0,"x_max":976,"o":"m 968 32 q 895 82 936 64 q 818 124 854 100 q 875 181 847 149 q 903 228 893 203 q 932 274 913 254 q 960 380 944 328 q 975 490 975 432 q 969 563 975 519 q 951 649 963 606 q 924 732 940 693 q 885 794 907 771 l 785 892 q 776 897 783 893 q 758 905 768 900 q 736 915 747 910 q 717 924 725 919 q 711 927 717 926 q 706 928 706 928 q 684 937 701 931 q 653 950 667 943 q 644 954 647 953 q 642 956 642 956 q 622 958 639 957 q 601 960 604 960 q 535 968 568 965 q 469 971 501 971 q 346 953 407 971 q 233 906 285 936 q 204 881 215 894 q 176 860 193 867 q 172 859 174 860 q 169 858 169 858 q 154 839 158 850 q 140 822 150 828 q 114 801 124 810 q 97 784 104 793 q 82 763 89 775 q 65 733 75 751 q 17 611 33 671 q 1 481 1 551 q 1 438 1 461 q 1 392 0 415 q 8 347 3 369 q 26 307 14 325 q 35 298 26 304 q 44 289 44 292 q 50 272 49 283 q 52 247 51 260 q 56 226 53 235 q 67 217 58 217 l 69 217 q 78 224 72 219 q 85 228 83 228 l 92 221 q 97 185 92 206 q 117 154 101 164 q 126 151 122 150 q 133 147 129 153 q 194 83 154 111 q 283 37 235 56 q 380 9 331 18 q 469 0 429 0 q 746 71 626 0 q 759 60 753 65 q 772 50 765 56 q 861 0 824 32 l 886 0 l 900 0 l 914 0 l 971 0 q 976 14 976 4 q 968 32 975 24 m 638 160 q 671 132 654 146 q 704 104 688 118 q 692 94 697 99 q 681 83 686 89 q 661 69 669 78 q 642 54 653 61 q 584 29 619 40 q 521 21 549 18 q 505 22 517 21 q 479 23 493 22 q 453 25 465 24 q 435 28 440 26 q 393 42 415 35 q 351 58 371 49 q 338 67 346 63 q 321 78 329 72 q 306 87 313 83 q 299 90 300 90 l 228 165 q 224 174 228 171 q 222 179 224 174 q 219 185 221 185 q 212 202 218 189 q 199 230 206 215 q 185 258 192 244 q 176 275 179 271 q 165 317 174 294 q 153 354 157 340 q 138 444 143 394 q 133 531 133 493 q 139 590 133 561 q 153 649 144 619 q 156 664 153 651 q 160 679 160 676 q 208 797 172 742 q 292 892 243 851 q 319 909 310 899 q 344 928 329 919 q 363 933 350 933 q 383 938 372 933 q 392 940 385 938 q 407 944 399 942 q 422 949 415 947 q 431 953 429 951 l 464 953 q 573 935 526 953 q 669 885 619 917 q 672 883 669 885 q 678 881 675 881 q 685 868 678 878 q 694 858 692 858 q 702 847 696 854 q 716 833 708 840 q 731 819 724 825 q 742 811 738 813 q 756 781 749 792 q 774 750 763 769 q 824 608 806 682 q 842 458 842 533 q 831 378 842 421 q 817 304 819 336 q 812 294 814 301 q 807 285 810 286 q 806 263 807 278 q 804 233 804 247 q 806 221 804 222 q 801 219 803 221 q 800 217 800 217 l 796 217 l 789 221 q 781 214 783 219 q 776 201 778 208 q 774 188 775 194 q 769 178 772 182 q 768 175 768 176 l 767 175 q 763 181 764 178 q 758 186 761 183 q 725 192 739 174 q 722 195 724 193 q 718 200 721 197 q 694 214 704 200 q 690 219 692 217 q 686 224 688 222 q 665 265 671 242 q 650 279 653 278 q 621 282 635 290 q 607 256 607 274 l 607 254 q 606 253 606 254 q 599 240 601 246 q 600 226 596 233 q 631 168 603 190 q 638 160 633 161 m 932 551 q 933 549 932 550 q 933 547 933 549 q 935 532 939 538 q 936 529 936 532 l 936 517 q 935 513 936 514 q 935 511 935 513 q 937 501 936 504 q 938 499 938 497 q 918 504 924 499 q 917 506 918 506 q 911 508 914 506 q 910 510 911 510 q 910 511 910 511 q 908 514 908 513 l 908 517 q 906 526 906 519 q 907 535 906 533 q 906 544 904 543 l 903 553 q 891 569 900 564 q 885 586 882 574 q 885 598 881 593 q 897 601 890 603 l 897 604 q 897 606 896 607 q 899 601 897 604 q 911 592 910 599 q 914 585 914 589 q 931 554 929 572 q 932 551 931 551 m 772 89 q 769 108 761 97 q 789 111 778 119 q 803 100 797 107 q 817 88 808 93 l 821 88 q 836 74 836 88 q 821 60 836 60 q 794 69 806 60 q 772 89 783 79 m 42 515 q 46 533 42 518 q 56 567 50 549 q 67 599 61 585 q 78 613 74 613 q 76 597 78 610 q 74 569 75 585 q 71 542 72 554 q 69 528 69 529 q 58 515 69 525 q 44 501 47 504 q 42 508 42 504 l 42 515 m 843 292 q 844 303 843 297 q 853 310 846 310 q 856 308 856 310 l 856 307 q 860 300 857 307 l 871 253 q 867 243 871 251 q 864 232 864 235 l 864 228 l 860 226 l 857 226 q 846 244 849 226 q 843 275 843 261 l 843 292 m 153 188 q 149 178 153 179 q 135 176 144 176 q 134 194 135 176 q 133 231 133 211 q 131 265 132 250 q 132 276 131 279 l 154 218 q 153 208 154 218 q 153 194 151 197 l 153 188 m 899 383 q 901 398 899 388 q 913 407 903 408 q 920 399 915 406 q 925 388 925 392 q 924 376 925 385 q 922 360 924 368 q 919 344 921 351 q 913 338 917 338 q 908 344 910 338 q 903 358 906 350 q 900 374 901 367 q 899 383 899 381 m 94 364 q 81 349 94 349 q 67 364 67 349 q 81 379 67 379 q 94 364 94 379 m 851 783 q 838 768 851 768 q 824 783 824 768 q 838 799 824 799 q 851 783 851 799 m 679 181 q 665 165 679 165 q 651 181 651 165 q 665 196 651 196 q 679 181 679 196 z "},"R":{"ha":874,"x_min":1,"x_max":1068,"o":"m 11 15 q 1 1 1 10 q 106 6 57 1 q 207 11 154 11 q 259 8 235 11 q 311 4 283 4 q 385 8 349 4 q 460 11 422 11 l 460 15 q 374 36 415 21 q 300 83 332 51 q 285 119 289 99 q 269 156 281 140 l 269 229 l 269 301 q 270 326 269 307 q 272 365 271 344 q 274 406 274 386 q 275 433 275 425 q 284 454 276 447 q 303 464 292 461 q 328 466 315 467 q 353 465 340 465 q 460 442 422 465 q 524 384 499 419 q 573 305 550 349 q 635 219 596 261 q 685 163 658 190 q 740 107 713 136 q 757 87 749 99 q 776 65 765 75 q 799 47 786 54 q 831 40 813 40 q 844 54 844 40 q 838 72 844 63 q 823 93 831 82 q 808 117 815 104 q 801 146 801 131 q 806 163 801 157 q 810 181 810 169 q 794 200 806 186 q 771 228 783 214 q 748 256 758 243 q 733 275 738 269 q 726 281 731 275 q 721 286 721 286 q 706 294 718 289 q 693 301 693 299 q 683 316 692 301 q 663 353 675 331 q 638 401 651 375 q 612 451 624 428 q 592 490 600 474 q 585 508 585 506 q 594 529 585 521 q 617 542 604 538 q 644 552 631 547 q 667 564 658 557 q 676 573 668 565 q 695 590 685 581 q 716 608 706 599 q 733 624 726 618 q 737 631 733 626 q 745 641 740 636 q 754 650 750 646 q 760 656 758 654 q 775 706 771 675 q 779 760 779 736 q 774 792 779 775 q 760 819 768 810 q 753 828 754 819 q 751 833 751 836 q 752 817 751 831 q 753 803 753 803 q 756 791 753 800 q 760 779 760 782 l 760 775 q 754 752 760 764 q 733 740 749 740 q 719 747 724 740 q 713 760 715 753 q 710 800 710 778 q 710 844 711 822 q 702 883 708 865 q 679 911 696 901 q 663 921 675 914 q 651 928 651 928 q 665 903 656 914 q 667 872 674 892 q 665 871 667 872 q 660 869 663 869 q 651 885 656 872 q 641 913 647 899 q 625 940 635 928 q 601 951 615 951 q 592 952 599 951 q 577 953 585 953 q 563 956 569 954 q 554 958 556 957 q 540 961 550 958 q 519 967 531 964 q 499 972 508 969 q 486 975 489 975 l 429 975 l 368 975 q 365 973 368 975 q 361 968 361 971 q 349 973 361 968 q 338 975 338 978 q 339 972 338 975 q 340 965 340 968 q 390 959 360 960 q 440 951 421 958 q 512 921 472 940 q 582 888 551 901 q 627 806 606 847 q 649 714 649 765 q 617 617 649 660 q 536 546 585 575 q 428 501 488 517 q 315 486 369 486 q 297 489 310 486 q 281 500 283 492 l 275 539 l 275 669 q 274 738 275 701 q 274 813 274 775 q 276 888 274 850 q 288 958 279 925 l 288 961 q 273 966 285 964 q 254 968 261 968 q 241 966 251 968 q 228 961 231 964 l 208 961 q 218 890 214 924 q 219 819 222 856 l 217 810 l 214 810 q 205 824 208 810 q 199 853 201 838 q 194 883 196 869 q 193 897 193 897 q 181 814 188 863 q 174 731 174 765 l 174 688 q 173 613 174 657 q 172 521 172 568 q 170 429 171 474 q 169 354 169 385 l 169 311 q 170 292 169 307 q 171 261 171 278 l 171 231 q 169 213 171 214 q 168 193 169 208 q 165 161 167 178 q 160 128 163 144 q 156 107 157 113 q 126 68 139 83 q 97 43 113 53 q 60 27 81 33 q 11 15 40 21 m 190 107 l 190 124 q 200 136 190 136 l 204 131 q 209 129 207 131 q 211 128 211 128 l 211 97 l 211 67 q 204 40 211 58 q 191 72 192 53 q 190 107 190 92 m 211 189 q 214 186 214 189 q 211 181 214 183 q 208 185 208 181 q 211 189 208 189 m 861 6 l 858 1 q 866 -1 861 1 q 874 1 871 -4 q 885 22 881 19 q 891 19 889 24 q 896 7 893 14 q 903 0 899 0 q 918 7 910 7 q 952 0 932 7 q 993 -7 972 -7 q 986 6 989 -3 q 989 15 983 15 q 975 25 982 24 q 957 39 968 26 q 937 54 949 47 q 913 74 925 61 l 908 74 q 896 88 904 75 q 878 115 888 101 q 862 135 869 128 q 851 132 854 142 q 865 76 857 92 q 867 44 872 60 q 861 6 874 19 m 1018 7 q 1040 1 1031 6 q 1061 -11 1050 -3 q 1062 -19 1068 -18 q 1044 -19 1056 -19 q 1033 -18 1038 -19 q 1017 -8 1018 -15 q 1018 7 1015 0 m 186 956 l 189 956 q 109 968 149 969 q 29 956 69 967 q 33 950 33 953 q 32 944 33 947 q 31 938 31 940 q 33 936 31 936 q 76 933 61 936 q 101 926 92 931 q 117 917 110 922 q 135 906 124 911 l 171 858 q 175 894 172 875 q 180 928 178 913 q 184 953 182 944 q 186 956 186 961 z "},"S":{"ha":692,"x_min":6,"x_max":668,"o":"m 626 943 l 594 946 q 572 936 589 936 l 565 940 q 494 957 529 947 q 419 967 458 967 q 354 962 389 967 q 286 947 319 957 q 224 919 253 936 q 176 879 196 903 q 161 863 168 865 q 154 846 154 861 q 155 833 154 844 q 156 807 156 821 q 156 781 156 793 q 157 768 157 769 q 152 719 157 740 q 150 671 147 699 q 151 658 150 668 q 149 649 151 649 q 138 667 142 649 q 132 696 135 685 q 130 716 131 707 q 129 733 129 725 q 133 785 129 761 q 136 842 136 808 l 124 840 q 117 828 124 840 q 107 807 110 815 q 96 779 101 799 q 90 753 90 760 q 88 734 90 753 q 86 704 86 715 q 88 683 86 700 q 90 661 90 667 q 106 617 103 640 q 126 575 110 594 q 194 513 156 540 q 276 460 233 485 q 361 413 318 435 q 442 367 404 390 q 472 352 458 360 q 492 329 485 344 q 535 267 519 310 q 550 178 550 225 q 532 161 550 163 q 458 51 515 86 q 321 17 401 17 q 244 28 275 17 q 188 56 213 39 q 142 95 163 74 q 96 138 121 117 q 93 119 96 132 q 88 104 90 107 q 88 96 88 103 q 89 81 89 89 q 90 65 89 72 q 90 57 90 58 l 86 57 q 75 72 78 57 q 71 108 72 88 q 69 149 69 129 q 64 178 68 169 q 53 197 60 185 q 39 224 46 210 q 25 251 32 238 q 14 272 18 264 l 6 279 l 6 263 l 6 242 q 10 234 6 242 q 14 224 14 226 q 19 193 15 215 q 26 147 22 171 q 33 101 29 124 q 38 71 36 79 q 49 60 40 64 q 64 53 57 56 q 90 36 78 46 q 118 24 101 26 q 310 -3 215 -3 q 383 6 339 -3 q 470 29 426 14 q 550 65 514 44 q 601 111 586 86 q 624 144 613 128 q 646 176 636 160 q 662 211 656 193 q 668 251 668 229 q 636 368 668 321 q 555 451 604 415 q 448 516 506 488 q 338 575 390 544 q 245 644 285 606 q 194 736 206 682 q 188 760 192 749 q 185 783 185 771 q 206 853 185 822 q 258 906 226 885 q 330 938 290 928 q 406 943 369 947 q 417 942 407 943 q 441 938 428 940 q 468 932 454 935 q 490 926 482 929 q 530 903 518 922 q 558 861 542 885 q 572 828 568 849 q 578 788 575 808 q 586 751 582 768 q 601 729 590 735 l 608 736 q 611 760 608 739 q 617 790 614 781 q 616 810 617 794 q 615 843 615 826 l 615 876 q 617 897 615 896 q 620 923 617 917 q 626 943 624 929 z "},"T":{"ha":1001,"x_min":4,"x_max":976,"o":"m 906 954 q 815 949 865 944 q 718 953 765 953 l 647 963 l 569 951 q 525 948 546 944 q 482 951 504 951 l 360 951 q 309 957 343 960 q 242 954 275 954 l 106 950 l 25 971 l 25 963 q 24 949 25 957 q 24 935 24 942 l 24 926 q 14 847 24 886 q 4 769 4 807 q 5 756 4 763 q 13 744 6 750 q 75 847 32 803 q 185 903 118 890 q 223 904 196 903 q 280 906 250 906 q 337 908 310 907 q 375 910 364 910 l 394 910 q 444 863 444 910 l 444 819 q 444 797 444 808 q 442 775 443 786 q 435 615 436 699 q 433 453 433 532 l 433 335 q 440 322 440 332 q 433 301 440 311 q 426 278 426 290 q 430 253 426 265 q 433 226 433 242 q 426 185 433 211 q 415 146 418 160 q 390 86 404 110 q 356 48 376 63 q 307 26 336 33 q 236 13 278 18 q 247 6 239 10 q 261 0 256 1 q 276 3 264 0 q 290 6 288 6 l 717 6 q 722 8 717 6 q 726 13 726 10 l 726 15 l 726 18 q 711 20 722 18 q 686 26 700 22 q 660 32 672 29 q 643 36 649 35 q 588 63 607 44 q 560 104 569 81 q 547 156 550 128 q 539 211 543 183 q 538 224 539 213 q 538 251 538 236 q 537 285 538 268 q 536 311 536 301 l 536 315 l 536 318 q 537 338 536 324 q 538 367 538 351 q 538 397 538 383 q 539 415 539 411 l 539 910 q 654 913 594 910 q 769 908 714 915 q 871 876 825 900 q 943 800 917 853 q 958 769 947 786 q 968 751 968 751 l 976 751 q 972 811 976 782 q 968 872 968 840 l 968 910 q 972 920 968 910 q 976 933 976 931 q 975 944 976 935 q 972 966 974 954 q 969 979 969 978 q 953 972 969 979 q 922 960 936 965 q 906 954 908 956 m 433 131 l 444 136 l 444 235 q 456 265 456 250 q 471 294 457 281 l 476 288 l 476 183 q 474 174 476 181 q 471 164 471 167 l 471 161 q 478 111 471 138 q 485 58 485 85 q 483 46 485 49 q 465 43 481 43 q 447 46 461 43 q 433 58 433 49 l 433 131 z "},"U":{"ha":1017,"x_min":0,"x_max":993,"o":"m 69 960 l 0 956 l 0 950 q 1 942 0 942 l 10 942 q 29 941 18 942 q 43 940 40 940 q 56 939 58 940 q 54 935 54 938 l 64 935 q 90 928 72 935 q 114 921 107 921 q 122 917 122 921 q 123 911 122 915 q 125 900 124 907 q 128 876 126 892 q 131 844 129 860 q 133 815 132 828 q 133 801 133 803 l 133 471 q 131 427 131 446 q 132 385 132 408 q 133 304 132 344 q 142 225 135 264 q 164 151 149 186 q 208 86 179 115 q 218 76 213 83 q 231 60 224 68 q 248 45 239 51 q 268 39 257 39 q 273 40 269 39 q 276 46 276 40 l 292 101 l 294 104 l 299 110 q 308 97 307 110 q 309 68 310 85 q 309 36 308 51 q 318 15 310 21 q 414 -8 361 -4 q 515 -12 467 -12 q 583 -8 542 -12 q 665 10 625 -3 q 735 45 706 22 q 764 104 764 68 l 754 104 q 576 31 681 31 q 503 34 542 31 q 428 49 465 38 q 358 79 390 60 q 301 131 325 99 q 274 172 286 149 q 254 214 263 194 q 248 238 251 224 q 241 266 244 253 q 235 289 238 279 q 232 299 232 299 l 232 842 q 219 877 221 854 q 218 918 218 900 q 220 931 218 922 q 222 939 222 939 l 225 944 l 236 929 q 240 865 222 899 q 281 908 260 889 q 332 939 301 928 q 346 940 336 940 q 365 940 356 939 q 382 944 375 940 q 389 956 389 947 l 171 956 q 160 953 167 956 q 153 950 153 950 l 147 950 l 142 950 q 125 954 126 953 q 117 956 124 956 l 104 956 l 69 960 m 810 960 q 816 903 810 931 q 829 847 822 875 q 842 789 836 818 q 849 729 849 760 l 849 372 q 842 297 849 340 q 824 222 835 254 q 804 169 815 197 q 786 115 793 142 q 801 119 793 115 q 813 131 810 124 q 849 216 836 172 q 867 304 861 260 q 873 395 872 349 q 874 489 874 442 l 874 519 l 874 569 q 874 621 874 597 q 876 649 875 644 q 880 742 879 697 q 890 827 881 788 q 922 899 899 867 q 993 956 944 932 q 972 959 988 956 q 954 963 956 963 l 951 963 l 947 963 q 933 961 943 963 q 910 959 922 960 q 889 957 899 958 q 876 956 879 956 l 876 847 q 868 842 876 842 l 867 842 l 864 842 q 859 897 861 869 q 854 953 857 925 q 849 956 854 956 l 840 956 q 825 958 838 956 q 810 960 813 960 m 204 172 l 201 154 l 199 153 q 211 140 204 153 q 218 124 218 126 q 216 124 218 121 q 211 130 214 126 q 206 136 208 133 q 204 138 204 139 q 192 156 189 143 q 204 172 196 169 m 157 271 q 157 312 160 292 q 150 351 154 332 q 142 392 146 371 q 138 435 138 413 l 153 435 q 164 383 158 410 q 181 331 169 356 q 190 294 182 322 q 204 246 197 267 l 204 243 l 204 240 q 203 234 204 236 q 201 232 201 232 q 185 240 193 232 q 172 254 182 243 q 157 271 161 265 m 193 804 l 174 925 l 204 921 q 207 903 206 921 q 208 876 208 886 q 207 868 208 876 q 206 854 206 860 q 206 825 206 835 q 204 792 207 815 l 193 804 m 657 956 q 666 949 660 953 q 676 944 672 944 q 687 942 678 943 q 707 941 696 942 q 728 940 718 940 q 739 939 738 939 q 752 932 744 938 q 768 921 760 926 q 785 910 776 915 q 799 906 793 906 l 799 915 q 796 943 799 928 q 788 958 793 958 l 657 956 z "},"V":{"ha":983,"x_min":7,"x_max":969,"o":"m 358 243 q 375 208 372 229 q 378 190 376 199 q 382 169 379 181 q 398 122 393 142 q 415 78 403 101 l 425 63 l 429 24 q 435 7 429 17 q 447 -3 440 -3 q 463 -1 453 -3 q 483 2 472 0 q 501 7 493 4 q 513 14 510 10 q 535 72 521 39 q 563 140 549 106 q 590 208 578 175 q 610 265 603 240 q 615 278 611 268 q 621 292 619 288 q 624 299 621 292 q 631 313 628 306 q 637 328 635 321 q 639 336 639 335 q 642 347 640 336 q 643 361 644 358 q 647 368 644 364 q 650 375 650 372 q 659 396 654 381 q 664 411 664 411 q 670 435 669 425 q 670 455 671 446 q 670 473 669 464 q 676 494 671 482 q 685 514 679 506 q 694 533 692 522 q 724 600 706 569 q 754 667 742 631 q 769 717 764 692 q 790 765 775 742 l 804 801 l 824 831 q 833 861 821 850 q 851 886 844 872 l 861 906 q 864 910 861 907 q 867 915 867 913 q 875 919 868 915 q 890 929 882 924 q 905 940 897 935 q 917 949 913 946 q 936 958 924 956 q 960 968 949 961 l 969 975 q 964 978 967 976 q 960 979 961 979 l 885 975 q 879 970 881 975 q 876 960 878 965 q 872 951 874 956 q 865 946 869 946 q 859 942 863 949 q 854 936 856 935 q 846 935 849 931 q 843 932 843 939 l 838 932 q 833 936 833 932 q 836 956 833 944 q 839 975 839 968 l 819 960 l 806 904 q 808 894 806 903 q 813 874 811 885 q 815 863 815 863 l 814 863 l 811 863 q 809 868 811 863 q 805 881 807 874 q 801 896 803 889 q 799 904 799 903 q 792 923 796 911 q 789 943 789 935 q 790 948 788 943 q 797 959 793 953 q 802 970 800 965 q 800 975 804 975 l 661 975 q 660 974 661 975 q 660 971 660 972 l 660 968 l 660 967 l 661 964 q 708 956 690 958 q 738 949 726 953 q 758 940 750 946 q 775 922 765 935 q 781 909 778 922 q 786 893 783 896 q 788 871 792 879 q 783 851 785 863 l 781 828 q 772 804 778 819 q 759 772 765 789 q 747 738 753 754 q 738 714 740 722 q 732 699 738 711 q 720 673 726 688 q 709 647 714 658 q 704 632 704 635 q 666 507 682 565 q 628 386 650 449 q 610 333 619 360 q 582 278 601 306 q 576 261 582 276 q 560 223 569 246 q 540 173 551 200 q 520 123 529 146 q 505 85 511 100 q 499 69 499 69 q 487 86 493 69 q 474 128 481 103 q 461 182 468 153 q 448 236 454 211 q 436 278 442 261 q 426 294 431 294 q 437 231 429 263 q 447 167 444 199 l 454 104 q 463 88 456 97 q 465 78 469 78 q 456 85 463 78 q 447 94 449 92 l 406 243 q 394 278 393 265 q 400 299 394 290 q 412 314 406 307 q 417 333 418 321 q 404 379 415 350 q 389 425 393 408 q 380 438 388 428 q 364 459 372 447 q 349 481 356 471 q 342 493 342 490 q 312 584 325 538 q 282 675 299 631 q 265 717 275 694 q 245 764 256 740 q 226 810 235 788 q 214 854 218 833 l 214 861 q 217 897 214 869 q 228 942 221 924 q 234 951 231 950 q 240 948 238 951 q 244 940 242 944 q 246 936 246 936 l 250 931 l 256 936 q 287 948 272 943 q 318 958 301 953 l 325 965 l 325 967 l 325 969 q 324 972 325 971 q 324 974 324 974 l 294 974 q 234 970 264 974 q 171 967 204 967 l 157 967 l 96 967 q 82 972 93 969 q 65 975 71 975 q 53 970 60 975 q 43 965 47 965 l 39 965 q 29 970 36 967 q 21 974 22 974 l 19 974 q 12 971 17 974 q 7 965 7 968 q 17 955 7 954 q 35 951 28 956 l 47 943 q 57 940 54 939 q 61 935 60 942 q 72 927 63 935 q 89 913 82 919 q 97 906 96 907 l 121 849 q 138 806 124 843 q 174 716 153 769 q 218 601 194 663 q 263 486 242 540 q 299 392 283 432 q 319 342 315 351 q 325 335 322 335 q 331 337 328 336 q 337 334 333 338 q 344 314 340 331 q 347 300 344 310 q 351 279 349 290 q 356 258 354 268 q 358 243 358 247 m 143 935 q 151 940 143 940 q 165 928 158 940 q 171 913 171 917 q 173 891 171 908 q 175 863 175 874 q 174 854 175 854 q 166 865 171 854 q 156 890 161 876 q 147 917 151 904 q 143 935 143 931 z "},"W":{"ha":1214,"x_min":4,"x_max":1196,"o":"m 267 256 q 266 270 267 260 q 264 292 265 281 q 262 314 263 304 q 261 328 261 324 q 255 349 258 344 q 249 352 251 353 q 243 351 246 351 q 239 357 240 350 q 219 433 233 375 q 185 607 206 490 q 183 640 182 625 q 187 667 185 654 q 189 694 189 681 q 183 728 189 710 q 174 756 179 739 q 165 789 169 772 q 156 821 160 806 q 150 843 151 836 q 141 869 146 857 q 133 892 136 881 q 123 910 129 904 q 110 919 117 917 q 96 922 103 922 q 89 922 90 922 l 61 922 q 60 924 61 922 q 57 926 60 926 q 51 940 56 933 q 40 947 47 947 l 32 947 q 15 949 25 947 q 4 961 4 950 q 9 967 4 964 q 17 969 14 969 l 18 969 q 26 966 19 969 q 36 961 33 963 l 40 961 q 49 963 44 961 q 60 965 54 965 q 75 961 68 965 l 154 963 l 168 963 q 231 966 201 963 q 292 969 261 969 l 321 969 q 322 968 321 969 q 322 965 322 967 l 322 963 l 322 961 l 315 954 q 284 944 299 949 q 253 932 269 939 l 247 926 l 243 932 q 241 936 243 932 q 237 944 239 940 q 231 947 235 947 q 225 938 228 946 q 215 922 219 926 q 207 911 210 918 q 206 900 206 908 q 207 883 206 892 q 210 866 208 874 q 211 857 211 858 l 222 801 q 228 771 226 781 q 233 750 231 761 q 240 722 236 739 q 251 672 244 706 q 260 631 257 649 q 267 595 264 613 q 274 559 269 578 q 283 518 278 540 q 287 502 283 515 q 294 474 290 489 q 303 445 299 458 q 308 429 307 432 q 314 409 310 421 q 323 385 318 397 q 331 360 328 372 q 335 339 335 347 q 328 290 335 315 q 322 239 321 264 l 332 129 q 332 122 332 128 q 333 110 332 117 q 334 99 333 104 q 336 94 335 94 q 340 117 340 94 q 343 179 339 139 q 343 240 346 211 q 340 300 340 268 q 350 292 347 300 q 355 276 353 285 q 360 259 357 267 q 372 251 364 251 q 375 252 372 251 q 378 256 378 253 q 404 313 396 279 q 419 372 413 346 q 464 495 440 436 q 508 621 488 554 q 511 634 508 624 q 518 656 514 644 q 525 678 522 668 q 528 692 528 689 q 538 719 531 700 q 553 758 544 738 q 568 798 561 779 q 578 825 575 817 l 578 833 q 576 850 578 846 q 568 868 574 854 q 562 880 565 871 q 556 889 558 889 q 530 917 542 907 q 505 935 518 928 q 477 947 492 942 q 443 958 463 951 l 442 961 l 442 963 l 442 965 q 442 968 442 967 q 443 969 443 969 l 583 969 q 592 957 590 969 q 597 943 594 944 q 599 927 597 939 q 603 902 601 915 q 608 878 606 889 q 611 863 610 867 q 612 858 611 860 q 613 857 613 857 l 615 857 l 617 857 q 619 860 618 857 q 621 863 621 863 l 619 972 l 625 958 q 628 938 626 950 q 639 926 631 926 l 644 926 q 645 950 644 933 q 651 972 646 967 q 653 967 651 972 q 658 957 656 963 q 663 947 660 951 q 667 940 665 942 q 673 945 671 940 q 677 955 675 950 q 681 965 679 960 q 686 969 682 969 l 761 974 q 765 972 763 974 q 771 969 768 971 l 771 967 q 764 955 771 958 q 748 950 757 951 q 730 947 739 949 q 718 943 721 946 q 706 935 714 940 q 691 924 699 929 q 676 914 683 918 q 668 910 669 910 q 665 904 668 907 q 663 900 663 901 l 663 885 q 663 859 663 869 q 667 829 664 849 q 727 623 699 729 q 779 417 756 517 q 789 381 788 399 q 794 343 790 363 l 803 338 q 806 321 803 335 q 813 300 810 307 l 813 299 q 809 253 813 275 q 794 213 806 232 q 794 207 794 210 q 793 204 793 204 l 793 113 l 794 108 l 796 108 l 799 108 l 803 113 q 805 123 803 115 q 810 140 807 131 q 817 156 814 149 q 821 167 819 164 q 822 183 821 169 q 822 199 822 197 q 844 243 826 221 q 869 289 863 265 q 897 378 885 332 q 919 467 908 425 q 928 485 922 478 q 938 504 935 493 q 950 552 944 529 q 965 599 956 575 q 1003 738 983 672 q 1022 876 1022 803 l 1022 911 q 1020 922 1022 914 q 1014 932 1018 931 q 960 944 988 938 q 910 958 933 950 l 910 961 q 916 971 910 968 q 929 974 922 974 l 938 974 q 960 970 943 971 q 990 969 978 969 l 1004 969 q 1018 965 1008 965 q 1032 969 1028 965 l 1051 969 q 1061 966 1058 969 q 1071 956 1064 963 q 1083 943 1071 954 q 1106 932 1096 932 q 1111 943 1111 933 q 1110 955 1111 950 q 1110 963 1110 960 l 1110 965 q 1110 969 1110 967 q 1111 971 1111 971 l 1181 971 q 1190 976 1181 976 q 1193 976 1190 979 q 1196 974 1196 974 l 1196 971 q 1190 964 1196 967 q 1176 960 1183 961 q 1163 957 1169 958 q 1154 954 1156 956 q 1136 941 1147 950 q 1115 922 1125 932 q 1095 900 1104 911 q 1082 881 1086 889 q 1063 829 1069 861 q 1050 774 1056 797 q 1029 703 1039 739 q 1008 633 1019 668 q 1001 616 1006 631 q 994 599 996 601 q 983 573 990 592 q 975 547 976 554 q 946 449 961 497 q 915 357 931 401 q 915 351 915 354 q 914 347 914 347 q 901 319 903 331 q 896 289 900 307 q 890 267 893 281 q 882 238 886 253 q 874 210 878 222 q 865 192 869 197 q 856 184 863 186 q 846 176 849 182 q 844 161 846 175 q 839 128 842 147 q 832 86 836 108 q 823 44 828 64 q 813 13 818 25 q 803 0 808 0 q 794 19 800 0 q 781 61 788 38 q 770 106 775 85 q 765 135 765 128 q 764 146 763 138 q 765 156 765 154 q 758 169 763 158 q 753 181 754 179 q 743 228 746 201 q 738 278 740 256 q 722 312 732 300 q 708 343 713 324 q 699 382 701 364 q 694 422 697 400 q 676 479 689 450 q 654 535 664 508 q 653 544 654 538 q 653 551 653 550 q 642 597 650 563 q 623 669 633 632 q 601 736 613 707 q 582 765 590 765 l 578 765 q 556 716 561 743 q 542 664 551 689 q 521 592 531 628 q 500 521 511 557 q 493 503 499 511 q 485 483 488 494 q 468 431 475 458 q 453 375 461 403 q 449 371 453 375 q 443 364 446 367 q 440 356 443 361 q 438 347 438 350 q 436 334 438 346 q 433 321 435 322 q 431 313 433 319 q 425 299 428 307 q 419 285 422 292 q 415 278 417 279 q 410 264 414 275 q 406 251 407 253 q 378 148 392 200 q 344 47 365 96 q 341 35 342 43 q 340 19 340 28 q 338 6 339 11 q 331 0 336 0 q 319 12 324 0 q 315 31 315 24 l 315 69 l 307 86 q 294 131 297 110 q 283 181 290 151 q 281 201 282 192 q 281 219 281 210 q 267 256 281 242 m 803 92 l 803 71 l 810 71 q 810 83 810 74 q 804 92 811 92 l 803 92 m 174 924 q 189 925 186 926 q 192 926 192 924 q 186 931 192 928 q 173 935 181 933 q 158 938 165 936 q 146 939 150 939 q 140 931 140 939 l 174 924 z "},"X":{"ha":996,"x_min":0,"x_max":978,"o":"m 161 78 q 163 93 163 79 l 163 107 q 164 122 163 119 q 176 149 178 132 q 179 153 178 151 q 182 158 181 156 q 219 203 200 179 q 260 253 239 228 q 289 276 281 257 q 299 285 294 279 q 306 297 304 292 q 318 317 310 308 q 335 333 326 325 q 349 351 343 342 q 356 374 356 361 q 375 396 367 388 q 391 411 383 404 q 406 426 399 418 q 422 444 414 433 q 430 445 422 444 q 446 446 438 446 q 463 447 456 446 q 469 447 469 447 q 456 459 465 451 q 437 476 447 467 q 417 493 426 485 q 404 506 407 501 q 392 514 400 510 q 388 516 389 515 q 385 518 388 517 q 390 515 388 518 q 358 551 378 535 q 344 585 351 568 q 321 613 336 601 q 310 642 322 626 q 306 642 307 642 q 304 643 306 643 l 304 642 q 299 652 301 646 q 289 658 296 658 q 278 670 285 665 q 269 683 271 675 q 267 684 268 683 q 264 685 265 685 l 243 715 q 233 731 239 724 q 221 744 228 739 l 82 932 l 53 933 q 52 935 53 933 q 49 938 51 938 q 44 951 47 944 q 33 957 40 957 l 24 958 q 8 960 17 960 q 0 974 0 961 q 10 981 0 981 l 13 981 q 20 978 14 982 q 29 972 26 974 l 33 972 q 43 974 38 971 q 54 975 49 976 q 68 969 63 975 l 147 969 l 161 971 q 223 972 193 969 q 285 974 253 975 l 314 974 q 315 972 314 974 q 315 969 315 971 l 315 964 l 308 958 q 276 949 290 954 q 246 936 261 943 l 240 933 q 225 906 231 924 q 274 806 243 853 q 342 719 306 760 l 340 722 q 351 714 347 719 q 358 706 356 708 q 364 699 358 704 l 364 678 q 377 663 371 671 q 394 653 383 654 q 403 632 399 642 q 419 615 408 622 q 431 601 426 603 q 446 576 431 588 q 460 551 450 563 q 483 533 471 540 l 472 538 q 478 519 472 529 q 482 517 479 519 l 482 521 q 500 524 497 514 q 500 547 503 535 q 528 585 519 563 q 538 596 533 590 q 542 610 542 601 q 549 617 547 613 q 554 625 551 621 q 570 642 565 632 q 578 661 575 651 q 595 671 589 663 q 610 686 601 679 l 610 707 q 613 711 611 710 q 614 714 614 713 q 622 722 617 717 q 632 731 626 728 l 632 728 q 699 807 668 769 q 747 899 729 844 q 732 925 740 918 l 726 928 q 697 941 711 935 q 664 951 682 947 l 657 957 l 657 963 q 658 965 657 964 q 660 967 660 967 l 688 967 q 749 965 718 968 q 813 964 781 963 l 826 963 l 904 963 q 918 968 910 968 q 929 967 924 969 q 939 965 935 964 l 943 965 q 952 971 946 967 q 960 974 958 975 l 963 974 q 970 972 965 974 q 974 967 975 969 q 965 953 975 954 q 949 951 956 953 l 939 950 q 928 943 932 950 q 924 929 925 936 q 920 927 921 929 q 919 925 919 925 l 890 925 l 753 756 q 739 742 744 750 q 728 724 733 733 l 708 693 q 706 692 707 693 q 703 692 704 692 q 694 678 701 683 q 683 667 688 674 q 674 660 676 667 q 668 651 671 654 l 663 651 q 653 622 650 638 q 630 593 638 610 q 614 560 622 576 q 582 524 594 543 q 589 526 585 526 q 582 522 583 524 q 569 514 571 515 q 551 495 561 503 q 531 476 542 488 q 572 424 550 453 q 618 367 593 396 q 626 344 619 354 q 642 325 633 335 q 658 307 650 315 q 669 289 665 299 q 676 278 671 283 q 686 269 681 272 q 715 246 694 250 q 744 209 731 226 q 771 176 757 192 q 793 151 776 164 q 801 142 797 147 q 810 133 806 138 q 810 96 810 117 q 813 72 811 75 q 815 63 813 69 q 819 50 817 57 q 826 38 822 43 q 832 32 829 32 q 840 34 838 33 q 840 39 843 35 q 838 57 840 42 q 831 92 835 72 q 847 89 836 86 q 894 46 882 46 l 921 46 l 921 43 q 926 39 921 40 q 931 28 926 33 q 942 22 935 22 l 951 21 q 968 20 958 19 q 976 10 978 21 q 973 3 978 6 q 965 1 968 0 l 964 0 q 954 2 961 0 q 944 7 947 4 l 940 7 q 933 4 938 7 q 922 4 928 1 q 913 6 918 4 q 906 7 908 7 l 828 8 l 814 6 q 751 6 781 8 q 690 0 721 3 l 660 0 q 659 1 660 0 q 660 4 658 3 l 660 8 l 667 14 q 697 26 682 19 q 729 39 713 32 l 735 43 l 738 39 l 742 50 q 742 71 743 60 q 740 72 742 72 l 740 74 q 740 78 740 76 q 739 83 739 81 q 714 118 731 103 q 682 150 697 133 q 672 169 676 160 q 663 188 668 178 q 660 193 660 190 q 635 226 649 211 q 606 256 622 242 q 569 302 588 279 q 526 344 550 325 q 515 383 524 365 q 492 418 506 401 q 489 417 490 417 l 488 415 q 465 403 481 403 q 447 353 450 379 q 405 310 424 333 q 368 263 386 286 q 339 233 353 249 q 314 200 325 217 q 313 194 314 196 q 303 175 307 185 q 293 156 299 165 q 260 124 278 139 q 235 89 243 108 q 234 84 235 86 q 233 79 233 82 q 232 78 233 78 l 232 76 q 232 56 229 68 l 236 44 l 239 49 l 244 44 q 277 31 263 38 q 307 19 292 25 l 314 14 l 314 10 q 315 7 317 8 q 314 6 314 6 l 285 6 q 223 11 253 8 q 160 11 193 14 l 146 14 l 69 13 q 61 11 65 13 q 53 10 57 10 q 42 10 47 7 q 35 13 38 13 l 31 13 q 21 6 28 10 q 11 4 14 3 l 10 7 q 3 7 7 3 q 0 15 0 11 q 8 26 0 26 q 24 26 17 25 l 33 28 q 44 33 40 28 q 49 44 49 39 q 54 49 54 46 l 54 51 l 81 51 q 103 69 86 51 q 147 118 121 88 l 149 118 q 138 72 142 94 q 133 44 133 49 q 142 38 132 39 q 148 43 144 38 q 154 56 151 49 q 159 70 157 64 q 161 78 161 76 m 132 938 q 144 910 132 933 q 173 859 157 886 q 203 810 189 832 q 219 790 217 789 q 212 807 221 790 q 192 844 203 824 q 171 883 181 865 q 161 904 161 901 q 160 913 161 906 q 156 926 158 919 q 149 939 153 933 q 142 944 146 944 q 132 938 129 944 m 840 929 q 832 936 843 936 q 818 919 824 936 q 813 897 813 901 q 810 891 813 896 q 804 879 807 886 q 808 876 807 878 q 811 874 810 875 q 832 910 824 894 q 840 929 840 926 m 771 121 q 722 174 765 147 q 751 133 739 154 q 767 86 764 113 q 767 84 767 85 q 768 83 768 83 q 770 100 769 93 q 771 111 771 107 l 771 121 m 754 800 q 776 832 756 799 q 765 838 774 832 q 754 844 756 844 q 749 815 747 831 q 754 800 751 800 m 814 128 q 812 131 813 129 q 810 133 811 132 l 810 138 q 812 134 811 135 q 814 131 813 133 l 814 128 m 419 615 l 415 618 l 415 624 l 419 615 m 554 625 l 557 633 l 557 628 l 554 625 m 531 476 l 528 479 q 528 477 528 478 q 529 476 529 476 l 531 476 m 489 419 q 488 418 489 418 q 489 419 489 418 m 433 510 q 456 542 435 508 q 444 548 453 542 q 433 554 435 554 q 428 525 426 540 q 433 510 431 510 z "},"Y":{"ha":815,"x_min":0,"x_max":792,"o":"m 338 142 q 341 200 339 167 q 344 269 343 233 q 347 338 346 304 q 347 400 347 372 q 268 547 317 465 q 249 598 260 569 q 221 661 239 626 q 202 708 210 683 q 186 756 194 733 q 181 789 183 778 q 176 805 179 800 q 170 810 174 810 q 163 811 167 811 q 154 818 158 811 l 57 943 l 0 961 l 7 968 l 58 968 q 108 967 82 968 q 156 967 133 967 q 194 966 178 967 q 218 965 211 965 l 228 965 l 283 965 q 283 964 288 965 q 286 961 279 963 q 249 946 264 953 q 233 906 233 939 q 248 853 235 890 q 280 771 261 817 q 322 675 299 725 q 365 583 344 625 q 402 514 386 542 q 425 483 418 486 q 442 506 433 492 q 460 535 450 519 q 478 563 469 550 q 497 583 488 576 l 497 575 q 480 533 494 564 q 446 467 465 503 q 440 450 443 464 q 436 433 436 436 l 436 331 q 435 260 436 297 q 437 185 433 222 q 453 116 440 149 q 496 60 467 83 q 544 34 514 49 q 590 0 574 19 l 564 0 l 539 0 q 508 1 533 0 q 455 5 483 3 q 401 8 426 7 q 369 10 375 10 l 367 10 l 363 10 q 338 8 357 10 q 299 5 319 7 q 260 1 278 3 q 238 0 242 0 l 207 0 l 176 0 q 197 14 178 4 q 243 40 217 24 q 296 82 269 57 q 338 142 322 107 m 514 621 q 530 655 518 631 q 555 706 542 679 q 580 758 568 733 q 596 793 592 782 q 613 839 604 810 q 625 888 621 868 q 626 915 631 904 q 613 935 621 926 q 596 951 604 943 q 586 971 588 958 q 640 972 606 971 q 707 973 674 972 q 765 973 740 974 q 789 968 789 972 l 792 961 q 754 951 771 956 q 721 937 738 947 q 687 905 704 926 q 647 843 669 883 q 593 745 615 788 q 555 672 571 703 q 528 618 539 640 q 507 581 517 596 l 497 592 l 514 621 m 165 940 q 169 918 165 936 q 178 880 174 900 q 188 843 183 860 q 196 826 193 826 q 197 838 197 826 l 197 864 q 197 892 197 879 q 196 907 196 904 q 194 915 196 908 q 188 928 192 922 q 181 940 185 935 q 174 946 178 946 q 165 940 165 946 z "},"Z":{"ha":997,"x_min":0,"x_max":975,"o":"m 42 868 q 31 853 42 856 q 15 860 19 851 q 10 817 13 839 q 7 771 7 794 l 7 740 q 41 794 25 764 q 76 847 57 824 q 146 906 101 885 q 243 937 190 926 q 352 950 296 947 q 458 953 408 953 q 478 955 465 953 q 510 957 492 957 l 563 953 q 611 941 588 946 q 656 928 635 936 q 693 908 676 921 q 721 874 710 896 q 722 840 717 854 q 681 782 704 808 q 632 726 658 756 l 632 729 q 622 721 626 726 q 614 713 617 715 q 613 710 614 711 q 610 706 611 708 l 610 685 q 595 669 601 678 q 578 660 589 661 q 570 640 575 650 q 554 624 565 631 q 549 615 551 619 q 542 608 547 611 q 538 594 542 600 q 528 583 533 589 q 500 546 519 561 q 501 523 503 533 q 483 518 499 513 q 483 513 483 515 q 482 508 482 511 l 468 497 q 467 482 467 494 q 449 471 456 474 q 447 469 449 469 q 443 467 444 467 q 459 454 451 460 q 469 446 467 449 q 463 445 469 446 q 446 444 456 444 q 430 444 438 444 q 422 443 422 443 q 406 424 414 432 q 391 410 399 417 q 375 394 383 403 q 356 372 367 386 q 349 350 356 360 q 335 332 343 340 q 318 315 326 324 q 306 296 310 307 q 299 284 304 290 q 289 275 294 278 q 260 251 281 256 q 219 202 239 226 q 182 157 200 178 q 179 152 181 154 q 176 147 178 150 q 164 121 178 131 q 163 106 163 118 l 163 92 q 161 76 163 78 q 159 69 161 75 q 154 55 157 63 q 148 42 151 47 q 142 36 144 36 q 133 43 132 38 q 138 70 133 47 q 149 117 142 93 l 147 117 q 103 68 121 86 q 81 50 86 50 l 54 50 l 54 47 q 49 43 54 44 q 44 32 49 38 q 33 26 40 26 l 24 25 q 8 24 17 24 q 0 14 0 25 q 3 6 0 10 q 10 6 7 1 l 11 3 q 21 5 14 1 q 31 11 28 8 l 35 11 q 42 8 38 11 q 53 8 47 6 q 61 10 57 8 q 69 11 65 11 l 146 13 l 160 10 q 226 10 193 11 l 250 10 q 283 3 265 0 q 315 0 300 6 l 338 0 l 446 0 l 489 0 q 660 2 576 1 q 836 3 744 3 q 838 19 838 13 q 844 28 839 26 q 862 25 850 29 q 897 10 874 21 q 931 5 914 4 q 968 4 949 6 q 951 18 951 8 l 951 53 q 950 67 950 54 q 935 63 943 60 q 926 78 926 67 q 936 92 926 89 q 951 88 946 94 q 963 147 954 117 q 971 210 971 178 l 971 242 q 937 188 951 218 q 904 133 922 157 q 837 72 879 93 q 744 39 794 50 q 640 26 693 28 q 539 24 586 24 q 522 25 533 24 q 494 26 511 26 l 438 29 q 387 37 410 33 q 345 47 364 40 q 312 65 326 53 q 288 97 297 76 q 285 108 286 103 q 282 115 283 113 q 285 128 283 121 q 288 146 286 136 q 291 151 289 149 q 294 156 293 153 q 306 178 304 165 q 313 193 307 186 q 314 199 314 194 q 339 231 325 215 q 368 261 353 247 q 405 308 386 285 q 447 351 424 332 l 447 353 q 451 360 449 354 q 462 369 458 363 q 468 382 465 375 q 489 403 481 390 q 490 415 493 408 l 492 417 q 501 432 494 425 q 515 444 508 439 q 536 467 521 458 q 533 471 535 469 q 531 475 532 472 q 551 494 542 486 q 569 513 561 501 q 582 521 571 514 q 589 525 583 522 q 582 522 585 525 q 614 558 594 542 q 630 592 622 575 q 653 621 638 608 q 663 650 650 636 l 668 650 q 674 659 671 653 q 683 665 676 665 q 694 677 688 672 q 703 690 701 682 q 706 691 704 690 q 708 692 707 692 l 728 722 q 739 740 733 732 q 753 754 744 749 l 808 822 q 811 836 806 831 q 833 853 818 849 l 890 924 l 907 924 q 910 925 908 925 q 914 926 913 925 l 913 926 q 919 933 915 929 q 926 938 922 936 q 939 949 929 949 l 949 950 q 965 952 956 951 q 974 965 975 953 q 970 970 975 968 q 963 972 965 972 l 960 972 q 952 969 958 974 q 943 964 946 965 l 939 964 q 929 965 935 963 q 918 967 924 968 q 914 965 915 967 l 910 969 l 931 978 l 851 978 q 844 981 849 981 q 838 979 839 981 q 833 978 836 978 q 779 978 806 978 q 714 982 753 979 l 704 978 l 669 978 q 612 977 642 978 q 554 976 582 976 l 511 976 q 331 974 422 975 q 149 972 240 972 q 143 956 146 963 q 133 949 140 950 q 111 953 125 949 q 72 971 97 958 q 38 976 57 978 q 0 976 18 975 q 10 965 10 974 q 11 953 11 957 l 18 928 q 21 909 19 915 q 21 889 22 903 q 35 888 28 896 q 42 868 42 879 m 792 935 q 803 933 797 933 q 814 931 808 932 l 814 926 q 812 926 813 926 q 810 925 811 925 q 804 903 794 914 q 799 884 801 900 q 794 865 797 868 l 776 899 l 782 933 q 787 934 785 933 q 792 935 789 935 m 556 547 q 554 543 556 540 q 552 553 553 546 q 550 569 551 560 q 549 588 549 579 q 563 603 549 603 q 576 588 576 603 l 556 547 m 765 917 q 747 914 754 925 l 746 913 q 740 922 743 917 q 733 929 736 926 q 755 931 742 931 q 782 933 768 932 q 773 926 776 931 q 765 917 769 922 m 754 799 q 749 811 749 799 l 772 832 q 776 831 774 831 q 754 799 756 797 m 554 624 l 557 626 l 557 632 l 554 624 m 531 475 l 529 475 q 528 476 529 475 q 528 478 528 476 l 531 475 z "},"C":{"ha":832,"x_min":0,"x_max":794,"o":"m 743 131 q 735 114 732 118 q 742 108 738 110 q 748 103 747 106 q 735 90 749 100 q 708 78 725 85 q 681 64 692 71 q 633 47 657 50 q 581 44 610 43 q 563 45 576 44 q 535 47 550 46 q 508 49 521 47 q 489 51 494 50 q 444 62 469 58 q 403 74 419 65 q 386 82 396 78 q 367 90 376 86 q 350 95 357 93 q 342 97 343 97 l 221 167 q 217 174 221 171 q 215 179 217 174 q 213 185 214 185 q 203 200 211 190 q 185 221 194 210 q 166 242 175 232 q 154 256 157 251 q 144 285 151 274 q 129 308 136 296 q 122 357 125 328 q 116 417 118 386 q 113 477 114 449 q 113 524 113 506 q 118 582 113 554 q 132 639 124 610 q 135 653 132 642 q 139 668 139 665 q 192 770 153 728 q 282 851 231 813 q 317 863 301 858 q 349 874 333 867 q 368 879 358 879 q 390 883 379 879 q 399 885 392 883 q 415 890 407 888 q 431 895 424 893 q 440 899 438 897 l 474 899 q 531 897 507 899 q 577 891 556 896 q 620 878 599 886 q 669 856 642 869 q 674 851 669 856 q 683 842 678 847 q 694 834 689 838 q 700 831 699 831 q 713 832 700 828 q 728 836 725 836 q 735 816 729 833 q 747 778 740 799 q 761 741 754 758 q 772 719 768 724 l 772 744 q 772 776 772 758 q 771 810 771 793 q 772 839 771 826 q 775 856 772 851 q 769 870 775 861 q 756 889 763 879 q 746 907 750 899 q 746 919 742 915 l 715 935 q 708 942 715 936 q 693 951 700 947 q 685 956 686 956 q 665 958 678 958 q 646 960 653 957 q 627 960 643 961 q 607 960 611 960 q 576 965 589 963 q 552 970 564 968 q 528 974 540 972 q 499 975 515 975 q 432 974 467 975 q 363 971 397 974 q 294 960 328 968 q 235 939 261 953 q 204 914 215 928 q 175 893 193 900 q 169 892 172 893 q 167 892 167 892 q 151 874 156 883 q 138 858 146 864 q 110 839 121 847 q 90 822 99 831 q 75 801 82 813 q 58 774 68 790 q 31 708 42 744 q 15 632 21 671 q 8 554 10 593 q 6 482 6 515 q 3 433 6 463 q 1 371 1 403 q 4 310 0 339 q 21 264 8 281 q 31 255 21 261 q 40 246 40 249 q 46 229 44 240 q 49 206 47 218 q 53 186 50 194 q 64 178 56 178 l 68 178 q 76 184 69 181 q 85 188 82 188 l 90 182 q 96 147 90 167 q 117 118 101 128 q 126 115 122 114 q 133 111 129 117 q 201 54 156 75 q 299 22 246 33 q 407 8 353 11 q 503 4 461 4 q 601 5 565 3 q 660 11 636 7 q 703 20 683 15 q 754 29 722 25 q 771 42 763 29 q 785 72 779 56 q 791 103 790 89 q 783 119 792 118 q 792 140 789 121 q 794 181 794 158 q 789 222 793 203 q 776 242 785 240 q 776 231 776 240 q 774 210 775 221 q 773 191 774 200 q 772 182 772 182 l 743 131 m 178 124 q 173 122 178 119 q 162 127 168 124 q 148 135 156 131 q 135 139 140 139 q 135 148 135 140 q 138 165 136 156 q 146 174 140 174 l 149 174 q 159 165 149 174 q 171 154 169 157 l 178 124 m 47 513 q 48 528 47 518 q 58 538 49 538 q 61 529 58 535 q 68 517 64 524 q 75 506 72 511 q 78 499 78 500 q 74 492 78 499 q 66 478 71 486 q 57 464 61 471 q 53 456 53 457 q 49 475 50 458 q 47 503 47 492 l 47 513 m 171 826 q 176 840 171 829 q 189 861 182 850 q 203 881 196 872 q 215 890 211 890 q 214 879 215 888 q 210 862 213 871 q 207 845 208 853 q 206 836 206 838 q 202 828 206 836 q 195 813 199 821 q 189 797 192 804 q 186 789 186 790 q 176 808 182 792 q 171 826 171 824 z "},"":{"ha":1393,"x_min":26,"x_max":1356,"o":"m 501 568 l 492 557 q 573 608 544 578 q 615 670 601 639 q 631 729 628 701 q 638 774 635 757 q 639 746 639 772 q 636 687 639 719 q 633 635 633 654 l 629 556 q 589 547 613 553 q 544 531 565 540 q 507 510 522 522 q 492 485 492 499 q 565 501 525 494 q 624 514 604 508 q 620 471 622 508 q 610 379 618 433 q 585 264 601 325 q 540 150 569 203 q 576 197 558 158 q 610 281 594 236 q 640 367 626 326 q 661 418 653 407 q 713 470 689 453 q 781 485 736 488 q 846 439 829 476 q 852 355 863 401 q 806 263 842 308 q 715 196 771 218 q 667 171 696 183 q 610 144 639 158 q 555 113 581 129 q 514 78 529 97 q 493 53 503 69 q 479 17 483 38 q 479 -29 475 -4 q 500 -81 483 -54 q 538 -124 515 -104 q 588 -157 560 -144 q 650 -173 617 -169 q 719 -167 683 -176 q 679 -160 699 -161 q 642 -155 660 -158 q 607 -142 624 -151 q 575 -112 590 -133 q 536 -58 547 -89 q 528 3 525 -28 q 545 60 531 33 q 585 101 560 86 q 656 147 606 126 q 758 197 706 168 q 853 269 811 225 q 903 383 896 313 q 881 465 904 433 q 826 510 858 497 q 758 519 793 524 q 701 489 724 514 l 661 446 l 667 514 q 739 547 710 539 q 791 554 768 556 q 833 546 814 553 q 878 533 853 539 q 838 567 857 553 q 797 586 819 581 q 744 589 775 592 q 667 574 713 586 q 674 673 674 622 q 671 772 675 724 q 658 862 667 819 q 636 936 649 904 q 629 844 636 896 q 606 741 622 793 q 565 643 590 689 q 501 568 539 597 m 1356 258 q 1351 265 1353 261 q 1343 269 1349 268 q 1333 300 1349 278 q 1321 307 1325 303 q 1310 311 1317 311 l 1310 310 q 1296 322 1306 318 q 1276 329 1288 322 q 1267 333 1276 329 q 1239 347 1257 338 q 1188 365 1204 365 q 1174 368 1174 365 q 1188 383 1182 383 q 1192 389 1188 386 q 1196 400 1192 394 q 1204 410 1200 406 q 1210 418 1207 415 q 1212 421 1211 419 q 1214 424 1213 422 q 1217 425 1215 424 l 1218 425 l 1221 428 q 1222 433 1221 432 q 1224 435 1222 433 q 1229 438 1226 438 q 1232 439 1232 439 l 1233 439 q 1239 449 1238 444 q 1243 458 1240 453 q 1250 464 1249 458 q 1258 471 1253 471 q 1276 478 1269 471 q 1290 490 1282 486 l 1293 496 q 1298 499 1296 496 q 1306 506 1300 501 l 1308 508 q 1310 522 1303 515 l 1310 525 l 1313 526 q 1318 529 1315 529 l 1318 532 q 1321 539 1321 535 q 1322 550 1321 549 q 1339 567 1339 564 q 1343 581 1342 574 q 1347 589 1344 588 q 1350 600 1350 589 q 1345 619 1350 607 q 1333 654 1340 632 q 1319 638 1321 654 q 1313 630 1317 633 q 1301 619 1308 626 q 1294 608 1297 613 q 1289 600 1290 604 q 1278 591 1286 599 q 1253 568 1271 583 q 1224 526 1228 536 q 1219 522 1222 526 q 1207 507 1215 518 q 1188 483 1188 488 q 1173 469 1181 478 q 1165 456 1165 460 l 1163 458 l 1161 467 q 1163 483 1161 482 q 1165 495 1164 490 q 1165 503 1165 500 l 1165 525 q 1169 606 1169 568 q 1165 614 1169 614 l 1168 622 q 1160 640 1163 632 q 1151 654 1157 649 l 1151 656 l 1144 667 l 1133 663 q 1131 654 1133 657 l 1132 643 l 1131 635 l 1132 632 q 1129 613 1131 625 q 1128 583 1128 601 q 1129 581 1128 583 q 1131 574 1131 579 q 1127 558 1128 564 q 1126 549 1126 553 l 1126 533 q 1125 517 1126 518 q 1123 506 1124 510 q 1122 503 1122 503 q 1121 490 1122 492 q 1119 478 1121 479 l 1121 471 l 1119 464 q 1120 460 1119 463 q 1121 454 1121 457 q 1120 451 1121 451 q 1119 446 1119 450 l 1119 435 q 1119 426 1119 431 q 1118 415 1118 421 l 1119 413 l 1119 399 q 1119 389 1119 392 q 1118 379 1118 386 q 1117 355 1118 369 q 1113 319 1117 340 q 1110 281 1111 297 q 1108 256 1108 265 q 1110 239 1108 249 q 1111 224 1111 229 l 1111 218 l 1118 215 q 1119 210 1118 208 q 1122 204 1119 211 l 1126 200 l 1131 188 q 1140 219 1138 207 q 1147 236 1142 232 q 1145 247 1146 243 q 1144 250 1144 250 l 1150 260 l 1147 263 l 1150 286 l 1150 300 l 1151 301 q 1165 290 1158 294 q 1179 279 1172 285 l 1192 286 q 1197 283 1194 283 q 1207 282 1206 283 q 1214 276 1210 278 q 1218 275 1218 275 l 1222 279 q 1227 274 1224 276 q 1233 269 1231 272 q 1249 267 1246 269 l 1250 268 l 1253 261 l 1267 261 l 1271 258 q 1276 256 1275 258 q 1283 251 1278 254 q 1296 244 1294 244 q 1328 235 1310 244 l 1328 231 q 1333 235 1333 231 l 1339 228 l 1339 231 l 1343 228 l 1343 235 l 1353 236 l 1356 242 l 1356 258 m 256 476 l 256 536 q 249 552 250 542 q 246 568 249 563 q 241 582 243 574 q 232 606 239 590 q 224 625 225 618 q 222 635 222 632 q 218 640 222 635 q 210 649 214 644 q 199 658 203 656 q 194 663 196 661 l 183 660 q 181 653 183 657 q 176 647 178 650 l 178 643 q 177 633 178 636 q 176 625 176 629 q 178 613 176 614 l 182 613 q 184 608 183 610 q 188 599 185 606 q 192 591 190 593 q 196 588 194 589 q 199 578 197 583 q 203 564 201 572 q 208 552 206 557 q 210 542 210 547 l 210 536 q 214 524 211 533 q 217 513 217 515 q 215 473 217 496 q 210 426 214 450 l 210 419 q 209 419 210 422 q 207 410 208 417 l 207 396 l 201 400 l 201 379 q 194 364 201 375 q 188 349 194 349 q 176 322 188 333 q 165 342 169 332 q 157 360 161 351 q 150 380 154 371 q 143 396 146 389 l 142 399 l 143 404 q 135 424 136 417 q 132 439 133 432 l 133 443 l 125 446 q 119 466 124 450 q 106 510 115 482 q 92 546 99 533 q 82 564 85 558 l 74 576 q 68 578 71 576 q 65 581 65 581 q 61 578 63 581 q 58 575 60 576 l 58 574 l 57 569 q 54 557 54 567 l 50 550 l 50 549 q 49 538 50 542 q 46 532 47 535 l 47 525 q 42 497 42 513 l 42 471 l 44 467 l 42 429 l 46 426 q 42 414 46 419 q 42 388 49 403 l 42 379 q 40 370 42 375 q 39 360 39 365 l 39 353 q 35 330 38 344 q 33 292 33 315 l 33 282 q 28 255 29 267 q 26 228 26 243 q 33 207 26 218 l 38 206 l 35 206 l 39 200 q 42 194 42 200 l 50 194 l 54 190 l 54 194 l 60 196 l 64 200 q 65 214 65 201 q 67 224 65 222 l 67 226 l 69 231 q 74 269 74 260 l 74 279 l 76 286 l 76 300 q 85 365 83 340 q 86 400 86 390 l 86 421 l 96 404 q 110 367 108 367 q 113 356 110 364 q 124 331 115 347 q 133 312 131 319 q 136 303 136 304 q 146 283 142 293 q 156 263 150 274 q 176 236 165 239 l 178 235 q 197 236 196 235 q 207 258 203 254 q 228 310 207 268 l 228 313 q 233 326 231 318 q 236 350 235 335 l 240 353 l 240 358 l 243 358 q 244 367 243 363 q 247 379 244 372 q 252 396 249 392 q 256 400 256 400 q 249 414 256 407 q 255 429 254 424 q 257 438 256 435 l 257 443 l 256 453 q 258 463 257 457 q 261 471 258 469 l 256 476 m 340 444 q 338 436 339 439 q 338 433 338 433 q 335 426 338 429 l 328 426 l 326 433 l 324 439 l 318 435 l 314 439 l 306 433 l 303 433 q 281 414 300 433 l 278 410 l 276 406 l 275 400 l 267 397 q 260 388 264 392 q 256 378 257 383 q 247 357 247 369 l 247 354 q 244 337 244 346 q 243 319 243 328 q 247 287 243 307 q 263 243 251 267 q 281 233 274 238 q 296 226 289 229 l 301 228 l 303 226 l 306 226 l 307 228 l 313 228 q 317 224 314 226 q 324 221 321 221 q 338 228 333 221 q 351 226 339 226 l 357 226 l 357 231 l 360 231 l 369 226 l 378 226 l 379 231 q 397 235 390 233 q 413 244 404 238 l 414 244 l 418 250 l 419 250 q 438 267 432 267 q 442 276 438 268 q 446 286 446 283 q 449 299 447 290 q 451 318 451 307 q 451 330 451 322 q 447 347 450 338 l 446 349 l 447 350 q 440 369 443 363 q 435 383 438 376 q 431 392 435 386 q 425 404 428 397 q 417 417 421 411 q 413 426 414 422 l 407 426 q 397 434 404 429 q 379 444 390 439 q 362 455 369 450 q 351 464 354 460 l 349 460 l 343 464 l 340 451 l 338 451 l 335 444 l 340 444 m 1000 496 q 998 485 999 489 q 997 483 997 482 q 994 476 997 479 l 989 478 l 986 485 l 982 489 l 978 485 l 974 490 l 967 485 l 961 485 q 940 464 958 485 l 940 460 l 935 458 l 933 451 l 925 446 q 920 438 922 440 q 915 431 918 436 q 908 408 908 419 l 908 406 q 904 368 904 390 q 908 337 904 357 q 922 293 911 317 q 942 285 933 289 q 956 276 951 282 l 961 279 l 961 276 l 968 276 l 968 279 l 971 279 q 986 274 976 274 q 997 279 993 274 q 1008 277 1004 278 q 1010 276 1011 276 l 1017 276 l 1019 282 l 1019 283 l 1028 276 l 1039 276 l 1040 283 q 1072 297 1053 285 l 1074 297 l 1078 301 l 1079 301 q 1097 318 1093 318 q 1101 325 1097 319 q 1104 335 1104 331 q 1111 367 1111 360 q 1110 382 1111 374 q 1107 397 1110 390 l 1104 399 l 1107 404 q 1100 422 1103 415 q 1097 435 1097 428 q 1085 454 1090 442 q 1078 467 1081 461 q 1072 476 1075 472 l 1068 476 q 1040 497 1057 492 q 1010 517 1017 506 l 1008 513 l 1006 517 l 1001 503 l 997 501 l 994 497 l 1000 496 m 583 485 q 574 483 582 483 l 563 483 q 556 478 560 483 q 536 478 543 486 l 535 476 q 526 476 528 476 q 521 472 524 475 l 517 471 l 514 471 q 505 457 507 461 q 503 453 503 453 q 496 428 499 439 q 492 410 493 418 l 492 408 q 485 388 485 397 l 483 388 l 483 376 l 481 385 l 481 399 q 485 404 481 400 q 481 416 482 411 q 478 422 481 421 q 474 432 475 429 q 474 438 474 435 l 474 439 q 467 458 467 450 l 458 481 l 457 483 q 451 492 454 489 q 446 497 447 496 q 433 485 439 494 q 428 471 428 476 q 430 455 428 463 q 435 435 432 447 q 440 411 438 419 q 442 400 442 403 l 446 396 q 447 385 446 386 l 446 378 q 447 372 447 376 q 452 333 447 358 q 467 268 457 308 l 471 268 q 478 244 471 256 l 481 247 l 486 244 q 508 283 504 254 l 513 286 q 508 291 510 289 q 506 297 506 293 l 506 300 q 511 317 510 313 q 513 322 513 322 q 514 338 513 336 q 515 347 514 342 q 518 360 517 351 q 525 379 525 381 l 525 382 q 524 388 525 386 l 525 390 l 525 393 q 528 396 525 396 l 528 400 l 543 415 q 549 417 546 415 q 556 421 553 419 l 560 421 l 560 422 l 574 422 l 576 421 l 590 419 q 588 422 592 421 q 585 422 583 422 q 609 437 601 422 q 617 465 617 451 q 613 485 618 479 q 599 471 607 490 l 599 478 q 591 482 593 481 q 583 485 589 483 m 1061 415 q 1065 409 1061 414 q 1074 397 1069 404 q 1077 384 1075 390 q 1079 374 1079 378 q 1053 349 1079 358 q 1036 346 1043 349 q 1022 342 1029 343 q 1006 338 1007 342 l 1003 340 q 989 335 993 335 l 986 335 l 982 338 q 975 342 976 338 q 954 343 956 342 l 951 342 q 933 354 933 351 l 933 368 q 942 383 939 376 q 949 396 946 389 q 963 414 958 396 l 967 414 l 969 408 q 974 413 972 411 q 978 415 976 414 l 982 415 q 985 408 982 410 q 989 404 989 406 l 994 406 q 998 410 994 408 q 1003 414 1001 413 l 1006 414 q 1003 418 1003 417 l 1003 422 l 1001 426 l 1006 439 q 1001 448 1003 443 q 997 458 1000 453 l 1000 460 l 1001 463 l 1003 458 l 1003 453 q 1015 449 1010 451 q 1026 447 1021 447 q 1028 444 1028 446 q 1036 439 1029 442 q 1050 433 1040 433 q 1061 415 1053 426 m 401 367 q 414 349 401 363 q 419 335 417 342 q 422 324 422 329 q 393 303 422 315 q 378 298 385 300 q 363 292 372 296 q 346 288 350 292 l 343 290 q 328 286 335 286 l 326 286 l 324 290 l 322 290 q 318 292 319 290 q 296 297 301 292 l 293 292 q 276 310 276 301 l 276 319 q 284 335 281 328 q 288 349 288 342 q 306 364 299 349 l 313 360 q 315 363 314 360 q 318 367 315 367 l 324 367 q 326 359 324 361 q 332 354 329 357 l 338 358 q 340 360 338 360 q 343 364 342 361 l 346 367 q 343 372 343 367 l 343 378 l 346 388 l 340 410 l 340 414 l 342 414 l 343 410 l 343 406 q 357 401 351 401 q 368 400 363 400 q 372 397 368 400 q 378 389 375 394 q 384 383 379 386 q 393 379 389 379 q 401 367 394 372 m 821 36 q 850 3 821 3 q 870 10 861 3 q 879 38 879 18 q 871 62 879 53 q 850 71 863 71 q 829 63 838 71 q 821 36 821 54 m 967 36 q 996 3 967 3 q 1016 10 1007 3 q 1025 38 1025 18 q 1017 62 1025 53 q 996 71 1008 71 q 975 63 983 71 q 967 36 967 54 m 747 4 l 747 74 l 793 4 l 806 4 l 806 93 l 794 93 l 794 22 l 747 93 l 736 93 l 736 4 l 747 4 m 1049 4 l 1049 29 l 1056 36 l 1076 4 l 1090 4 l 1063 44 l 1089 69 l 1072 69 l 1049 44 l 1049 93 l 1038 93 l 1038 4 l 1049 4 m 1181 4 l 1181 38 q 1197 60 1181 60 q 1211 42 1211 60 l 1211 4 l 1222 4 l 1222 43 q 1221 54 1222 53 q 1214 66 1218 61 q 1200 71 1210 71 q 1181 60 1188 71 l 1181 69 l 1169 69 l 1169 4 l 1181 4 m 1279 28 q 1263 14 1278 14 q 1246 36 1246 14 q 1263 60 1246 60 q 1278 49 1269 60 l 1289 50 q 1263 71 1282 71 q 1235 36 1235 71 q 1263 3 1235 3 q 1290 26 1283 3 l 1279 28 m 947 4 l 947 58 l 960 58 l 960 69 l 947 69 l 947 74 q 956 83 947 83 q 963 82 961 83 l 964 93 q 954 94 963 94 q 942 92 946 94 q 936 85 939 89 l 936 69 l 926 69 l 926 58 l 936 58 l 936 4 l 947 4 m 832 36 q 850 60 832 60 q 868 36 868 60 q 850 14 868 14 q 832 36 832 14 m 978 36 q 996 60 978 60 q 1014 36 1014 60 q 996 14 1014 14 q 978 36 978 14 m 1149 4 l 1149 93 l 1138 93 l 1138 4 l 1149 4 m 903 4 l 903 38 q 904 51 903 50 q 914 60 906 60 q 916 59 914 60 q 922 57 918 58 l 926 67 q 914 71 919 71 q 901 60 908 71 l 901 69 l 892 69 l 892 4 l 903 4 m 1314 4 l 1314 15 l 1303 15 l 1303 4 l 1314 4 z "},"@":{"ha":1682,"x_min":0,"x_max":1663,"o":"m 0 867 l 0 324 l 1663 324 l 1663 867 l 0 867 m 594 350 q 593 347 594 347 q 587 363 589 347 q 585 383 585 378 q 588 376 586 383 q 592 367 590 369 q 606 347 599 353 q 628 342 614 342 l 635 342 q 647 351 640 344 q 653 364 653 357 l 653 379 q 652 382 653 379 q 650 386 651 385 q 625 407 642 400 q 610 420 617 411 q 601 432 603 429 l 600 431 q 596 439 597 431 q 594 451 594 447 q 597 463 594 458 q 601 474 599 467 q 639 492 615 492 q 657 488 650 492 l 661 483 q 664 482 664 483 l 664 468 q 663 465 664 468 q 661 454 663 461 q 660 460 658 456 q 658 469 661 465 q 635 488 649 488 q 620 484 631 488 q 610 474 610 481 l 610 454 q 621 435 610 443 q 634 425 624 432 q 647 415 644 418 q 651 411 651 413 q 652 410 651 411 q 654 407 653 410 q 656 406 656 407 q 667 394 663 403 q 671 379 671 386 q 668 368 671 374 q 663 357 665 363 q 622 338 647 338 q 610 338 617 338 q 599 344 603 339 q 597 347 597 346 q 594 350 596 349 m 346 339 q 350 342 346 340 q 356 343 354 343 q 367 354 363 347 q 368 360 367 357 q 369 367 369 364 l 369 375 q 371 378 369 376 q 372 379 372 379 q 371 383 372 382 q 369 383 369 383 l 369 386 l 369 389 l 369 425 l 369 451 l 369 460 q 364 479 367 476 q 346 485 361 482 l 346 488 l 347 488 q 360 488 353 488 q 369 485 367 489 q 370 482 371 483 q 372 481 369 481 q 374 482 375 481 q 376 485 374 483 q 384 487 378 488 q 393 488 390 486 l 400 488 l 406 488 l 406 485 l 389 482 q 382 469 386 474 l 382 465 l 382 449 l 382 432 l 382 374 l 382 367 q 383 358 382 364 q 383 350 383 353 q 385 347 385 350 q 386 344 385 346 q 401 342 393 342 q 415 343 410 343 l 429 343 q 444 351 436 346 q 454 364 451 357 q 458 369 457 367 q 461 375 458 372 l 461 372 q 456 344 456 363 l 460 344 q 465 347 463 344 q 470 352 467 349 q 474 357 474 356 l 499 432 q 499 434 499 432 q 501 436 500 436 q 503 441 501 438 q 506 446 506 444 q 508 455 506 449 q 510 463 510 461 q 513 473 511 468 q 517 485 515 478 l 518 485 q 519 483 519 485 q 521 482 518 482 l 521 488 q 526 493 521 493 q 529 492 529 493 q 546 439 538 464 q 563 386 554 414 q 569 367 565 378 q 579 349 572 356 q 586 344 581 347 q 592 342 592 342 l 575 342 q 573 342 574 342 q 571 343 572 343 l 569 342 l 568 342 l 567 342 l 567 343 q 557 340 561 342 q 550 339 553 339 l 549 339 q 540 342 540 339 q 547 346 540 342 q 554 357 554 350 q 552 367 554 360 q 547 383 550 375 q 542 397 544 390 q 539 403 540 403 l 496 403 q 492 397 494 403 q 487 384 489 392 q 483 369 485 376 q 481 360 481 363 q 490 343 481 343 q 501 339 501 343 l 390 339 q 386 342 388 342 l 386 339 l 358 339 l 356 338 l 346 338 l 346 339 m 372 353 l 372 344 l 375 344 l 375 353 l 372 353 m 1247 347 q 1252 349 1249 347 q 1257 353 1256 350 q 1261 356 1260 354 q 1265 360 1263 357 l 1267 361 q 1267 375 1265 368 q 1268 389 1268 382 q 1271 399 1269 394 q 1271 408 1272 404 l 1276 449 q 1276 461 1275 456 q 1278 474 1278 467 l 1278 476 q 1257 492 1272 489 l 1261 492 q 1271 492 1264 492 q 1279 493 1278 493 l 1281 493 q 1281 492 1281 493 q 1283 490 1282 490 q 1285 490 1283 490 q 1286 488 1286 489 l 1288 488 l 1288 476 q 1291 469 1290 474 q 1294 465 1292 465 l 1294 469 l 1292 476 l 1292 483 l 1290 488 l 1290 489 l 1290 490 q 1291 492 1290 490 q 1293 493 1292 493 l 1294 492 q 1301 458 1294 475 q 1315 428 1308 442 q 1324 403 1319 417 q 1333 379 1328 390 q 1335 378 1335 379 q 1338 378 1336 378 l 1339 379 q 1347 397 1342 389 q 1354 415 1351 406 q 1359 428 1356 419 q 1367 446 1363 436 q 1374 464 1371 456 q 1379 476 1378 472 q 1382 477 1381 478 q 1383 479 1383 476 q 1382 481 1383 481 q 1381 483 1381 482 l 1382 483 q 1383 485 1383 483 q 1381 490 1383 489 q 1379 493 1379 490 q 1383 492 1383 493 q 1385 479 1385 485 q 1386 468 1386 474 l 1386 444 q 1390 443 1388 443 l 1390 444 l 1390 454 l 1390 461 l 1390 469 l 1392 469 l 1392 474 l 1392 479 q 1390 485 1392 483 l 1390 490 l 1390 492 l 1390 493 l 1415 493 q 1413 492 1415 493 q 1407 490 1410 490 q 1405 490 1406 489 q 1403 488 1404 490 q 1401 482 1403 485 q 1400 479 1400 479 l 1400 413 l 1400 407 q 1402 390 1401 404 q 1403 371 1403 375 q 1410 353 1406 357 q 1428 349 1415 349 q 1449 361 1449 349 q 1451 394 1450 374 l 1451 407 q 1453 424 1453 408 l 1453 443 l 1453 444 l 1453 464 q 1452 472 1453 467 q 1451 479 1451 476 q 1442 490 1449 488 q 1429 493 1436 492 l 1433 493 l 1468 493 l 1469 493 l 1467 490 q 1466 486 1467 490 q 1465 479 1465 482 l 1465 465 l 1465 447 q 1467 428 1465 429 q 1467 426 1467 426 q 1468 425 1468 425 l 1472 425 l 1483 425 l 1494 425 q 1504 427 1497 425 q 1514 433 1511 429 q 1517 443 1514 440 l 1517 403 l 1517 401 q 1511 410 1511 407 q 1503 417 1511 413 q 1501 418 1503 418 l 1500 418 l 1469 418 q 1465 415 1468 418 l 1465 394 l 1465 392 l 1465 386 q 1466 376 1465 385 q 1467 365 1467 368 q 1474 355 1469 357 q 1483 350 1478 353 l 1494 350 q 1515 352 1504 350 q 1532 367 1526 354 q 1535 375 1535 369 q 1539 383 1536 381 l 1539 378 q 1538 366 1539 371 q 1536 354 1536 361 q 1540 347 1536 349 q 1514 348 1526 349 q 1488 347 1501 347 l 1468 347 q 1460 354 1461 344 q 1460 367 1460 364 l 1460 397 q 1458 406 1460 404 l 1457 406 q 1456 403 1456 406 l 1456 397 q 1455 392 1456 394 q 1454 386 1454 389 q 1455 369 1454 376 q 1456 353 1456 361 l 1456 349 l 1456 347 q 1438 347 1446 347 q 1422 346 1431 346 q 1410 347 1415 346 q 1399 347 1404 347 q 1397 352 1396 347 q 1394 357 1399 357 l 1393 357 l 1393 347 l 1385 347 q 1374 346 1375 347 l 1371 346 q 1365 347 1367 346 q 1376 351 1371 350 q 1386 357 1382 351 q 1388 354 1386 354 q 1390 357 1390 354 q 1392 365 1390 361 q 1394 372 1394 368 q 1393 376 1394 376 q 1390 379 1393 379 l 1389 378 q 1385 410 1386 393 q 1386 443 1383 428 q 1385 445 1386 444 q 1383 447 1383 446 l 1383 468 q 1382 469 1383 469 l 1381 469 l 1378 464 q 1371 448 1374 457 q 1364 432 1368 439 l 1347 389 q 1344 380 1346 386 q 1339 375 1342 374 q 1335 358 1338 369 q 1329 347 1332 347 l 1328 347 q 1326 353 1328 350 q 1325 360 1325 357 q 1318 376 1318 371 l 1304 406 l 1304 410 q 1300 423 1304 413 q 1294 436 1296 433 q 1289 451 1293 439 q 1282 463 1285 463 q 1279 458 1279 463 l 1279 454 l 1275 403 l 1275 400 q 1274 383 1275 389 q 1274 369 1274 376 q 1281 354 1274 358 q 1297 347 1288 350 l 1297 346 q 1289 344 1292 344 q 1286 343 1286 343 l 1278 343 l 1274 343 q 1269 344 1271 343 q 1267 346 1268 344 q 1265 347 1267 347 l 1264 347 q 1260 346 1261 347 q 1257 344 1260 344 q 1251 343 1256 343 l 1247 343 l 1247 347 m 851 357 q 850 371 851 361 q 847 383 849 381 l 847 386 l 847 388 l 847 392 l 847 390 q 851 383 849 388 q 854 375 853 378 l 854 365 q 857 357 854 357 l 860 357 l 860 365 q 873 354 869 358 q 888 350 876 350 q 915 372 911 350 l 918 375 q 917 381 918 378 q 914 386 915 383 q 910 400 914 393 q 900 409 907 406 q 889 415 893 413 q 875 426 882 422 q 863 439 868 431 q 860 444 860 442 q 859 443 860 442 q 857 451 858 444 l 857 460 l 857 465 q 859 470 858 467 q 861 474 860 474 q 862 478 861 476 q 863 481 863 481 l 864 481 q 863 467 864 474 q 863 454 863 461 q 867 450 863 450 l 867 451 q 867 460 867 456 q 868 469 868 464 q 867 471 868 469 q 867 474 867 472 l 867 478 q 869 485 867 482 q 884 497 875 493 q 901 500 893 500 q 909 499 904 500 q 917 499 914 499 q 918 497 917 499 q 919 494 919 496 l 921 494 q 924 496 922 494 l 951 497 l 954 497 l 986 499 l 986 497 q 980 494 986 496 q 971 492 974 493 q 967 488 969 490 q 964 483 965 485 l 964 493 l 963 494 l 961 493 l 961 492 q 963 479 961 481 l 963 396 l 967 383 q 985 360 971 365 q 1013 354 999 354 q 1038 367 1029 354 l 1040 367 q 1025 351 1040 354 q 1003 347 1010 347 l 999 347 q 985 349 994 349 q 974 357 975 350 q 974 360 974 357 q 972 367 975 364 l 971 365 l 969 357 q 968 356 969 356 q 963 359 965 356 q 960 364 961 363 q 950 385 951 372 q 949 410 949 399 l 949 424 l 949 474 l 949 479 q 947 490 949 489 q 946 492 947 492 l 943 492 q 937 492 940 492 q 931 493 933 493 q 926 490 926 493 l 926 474 q 926 467 926 471 q 925 464 925 464 l 924 463 l 924 465 q 922 473 922 468 q 919 479 921 478 q 918 483 919 483 q 915 488 917 485 q 910 493 913 490 q 903 494 907 493 q 899 496 900 496 q 880 491 889 499 q 871 471 871 483 l 871 464 q 883 443 874 450 q 904 429 893 436 q 924 413 915 422 q 932 386 932 403 q 928 372 932 376 l 926 369 q 926 367 926 369 q 924 365 925 365 q 908 352 921 357 q 888 347 894 347 q 875 348 881 347 q 863 350 869 349 q 856 353 861 350 q 851 357 851 357 m 703 349 q 719 356 715 351 q 726 375 724 361 q 727 379 726 378 q 728 383 728 381 q 727 388 728 386 q 726 392 726 389 q 728 395 726 394 q 729 399 729 396 q 728 401 729 400 l 728 419 q 728 452 728 435 q 729 485 729 469 q 722 493 729 493 l 721 493 q 708 492 718 493 q 696 492 699 492 q 682 483 688 490 q 674 465 676 475 l 672 467 l 672 468 l 672 469 q 674 482 672 476 q 675 494 675 488 l 675 499 q 669 502 672 501 q 663 506 665 503 q 660 508 663 506 q 657 513 657 511 l 654 513 q 651 520 651 514 q 647 531 650 526 l 647 546 q 649 550 649 547 l 649 551 l 647 551 l 647 553 q 648 556 647 554 q 649 560 649 558 q 648 563 649 563 q 647 567 647 564 q 649 569 649 567 l 649 583 q 647 589 649 588 q 649 590 647 590 q 651 593 651 590 l 651 594 l 646 600 q 650 603 650 600 l 665 603 l 668 603 l 671 603 q 665 601 668 603 q 661 600 663 600 q 658 590 658 600 q 657 574 657 581 l 657 567 l 657 560 l 657 551 l 657 546 l 657 543 q 660 524 657 533 q 672 510 664 515 q 676 507 675 507 q 682 506 681 507 l 700 506 q 704 508 701 507 q 707 510 707 508 l 711 510 q 715 515 714 510 q 721 524 719 522 q 722 543 722 525 l 722 563 q 723 563 722 563 q 724 565 724 564 l 724 567 q 723 572 724 569 q 722 575 722 574 q 722 585 722 579 q 721 594 721 592 q 714 601 719 599 q 706 603 708 603 l 704 603 l 713 603 l 726 603 l 731 603 l 735 603 q 726 590 725 600 q 725 574 728 581 q 724 553 725 568 q 724 535 724 538 q 713 510 722 519 q 699 501 708 503 q 682 500 689 500 q 683 496 682 496 l 719 496 q 725 494 721 494 q 731 495 728 494 q 736 496 733 496 l 740 493 q 750 496 746 493 q 758 499 754 499 q 762 497 761 499 q 765 496 763 496 q 769 497 768 496 q 774 499 771 499 q 778 497 776 499 q 783 496 781 496 l 789 496 q 792 501 792 499 l 792 503 l 782 503 q 789 508 786 504 q 796 513 792 511 l 796 510 q 797 507 796 507 l 799 507 l 800 507 l 800 522 q 796 532 796 522 q 800 544 796 540 l 800 546 q 797 554 800 551 l 797 575 l 797 578 q 799 581 797 581 l 799 597 q 797 603 797 599 q 801 604 797 604 l 808 604 l 810 604 q 807 603 808 603 q 806 600 806 603 l 806 596 l 806 526 q 811 510 806 514 q 826 503 817 506 l 822 503 l 801 503 l 797 503 l 797 501 l 797 499 l 797 496 l 797 493 l 797 486 l 797 468 q 796 471 797 468 q 793 474 794 474 q 772 492 786 493 q 742 492 757 492 l 742 414 q 741 406 742 411 q 740 397 740 400 q 741 388 740 394 q 742 381 742 382 q 742 374 742 379 q 743 367 743 368 q 751 355 744 357 q 765 350 758 353 l 765 349 l 764 349 l 710 349 q 708 348 710 349 q 706 347 707 347 l 703 349 m 1543 349 q 1553 353 1550 350 q 1561 364 1557 357 q 1562 371 1561 365 q 1563 379 1563 376 l 1563 394 l 1563 406 q 1563 426 1563 415 q 1564 446 1564 438 l 1564 457 q 1563 467 1564 463 q 1565 476 1563 471 l 1565 472 q 1567 469 1565 469 l 1568 469 q 1569 471 1568 469 q 1569 474 1569 472 l 1569 493 l 1574 493 l 1578 493 q 1576 481 1576 486 q 1575 471 1575 475 l 1575 449 l 1575 428 l 1576 421 q 1581 419 1576 419 q 1608 429 1594 419 q 1622 456 1622 439 q 1613 483 1622 469 q 1605 488 1610 485 q 1596 492 1600 490 q 1591 492 1593 493 q 1586 493 1589 492 l 1588 494 q 1590 496 1588 496 l 1594 496 l 1599 496 q 1601 494 1601 496 q 1606 494 1603 494 q 1610 493 1610 493 q 1613 492 1611 493 q 1615 492 1615 492 q 1619 486 1619 489 q 1622 479 1619 482 l 1624 479 l 1624 486 q 1624 485 1624 486 q 1626 485 1625 485 q 1630 475 1631 482 q 1629 463 1629 468 l 1632 460 q 1635 462 1635 460 q 1636 464 1636 464 q 1635 467 1636 465 q 1635 469 1635 469 q 1636 474 1635 472 q 1638 467 1636 471 q 1639 463 1639 464 q 1638 457 1639 461 q 1636 446 1638 453 q 1633 444 1635 446 q 1632 443 1632 443 q 1627 437 1631 440 q 1624 432 1624 433 q 1618 429 1622 431 q 1614 425 1614 428 l 1626 393 q 1631 390 1631 389 l 1632 388 q 1637 381 1633 386 q 1642 375 1640 376 l 1642 374 l 1642 368 q 1644 361 1642 365 q 1646 354 1646 357 l 1646 353 l 1644 353 q 1632 364 1639 353 q 1626 370 1629 367 q 1619 379 1624 374 q 1607 405 1611 393 q 1586 417 1603 417 l 1579 417 q 1575 413 1576 417 l 1575 393 l 1575 382 l 1575 371 q 1576 364 1576 369 q 1579 358 1576 361 q 1599 349 1586 351 q 1589 348 1593 349 q 1579 347 1585 347 q 1573 348 1576 347 q 1567 349 1569 349 q 1554 348 1560 349 q 1542 347 1549 347 q 1543 349 1542 349 m 1069 350 q 1081 356 1076 353 q 1088 367 1085 360 l 1090 372 q 1092 375 1090 376 q 1093 376 1093 375 l 1093 379 l 1093 396 q 1094 410 1093 401 q 1097 425 1096 418 q 1100 447 1099 436 q 1101 474 1101 458 q 1104 476 1104 474 l 1104 483 l 1104 493 q 1107 499 1104 499 l 1118 499 q 1119 490 1118 493 q 1121 482 1119 486 q 1126 465 1122 478 q 1132 449 1131 453 l 1144 419 q 1145 417 1144 418 q 1146 414 1146 415 l 1147 408 l 1149 406 q 1154 393 1151 403 q 1160 383 1157 383 q 1165 390 1163 383 q 1168 399 1167 396 l 1190 451 l 1194 464 q 1200 477 1197 471 q 1203 492 1203 483 q 1202 494 1203 493 q 1201 499 1201 496 l 1214 499 l 1214 488 q 1210 493 1214 493 q 1206 485 1206 493 q 1210 482 1206 482 l 1210 469 q 1208 472 1207 469 q 1206 474 1208 474 l 1201 471 q 1192 447 1199 460 q 1186 433 1186 433 q 1185 431 1186 433 q 1183 425 1185 429 q 1174 404 1179 414 q 1165 383 1169 394 q 1165 380 1165 383 q 1163 375 1164 376 q 1158 365 1161 372 q 1154 354 1156 357 q 1148 365 1153 354 q 1138 391 1143 376 q 1127 418 1132 406 q 1121 435 1122 431 q 1115 450 1118 442 q 1108 465 1113 458 q 1108 468 1108 467 q 1107 469 1107 469 q 1104 467 1104 469 l 1104 463 q 1100 417 1101 439 q 1099 374 1099 396 q 1101 362 1099 365 q 1108 356 1104 358 q 1116 353 1113 354 q 1121 350 1119 353 l 1114 350 l 1103 350 q 1094 354 1094 350 q 1093 358 1093 356 q 1090 361 1093 361 l 1090 357 l 1090 353 l 1090 351 q 1089 350 1090 350 l 1085 350 l 1074 350 l 1071 350 l 1069 350 m 1206 357 q 1211 371 1211 363 l 1211 396 l 1211 399 q 1210 422 1211 404 q 1208 444 1208 440 l 1208 454 l 1208 464 q 1213 465 1210 465 l 1214 482 l 1214 483 q 1215 479 1215 482 q 1217 476 1215 476 q 1217 481 1217 478 q 1218 488 1218 485 q 1219 494 1218 490 q 1221 499 1219 499 l 1228 499 l 1240 499 q 1238 497 1240 499 q 1233 494 1235 496 l 1231 493 l 1226 493 q 1222 480 1224 493 q 1221 464 1221 467 l 1221 463 l 1222 456 l 1222 454 l 1224 454 l 1224 415 q 1222 411 1222 415 q 1224 409 1222 410 q 1225 407 1225 408 q 1226 398 1225 404 q 1226 389 1226 392 q 1227 380 1226 388 q 1228 368 1228 372 q 1236 357 1231 360 q 1249 353 1242 354 q 1242 350 1246 350 l 1239 350 q 1238 351 1239 350 q 1235 353 1236 353 l 1231 350 l 1229 350 l 1228 350 q 1227 351 1228 350 q 1226 353 1226 351 l 1221 353 l 1219 353 l 1219 357 q 1220 372 1219 364 q 1221 386 1221 379 l 1221 390 q 1219 396 1221 394 l 1218 394 q 1215 375 1215 386 q 1214 354 1214 364 l 1213 353 q 1201 351 1206 353 q 1189 350 1196 350 q 1193 354 1189 354 l 1200 354 l 1201 357 l 1206 357 m 1565 364 q 1567 353 1565 354 l 1567 361 l 1567 367 l 1565 367 l 1565 364 m 728 367 l 728 357 q 729 354 728 354 l 732 354 q 735 357 735 354 q 733 365 735 361 q 732 374 732 369 l 733 376 l 733 394 l 732 394 q 731 389 731 392 q 729 385 732 386 l 729 368 l 728 367 m 1046 499 l 1050 499 q 1051 498 1050 499 q 1051 496 1051 497 q 1052 490 1051 494 q 1054 479 1053 486 l 1056 481 l 1056 499 l 1065 499 l 1067 499 l 1072 499 q 1058 477 1058 490 q 1056 449 1057 464 q 1055 437 1056 446 q 1054 425 1054 428 q 1053 410 1053 424 l 1053 396 q 1051 394 1053 400 q 1046 369 1049 388 q 1043 368 1046 368 q 1044 376 1043 372 q 1047 383 1046 381 q 1051 407 1051 393 l 1051 463 q 1049 479 1051 471 q 1046 499 1046 488 m 958 374 l 958 371 l 958 372 l 958 375 l 958 374 m 1390 388 q 1392 383 1390 383 q 1396 393 1396 383 q 1394 396 1396 396 q 1390 388 1390 396 m 953 392 q 954 389 953 392 q 957 386 956 386 l 958 386 q 956 400 957 393 q 951 417 954 407 l 950 417 q 952 404 950 410 q 953 392 954 399 m 499 415 q 501 411 499 411 l 533 411 q 536 415 536 411 l 536 417 q 528 440 533 424 q 522 461 524 456 l 518 469 l 517 469 q 512 460 514 469 q 510 447 510 450 q 504 434 507 444 q 499 419 501 424 l 499 415 m 1518 490 l 1514 490 q 1503 492 1504 490 l 1476 492 q 1475 493 1476 493 l 1476 493 l 1493 493 q 1508 494 1501 493 q 1522 493 1515 494 q 1524 485 1525 492 q 1529 476 1524 479 l 1529 474 q 1530 471 1529 474 q 1528 465 1531 468 q 1521 488 1526 479 l 1518 490 m 957 474 l 958 474 q 960 482 960 475 l 960 485 q 959 490 960 488 q 958 492 958 492 l 957 492 l 957 474 m 524 489 q 528 479 524 479 q 524 489 528 489 m 1458 485 l 1458 483 l 1461 483 q 1463 485 1463 483 q 1460 492 1463 489 q 1458 485 1458 490 m 1094 493 q 1088 495 1092 494 q 1082 499 1085 496 l 1088 499 l 1100 499 l 1100 493 l 1100 490 l 1099 490 l 1094 493 m 1024 499 l 1040 499 q 1042 494 1042 499 l 1042 492 q 1039 492 1040 492 q 1036 493 1038 493 q 1031 494 1035 493 q 1026 494 1028 494 q 1024 499 1024 497 m 1531 493 l 1531 492 l 1531 493 m 136 499 q 144 502 139 501 q 150 506 149 503 l 150 532 l 150 535 l 150 536 l 150 539 l 150 543 l 150 563 q 151 585 150 572 q 140 600 151 597 q 158 601 149 600 q 175 601 167 601 q 169 599 175 600 q 161 592 164 597 q 160 578 160 590 l 160 565 l 160 554 l 163 551 l 172 551 q 193 552 183 551 q 217 554 203 553 q 219 557 219 554 l 219 561 l 219 574 l 219 589 q 215 597 218 596 q 206 600 211 599 q 220 601 213 600 q 236 601 228 601 q 242 600 240 601 q 233 597 236 600 q 228 585 229 592 q 228 571 228 578 l 228 544 l 228 519 q 230 506 228 510 q 239 499 232 503 l 206 499 q 210 503 206 500 q 217 510 215 506 q 219 526 218 513 q 219 543 219 540 q 214 551 219 551 q 194 551 206 551 q 174 550 182 550 q 166 549 171 550 q 161 549 161 549 l 160 546 l 160 524 q 159 528 160 525 q 157 531 158 531 l 157 518 l 157 510 q 160 507 157 504 q 163 503 161 506 q 167 501 164 501 l 169 500 q 171 499 171 500 l 169 499 l 138 499 l 136 499 m 67 578 q 64 574 68 578 q 51 540 57 557 q 40 507 44 524 l 36 501 l 35 503 q 33 511 35 503 q 31 522 32 519 l 31 531 q 30 534 31 535 q 26 536 29 533 q 25 547 25 538 q 19 571 22 558 q 10 594 17 583 q 6 597 8 596 q 4 600 4 597 q 12 599 8 600 q 18 597 15 597 q 23 599 21 597 q 28 600 25 600 l 32 600 q 26 596 29 597 q 22 590 22 594 q 25 576 22 588 q 31 553 28 565 q 37 532 33 542 q 42 522 40 522 q 48 533 44 522 q 53 546 51 543 q 56 556 53 549 q 60 567 58 564 q 63 577 58 572 q 67 586 67 582 q 63 594 67 590 q 57 600 60 597 l 75 600 l 81 600 l 75 593 l 75 590 q 79 575 75 581 l 92 524 q 96 522 92 522 q 101 531 97 522 q 108 552 104 540 q 115 575 113 564 q 118 590 118 586 q 108 600 118 599 l 132 600 q 122 590 126 596 q 110 555 115 572 q 100 522 106 538 q 96 517 99 519 q 93 513 93 514 l 93 504 q 90 499 93 499 q 88 505 89 500 q 88 510 88 510 q 84 524 88 513 q 79 540 81 536 q 78 547 79 542 q 74 560 76 553 q 70 572 72 567 q 67 578 68 578 m 290 603 q 291 601 290 603 q 293 600 292 600 l 294 601 q 299 593 296 601 q 305 574 301 585 q 311 554 308 564 q 315 543 314 544 q 319 533 317 538 q 322 522 322 528 l 321 522 q 323 517 321 519 q 325 513 325 514 q 336 501 332 501 q 340 499 338 501 l 335 499 l 321 499 q 307 500 308 499 q 311 504 308 501 q 314 510 314 507 q 313 515 314 511 q 313 519 313 518 q 308 533 311 522 q 301 543 306 543 l 274 543 q 266 530 269 543 q 263 513 263 517 q 266 503 263 506 q 274 499 269 501 l 246 499 l 240 499 q 250 503 246 501 q 258 510 254 504 q 259 511 258 510 q 260 514 260 513 q 271 549 265 532 q 283 583 276 567 q 285 592 283 586 q 288 600 288 597 q 288 601 288 600 q 290 603 289 603 m 306 499 l 304 499 l 306 499 m 360 600 q 347 599 353 600 q 336 592 340 599 q 332 583 333 589 l 332 588 q 333 595 332 590 q 333 603 333 600 l 335 603 l 340 603 l 358 603 l 386 603 l 408 603 q 418 604 417 603 q 421 597 421 604 q 422 589 422 596 q 421 583 422 585 q 417 590 418 586 q 410 597 417 594 q 406 600 407 600 l 403 600 l 385 600 q 379 592 381 600 l 379 582 l 379 574 q 381 567 379 568 l 381 535 q 379 529 379 533 l 379 522 q 378 519 379 521 q 378 515 378 518 l 378 514 q 382 509 379 513 q 386 506 385 506 l 389 503 q 394 500 392 503 l 389 500 q 384 501 386 500 q 379 503 382 503 q 375 500 375 499 q 365 499 374 499 l 357 499 l 353 499 q 364 506 358 503 q 369 518 369 508 q 372 524 371 519 q 372 529 372 529 l 372 597 q 367 600 372 600 l 360 600 m 489 514 q 490 527 489 521 q 490 540 490 533 q 488 550 490 546 q 483 560 485 554 q 478 572 481 565 q 474 585 475 578 l 461 600 l 457 603 l 478 603 l 479 603 l 485 603 q 479 596 479 601 q 481 586 479 593 q 487 572 483 579 q 493 559 490 565 q 497 551 496 553 q 501 557 500 554 q 504 560 501 560 q 502 556 503 560 q 500 551 501 551 q 499 549 500 550 q 499 547 499 549 l 499 535 l 499 519 q 506 507 499 514 q 510 504 507 506 q 514 500 513 503 l 511 500 l 510 500 q 501 501 507 500 q 493 501 494 501 l 492 501 q 485 501 490 501 q 479 500 481 500 l 476 500 l 474 500 q 481 504 475 501 q 489 514 486 507 m 904 507 l 904 506 q 901 504 904 504 l 889 504 q 890 506 889 506 q 900 520 899 513 q 901 540 901 528 q 901 547 901 543 q 900 554 900 551 l 900 563 q 901 575 900 569 q 901 588 901 581 l 901 589 q 901 594 901 589 q 900 601 900 600 l 899 603 l 894 603 q 889 603 892 603 q 886 604 886 604 l 886 606 q 894 605 890 606 q 904 604 899 604 q 911 606 910 604 l 926 606 q 919 603 926 603 q 913 600 915 603 q 910 592 913 594 l 910 542 l 910 518 q 916 508 911 511 q 921 503 921 504 l 919 503 q 919 502 919 503 q 918 500 918 501 q 910 503 915 500 q 904 507 906 507 m 549 510 q 532 543 532 526 q 542 586 532 574 q 576 606 553 599 q 580 608 579 607 q 583 611 581 610 l 588 611 q 610 626 607 618 q 615 656 614 635 q 616 664 615 657 q 617 672 617 671 l 617 674 q 615 678 617 678 l 615 690 q 616 727 615 710 q 618 764 617 744 q 617 783 618 768 q 617 804 617 799 l 617 808 q 622 819 622 814 q 619 822 622 822 q 617 819 618 822 q 615 817 617 817 l 615 814 l 614 817 q 585 829 599 826 l 583 829 l 607 829 q 611 832 607 832 q 617 831 614 832 q 622 829 619 829 q 626 831 625 829 q 629 832 628 832 q 631 831 631 832 q 635 829 632 829 q 651 831 643 829 q 665 832 658 832 q 653 824 665 828 q 638 814 640 821 q 636 801 638 808 q 635 790 635 793 l 635 789 l 635 779 l 635 776 q 634 721 635 749 q 633 664 633 693 q 640 628 633 638 q 671 611 647 618 l 672 610 q 671 609 672 610 q 668 608 669 608 l 665 610 l 657 610 l 656 610 q 653 611 654 610 l 651 611 q 647 610 649 611 q 642 610 644 610 q 634 610 636 610 q 629 611 632 611 l 628 611 q 624 610 628 611 q 619 610 621 610 l 603 610 q 586 608 588 610 q 597 603 589 604 q 611 597 606 601 q 617 589 613 594 q 625 581 622 583 q 631 554 631 571 q 626 529 631 539 q 611 510 621 519 q 604 506 608 510 q 599 503 600 503 l 597 503 q 601 510 597 508 q 607 514 604 511 q 613 524 610 517 q 618 535 615 532 l 618 543 q 608 585 618 567 q 575 603 599 603 q 559 597 568 603 q 549 582 550 590 l 544 563 l 542 560 l 542 540 q 546 535 542 539 q 549 526 549 531 q 553 518 550 521 q 560 508 556 511 q 571 501 565 506 l 567 501 q 549 510 558 501 m 940 506 q 947 510 944 511 q 950 518 949 510 q 952 551 951 533 q 951 585 953 568 l 953 589 l 953 592 q 952 597 953 594 q 951 603 951 600 l 954 606 l 954 607 q 950 615 954 610 q 944 622 946 619 l 942 625 q 934 637 939 632 q 924 649 929 642 l 924 653 q 918 661 919 653 q 916 662 918 663 q 913 664 914 661 q 912 665 913 664 q 910 668 911 667 q 897 684 903 675 q 883 700 890 693 q 876 710 881 707 q 867 719 871 713 q 866 722 867 719 q 864 725 865 724 q 863 726 864 726 q 854 736 857 731 q 847 746 851 742 q 835 760 844 749 q 824 775 826 772 q 819 779 822 775 q 815 785 817 783 l 814 785 q 813 784 814 785 q 813 782 813 783 q 810 727 811 754 q 810 672 810 700 l 810 654 q 810 649 810 653 q 813 639 811 646 l 814 639 q 819 631 817 635 q 826 624 821 626 q 838 617 829 621 q 847 611 847 614 q 839 610 846 610 l 831 610 l 829 610 q 827 610 828 610 q 826 611 826 611 l 814 611 q 811 614 811 611 l 811 619 l 810 619 q 801 611 807 611 l 792 611 q 784 609 786 610 q 776 608 782 608 q 752 610 761 608 q 729 619 743 613 q 721 625 722 624 q 717 633 719 626 q 713 635 715 636 q 710 635 710 635 q 706 640 707 638 q 703 646 706 643 q 701 648 703 647 q 700 649 700 649 q 692 658 694 654 q 686 668 690 661 q 682 671 686 667 l 665 692 q 657 703 661 697 q 646 717 653 710 q 649 722 646 719 q 651 725 651 724 q 658 732 654 726 q 663 739 661 738 q 663 740 663 739 q 664 743 664 742 q 669 749 665 744 q 675 756 674 753 q 676 757 676 756 q 684 766 678 760 q 690 775 690 772 q 694 779 694 775 q 706 795 697 783 q 714 814 714 807 q 710 825 714 822 q 699 829 706 828 l 699 832 l 725 832 q 726 833 725 832 q 728 833 726 833 q 732 829 732 833 l 733 829 q 736 832 736 829 q 744 831 739 832 q 751 833 749 831 l 799 833 q 801 833 800 833 q 801 832 801 832 l 803 832 l 804 832 l 808 833 q 820 820 810 833 q 832 803 831 807 q 848 785 836 799 q 863 765 860 771 q 865 762 863 765 q 871 756 868 758 l 871 753 l 946 664 q 948 663 947 664 q 949 663 949 663 l 950 663 q 951 663 950 663 q 951 665 951 664 q 952 668 951 665 q 953 672 953 671 q 952 688 953 676 q 951 703 951 700 l 951 704 q 952 735 951 719 q 953 765 953 750 l 953 797 q 950 808 951 803 q 947 817 949 813 l 944 819 l 943 819 l 942 821 q 937 823 939 821 q 932 825 935 825 q 925 827 931 825 q 918 829 919 829 q 914 835 914 829 q 932 834 924 835 q 949 833 940 833 l 950 833 l 971 833 l 972 833 l 976 833 l 979 833 q 981 835 979 835 q 983 833 983 835 q 980 831 983 831 q 975 829 976 832 q 964 818 964 822 q 963 815 964 818 q 961 804 963 811 q 959 785 960 794 q 958 767 958 776 l 958 749 q 957 731 958 732 l 957 690 l 957 664 q 956 658 957 663 q 954 650 954 653 l 954 644 q 958 626 957 636 q 958 608 958 617 l 960 608 q 961 606 960 607 q 963 604 963 606 q 962 602 963 603 q 961 601 961 601 l 961 531 q 963 515 961 522 q 971 506 964 508 q 964 504 969 504 l 960 504 q 954 507 957 507 q 946 503 950 507 l 944 503 q 943 503 944 503 q 940 506 942 504 m 936 506 l 936 503 q 935 504 935 503 q 936 506 935 506 m 865 551 l 865 560 q 865 563 865 560 q 863 571 864 565 q 860 578 861 575 q 857 585 858 582 q 849 590 857 588 q 846 594 849 592 q 843 597 843 596 q 831 601 840 600 q 818 603 822 603 l 818 606 q 846 601 833 606 l 847 600 q 849 599 847 600 q 853 597 851 597 q 854 597 853 596 q 856 597 856 597 q 867 588 860 596 q 875 574 874 579 q 878 564 878 571 l 878 554 q 876 540 878 550 q 871 528 874 531 q 861 518 864 524 q 851 510 858 513 q 844 508 849 510 q 840 506 840 506 l 838 506 q 846 510 838 510 q 860 527 854 514 q 865 551 865 540 m 988 506 q 983 506 983 501 l 988 506 m 999 510 q 1001 513 999 513 q 1006 514 1004 514 q 1003 510 1006 513 q 999 507 1001 507 l 999 510 m 1011 518 q 1014 522 1011 522 q 1011 514 1014 517 q 1010 517 1010 515 q 1011 518 1011 518 m 158 518 q 160 521 158 519 l 160 515 q 158 518 158 515 m 954 522 l 954 518 q 956 519 957 518 q 956 521 956 521 q 954 524 956 522 l 954 522 m 1017 522 l 1017 529 q 1019 540 1017 535 q 1021 551 1021 544 q 1005 592 1021 579 q 965 606 989 606 l 965 607 q 993 604 981 607 q 1017 590 1006 601 q 1028 576 1025 583 q 1032 557 1032 569 q 1022 524 1032 538 q 1019 522 1021 522 l 1018 522 l 1017 522 m 275 551 l 275 549 q 276 547 275 547 q 283 548 278 547 q 289 549 288 549 q 297 548 292 549 q 301 551 301 547 q 299 565 301 558 q 293 579 296 572 q 292 583 293 581 q 289 589 290 586 l 288 589 q 282 581 282 589 q 281 571 282 572 q 275 551 275 565 m 507 565 q 511 574 508 567 q 515 583 514 581 q 517 590 515 586 q 518 596 518 593 q 516 599 518 599 q 514 603 514 600 l 533 603 q 526 599 529 600 q 519 590 522 597 l 507 565 l 507 564 l 507 565 m 56 600 l 56 597 q 54 599 54 597 q 56 600 54 600 m 635 603 q 642 603 638 603 q 646 600 646 604 q 638 602 640 601 q 635 603 635 603 m 783 603 l 788 603 l 793 603 q 792 600 793 600 l 789 601 q 785 602 788 601 q 783 603 783 603 m 938 604 l 946 604 l 949 603 q 947 601 949 601 q 947 602 950 601 q 938 604 944 603 m 736 604 l 736 603 l 735 603 q 736 604 735 604 m 1001 661 l 1000 663 q 998 660 999 661 q 997 658 997 658 l 996 658 q 993 667 993 658 q 992 678 993 676 q 990 679 992 678 q 988 681 989 681 q 983 701 982 690 q 983 724 983 713 q 996 783 983 754 q 1002 794 1000 790 q 1011 804 1004 797 q 1017 813 1014 804 q 1018 814 1017 814 l 1019 814 q 1025 817 1022 814 q 1031 824 1028 821 q 1079 839 1054 839 q 1107 835 1094 839 l 1115 835 q 1122 832 1117 835 q 1128 829 1126 829 q 1130 828 1129 829 q 1131 828 1131 828 q 1139 823 1133 825 q 1144 821 1144 821 l 1165 797 q 1180 763 1175 786 q 1185 724 1185 739 q 1181 699 1185 711 q 1175 672 1178 686 q 1169 662 1171 668 q 1164 650 1167 656 q 1079 608 1132 608 q 1042 617 1064 608 q 1010 642 1019 625 q 1007 644 1010 644 q 1003 653 1004 647 q 1001 661 1001 658 m 1231 669 q 1230 678 1231 671 q 1228 686 1229 685 q 1225 692 1226 694 q 1224 693 1224 689 q 1219 718 1224 697 q 1208 763 1214 739 q 1195 806 1201 786 q 1188 825 1189 825 l 1182 825 q 1181 826 1182 826 q 1179 829 1179 828 q 1178 832 1179 832 q 1172 831 1175 832 q 1168 833 1168 831 q 1172 835 1168 835 l 1174 835 q 1175 833 1175 835 l 1178 833 q 1178 834 1178 833 q 1182 835 1179 835 q 1185 833 1183 835 l 1204 835 l 1208 835 l 1236 835 l 1243 835 l 1243 833 l 1242 833 q 1234 831 1238 832 q 1226 828 1231 829 l 1225 826 q 1224 828 1225 828 q 1222 832 1224 831 q 1218 823 1219 833 q 1217 810 1217 813 l 1217 808 q 1222 790 1219 797 q 1226 772 1224 782 q 1231 749 1229 760 q 1236 726 1233 738 q 1240 719 1238 726 q 1242 710 1242 713 q 1244 700 1243 707 q 1246 689 1246 693 q 1244 676 1246 682 q 1243 665 1243 671 l 1246 633 l 1246 632 l 1247 632 l 1249 632 l 1249 633 l 1249 649 q 1248 663 1249 656 q 1247 678 1247 671 q 1251 673 1250 678 q 1254 668 1251 668 q 1256 669 1256 668 q 1257 669 1257 669 q 1264 683 1263 676 q 1268 697 1265 690 l 1289 756 q 1291 763 1289 756 q 1293 772 1293 769 q 1299 787 1294 775 q 1304 803 1303 799 l 1304 804 q 1303 814 1304 813 q 1301 815 1301 814 q 1300 817 1300 817 q 1288 828 1293 826 q 1274 833 1282 831 l 1272 833 l 1272 835 l 1274 835 l 1307 835 q 1308 829 1308 835 q 1310 821 1308 828 q 1313 811 1311 814 l 1313 810 l 1314 810 q 1315 811 1315 810 l 1315 833 q 1316 829 1315 832 q 1319 826 1317 826 l 1321 826 q 1322 833 1321 832 l 1325 829 q 1328 832 1328 829 q 1331 835 1328 835 l 1347 838 q 1349 837 1347 838 q 1350 835 1350 836 q 1344 832 1350 832 q 1338 829 1340 832 q 1331 826 1335 829 q 1326 822 1328 824 l 1325 821 l 1325 817 l 1325 804 q 1339 756 1332 781 q 1351 707 1346 731 q 1353 697 1353 700 q 1354 697 1354 694 q 1356 690 1354 692 q 1356 688 1356 689 q 1357 688 1357 688 q 1358 684 1357 688 q 1360 678 1360 681 q 1356 658 1360 664 l 1356 657 l 1356 635 l 1356 633 l 1357 633 l 1357 635 q 1360 642 1358 638 q 1361 649 1361 647 q 1362 652 1361 649 q 1363 657 1363 656 q 1367 667 1364 663 q 1374 678 1371 671 q 1379 698 1376 688 q 1386 718 1382 708 q 1388 723 1386 722 q 1390 726 1389 724 q 1393 740 1392 733 q 1396 750 1394 746 q 1404 782 1400 767 q 1408 814 1408 797 l 1408 824 q 1408 826 1408 824 q 1406 828 1407 828 q 1395 831 1401 829 q 1383 833 1389 832 q 1388 838 1383 838 l 1390 838 q 1397 836 1392 838 q 1404 835 1403 835 l 1407 835 l 1410 835 l 1415 835 q 1419 835 1417 835 q 1425 833 1422 836 l 1425 831 q 1428 828 1425 828 l 1429 828 l 1429 829 q 1428 833 1429 832 q 1428 835 1428 833 l 1429 835 l 1429 836 l 1446 836 l 1446 838 l 1447 838 l 1449 838 l 1449 836 q 1444 833 1449 833 l 1439 833 q 1429 824 1433 829 q 1421 814 1425 819 q 1417 803 1418 811 q 1415 790 1417 796 q 1410 774 1413 783 q 1406 757 1408 765 q 1404 753 1406 756 q 1403 750 1403 750 q 1401 743 1403 747 q 1399 738 1399 739 q 1392 715 1396 726 q 1383 693 1389 704 l 1383 690 q 1381 680 1382 683 q 1381 678 1381 676 q 1376 665 1378 672 q 1372 654 1374 657 q 1371 652 1372 653 q 1368 649 1369 651 q 1367 643 1368 649 q 1363 630 1365 638 q 1360 616 1361 622 q 1357 610 1358 610 q 1352 624 1356 610 q 1349 640 1349 638 l 1349 646 q 1347 649 1349 647 q 1346 650 1346 650 q 1344 660 1344 657 q 1343 663 1343 664 q 1342 674 1343 672 q 1336 686 1339 681 q 1333 697 1333 692 q 1332 707 1333 706 q 1328 722 1331 714 q 1324 736 1325 729 q 1323 737 1324 736 q 1322 739 1322 738 q 1320 750 1322 742 q 1315 767 1318 758 q 1310 782 1313 775 q 1306 789 1307 789 l 1304 789 q 1297 765 1299 779 q 1292 749 1294 757 q 1286 731 1289 740 q 1285 727 1286 728 q 1282 724 1283 726 q 1278 710 1279 717 q 1275 697 1278 704 l 1274 694 l 1272 690 l 1271 685 q 1269 681 1271 685 q 1267 674 1268 676 q 1265 672 1267 674 q 1264 668 1264 669 q 1256 643 1260 656 q 1249 619 1253 631 q 1247 614 1247 618 q 1244 610 1247 610 q 1242 617 1242 610 l 1242 625 l 1240 629 q 1237 639 1238 635 q 1235 650 1236 643 q 1233 661 1232 657 q 1231 669 1233 665 m 1072 614 q 1081 613 1075 614 q 1090 611 1088 611 q 1115 619 1104 611 q 1124 628 1119 625 q 1133 638 1128 632 q 1142 649 1138 643 q 1143 654 1143 650 q 1146 661 1143 658 l 1147 658 q 1149 661 1149 658 l 1149 676 q 1150 678 1149 678 q 1151 679 1151 678 q 1154 698 1153 688 q 1156 717 1156 708 q 1152 753 1156 735 q 1142 786 1149 771 q 1139 793 1140 789 q 1135 800 1138 797 q 1131 806 1135 801 q 1125 813 1126 810 q 1124 815 1125 814 q 1122 817 1122 817 l 1121 819 q 1100 831 1110 826 q 1078 835 1090 835 q 1072 833 1072 835 q 1063 829 1063 833 l 1054 829 q 1043 821 1047 822 q 1015 769 1022 800 q 1014 763 1015 764 q 1010 736 1010 747 q 1010 715 1010 726 q 1014 693 1011 703 q 1017 683 1015 688 q 1019 674 1018 678 q 1024 663 1021 671 q 1028 653 1026 656 q 1028 650 1028 651 q 1029 649 1029 649 l 1044 629 q 1055 622 1047 628 q 1072 614 1063 617 m 731 644 q 735 640 732 640 q 740 638 738 640 q 747 628 746 632 q 749 617 747 624 l 749 615 q 751 619 751 615 q 753 625 751 624 q 763 618 758 621 q 774 615 767 615 q 784 619 781 615 q 794 625 788 622 q 797 626 796 625 q 797 626 797 626 l 797 629 q 799 635 797 631 q 801 639 800 639 q 803 644 801 643 q 806 714 807 679 q 808 785 806 749 q 796 817 808 806 q 790 822 794 819 q 783 825 785 824 q 778 826 782 825 q 774 828 774 828 l 753 828 q 747 824 750 828 q 738 819 743 819 l 736 819 q 735 821 736 821 l 733 821 l 733 819 q 731 816 732 818 q 729 813 731 814 q 703 782 711 794 l 665 738 l 665 732 q 667 725 665 728 q 671 718 669 722 q 694 689 683 704 q 717 661 706 674 q 723 656 719 658 q 726 649 726 653 q 725 642 726 644 q 724 636 724 639 q 726 630 724 633 q 731 626 729 626 l 731 642 l 731 644 m 619 618 q 621 617 619 617 l 622 617 q 628 624 628 617 l 628 625 l 628 649 l 625 649 l 621 646 q 620 637 621 646 q 619 625 619 628 l 619 619 l 619 618 m 1357 631 l 1357 626 l 1360 626 l 1360 628 q 1357 631 1360 631 m 953 628 l 954 628 l 954 633 q 955 635 954 633 q 954 638 956 638 q 953 636 953 638 l 953 628 m 811 631 l 811 628 q 813 629 811 629 q 814 632 814 629 q 813 633 814 633 l 811 633 l 811 631 m 449 658 q 447 663 449 661 q 444 665 444 664 q 447 738 444 703 q 449 810 449 774 l 449 825 q 448 828 449 825 q 446 839 447 832 q 442 841 444 842 q 438 842 440 840 l 431 844 q 424 847 428 846 q 415 850 419 847 l 424 850 l 460 850 l 463 850 l 468 850 q 478 852 475 851 q 482 853 482 853 l 496 853 q 501 850 499 853 l 500 850 l 496 850 q 488 847 493 849 q 481 844 483 844 q 478 845 479 844 q 476 846 478 846 l 476 844 l 475 844 q 469 832 472 838 q 467 819 467 826 q 466 808 467 817 q 465 794 465 799 l 465 785 q 464 771 464 783 l 464 758 l 464 733 l 464 682 q 463 668 463 681 l 463 658 q 464 657 463 658 q 465 654 465 656 q 488 633 471 636 l 494 633 q 497 633 496 633 q 497 632 497 632 q 492 629 497 629 l 486 629 l 471 629 q 469 631 469 629 q 468 632 469 632 q 466 631 467 632 q 463 629 465 629 q 460 631 460 629 q 457 633 460 633 q 451 631 454 633 q 446 629 449 629 q 444 630 444 629 q 443 631 443 631 q 426 630 435 631 q 408 629 418 629 q 423 635 408 632 q 442 649 438 638 q 443 651 443 649 q 444 656 443 654 q 449 658 449 657 m 449 649 q 450 642 450 647 q 451 636 450 638 q 453 634 451 633 q 454 635 454 635 l 457 635 l 457 638 l 457 640 q 456 644 457 640 q 456 650 456 649 l 453 653 q 449 649 449 653 m 1014 653 l 1014 654 l 1014 658 l 1013 658 q 1010 653 1011 658 q 1010 649 1010 649 q 1014 653 1014 649 m 625 657 l 625 656 l 628 656 l 628 658 q 625 657 625 658 m 1157 678 l 1157 668 q 1160 661 1157 661 l 1161 661 l 1161 663 l 1161 664 l 1161 669 l 1161 678 l 1160 681 q 1157 679 1157 681 l 1157 678 m 1168 699 q 1169 698 1168 699 q 1171 697 1169 697 q 1172 703 1172 697 q 1171 706 1172 704 q 1168 703 1168 706 l 1168 699 m 990 731 l 990 728 q 992 726 990 726 l 993 729 l 993 736 q 990 731 990 736 m 1172 732 q 1175 726 1172 726 q 1172 732 1175 732 m 840 781 l 840 775 l 840 776 l 840 781 m 950 824 q 954 817 950 821 l 954 819 q 951 825 954 822 l 950 825 l 950 824 m 1200 828 q 1203 824 1200 824 q 1204 825 1204 824 q 1201 829 1204 829 l 1200 828 z "},"A":{"ha":1001,"x_min":3,"x_max":971,"o":"m 4 0 l 3 0 l 349 0 q 327 13 349 11 q 279 21 306 14 q 231 49 253 28 q 210 124 210 71 q 215 157 210 133 q 231 210 221 181 q 252 272 240 240 q 275 329 264 303 q 297 373 286 356 q 314 390 307 390 l 613 390 q 640 352 622 390 q 674 265 657 314 q 703 172 690 217 q 715 115 715 128 q 700 75 715 93 q 667 44 685 57 q 633 22 649 31 q 618 8 618 13 l 618 4 q 638 1 624 1 q 664 0 653 0 l 676 0 l 686 0 q 738 3 710 0 q 786 14 765 7 q 794 18 789 14 q 800 22 800 22 l 803 22 q 803 31 804 22 q 801 49 803 39 q 797 67 799 60 q 797 74 796 75 l 828 35 l 847 19 q 853 13 854 19 q 854 4 851 7 l 971 4 q 960 17 971 11 q 935 28 950 22 q 906 40 921 33 q 885 57 892 47 q 815 169 842 107 q 810 184 814 174 q 801 206 806 194 q 792 228 796 218 q 786 243 788 239 q 785 253 786 246 q 782 267 783 260 q 779 281 781 275 q 778 289 778 288 q 658 618 718 457 q 544 947 597 779 q 540 957 544 950 q 531 964 535 964 l 528 964 q 506 944 514 953 q 493 927 497 936 q 488 906 489 918 q 486 872 486 893 q 481 878 482 872 q 478 890 479 883 q 474 901 476 896 q 467 907 472 907 q 465 906 467 907 q 460 904 463 904 q 422 785 446 842 q 382 665 397 728 l 163 99 q 156 90 163 97 q 139 74 149 83 q 119 56 129 65 q 104 40 110 46 q 74 27 93 29 q 42 25 54 25 l 4 0 m 336 467 q 337 483 336 479 q 343 500 338 488 q 356 534 347 510 q 376 586 365 558 q 396 638 386 614 q 410 672 406 663 q 417 700 411 679 q 429 743 422 721 q 445 783 436 765 q 463 800 454 800 l 467 800 q 483 778 476 793 q 494 753 490 763 q 515 698 500 736 q 545 617 529 660 q 576 537 561 575 q 596 483 590 499 l 596 467 q 592 451 596 457 q 572 444 588 444 l 353 444 q 338 452 340 444 q 336 467 336 460 m 514 924 q 537 906 526 924 q 546 874 547 888 l 542 774 q 530 793 535 774 q 522 836 525 813 q 516 882 518 860 q 514 910 514 904 l 514 924 z "},"B":{"ha":1001,"x_min":4,"x_max":976,"o":"m 436 986 q 306 976 369 979 q 175 969 242 972 q 115 972 144 971 q 51 972 85 972 l 36 972 q 17 970 29 972 q 4 965 4 968 l 4 961 q 61 951 31 957 q 119 937 92 946 q 169 913 147 928 q 203 874 192 897 q 206 854 204 868 q 210 824 208 840 q 214 794 213 808 q 215 774 215 779 q 217 760 217 771 q 219 740 218 750 l 224 708 q 221 671 226 688 q 215 647 215 654 l 215 628 q 215 597 215 618 q 214 551 214 576 l 214 468 q 213 426 214 444 q 213 400 213 408 q 211 385 213 397 q 208 358 210 372 q 204 330 206 343 q 203 313 203 317 l 203 147 q 185 78 201 104 q 143 37 169 51 q 81 17 117 22 q 6 13 46 13 l 6 0 l 54 0 l 132 0 l 169 0 l 199 0 l 233 0 l 251 8 q 256 19 256 11 q 257 33 257 28 q 254 139 257 92 q 251 242 251 186 l 251 271 l 240 303 l 240 326 q 250 353 247 344 q 253 364 253 361 q 252 368 253 367 q 251 375 251 369 q 247 387 251 379 q 253 394 243 394 q 263 393 260 394 q 271 385 267 392 q 273 359 271 381 q 275 329 275 338 q 274 256 275 293 q 276 180 274 218 q 284 103 278 142 q 306 29 290 65 q 324 6 313 14 q 360 0 336 -3 l 369 0 q 406 -4 388 -6 q 443 -10 425 -3 q 460 -7 451 -10 q 478 -4 469 -4 l 478 -6 q 485 -4 479 -4 q 493 -8 489 -4 q 513 -4 504 -15 q 525 -6 524 -4 q 593 -3 558 -3 q 661 -4 628 -4 q 747 11 710 0 q 810 35 783 22 q 853 62 836 49 q 878 82 869 75 q 897 98 881 85 q 928 122 914 111 q 932 132 928 125 q 941 147 936 139 q 951 160 946 154 q 957 168 956 167 q 972 217 968 188 q 976 271 976 247 q 969 310 976 286 q 953 343 963 333 q 946 348 950 343 q 938 358 942 353 q 932 369 935 364 q 929 372 929 374 q 934 356 929 371 q 943 328 939 340 q 949 314 947 315 q 950 303 949 313 q 952 288 951 294 q 953 279 953 281 q 951 276 951 278 q 950 274 951 275 q 938 299 946 288 q 926 325 931 311 q 919 338 926 335 q 911 392 914 364 q 889 432 908 419 q 872 442 885 435 q 860 449 860 449 q 874 424 865 435 q 876 393 883 413 q 880 383 876 393 q 881 372 883 372 q 870 391 876 375 q 856 425 864 407 q 836 458 847 443 q 810 472 825 472 q 800 473 807 472 q 785 474 793 474 q 769 476 776 475 q 761 479 763 478 q 735 485 754 479 q 701 494 715 492 q 786 533 754 511 q 829 565 818 556 q 849 586 833 569 q 879 614 864 603 q 883 624 879 617 q 892 638 888 631 q 901 652 897 646 q 907 660 906 658 q 922 709 918 679 q 926 763 926 739 q 919 801 926 778 q 904 835 913 825 q 897 840 901 835 q 890 850 893 844 q 883 860 886 856 q 881 864 881 865 q 885 847 881 863 q 894 819 890 832 q 900 806 899 807 q 901 795 900 804 q 903 779 903 786 q 904 771 904 772 q 896 753 901 763 q 881 744 890 744 q 877 753 872 744 q 879 768 882 761 q 877 787 878 778 q 876 807 876 796 q 871 869 876 839 q 840 915 865 900 q 824 925 836 918 q 813 932 813 932 q 826 907 817 918 q 828 876 835 896 q 831 866 828 876 q 832 856 835 856 q 822 874 828 858 q 807 908 815 890 q 788 941 799 926 q 761 956 776 956 q 751 956 758 956 q 737 958 744 957 q 722 960 729 958 q 714 963 715 961 q 699 965 710 963 q 678 971 689 968 q 657 976 667 974 q 644 979 647 979 q 634 980 643 979 q 611 982 625 981 q 590 983 597 983 q 569 985 588 983 q 536 983 551 986 q 533 985 535 985 q 531 986 532 985 q 527 987 528 986 q 524 988 526 988 l 469 988 q 458 985 463 986 q 453 985 454 985 l 443 985 q 436 986 442 986 m 508 471 l 546 472 q 567 468 556 464 q 616 465 592 464 q 664 464 640 467 l 668 464 q 730 443 699 454 q 790 408 761 432 q 846 331 835 376 q 857 236 857 286 q 839 160 857 194 q 790 99 821 126 q 720 53 760 72 q 638 24 681 35 l 496 24 q 461 28 476 21 q 438 29 450 28 q 414 35 425 31 q 398 38 406 36 q 383 43 390 39 q 364 61 375 49 q 352 74 356 65 q 349 92 349 82 q 347 102 347 97 q 346 114 346 107 q 344 120 344 118 q 343 122 343 122 q 341 152 343 131 q 337 197 339 174 q 333 240 335 219 q 331 269 331 261 l 331 313 q 331 336 331 317 q 332 378 332 356 q 333 418 332 400 q 333 436 333 436 q 334 445 333 442 q 335 453 335 449 q 352 467 342 461 q 372 474 363 474 l 431 474 l 431 471 l 508 471 m 351 524 l 343 528 q 333 614 335 569 q 331 701 331 658 l 331 788 q 333 828 331 803 q 335 867 335 853 q 338 883 336 874 q 340 903 339 893 q 349 910 347 906 q 357 920 350 919 q 367 928 364 921 q 379 935 376 928 l 392 939 l 393 939 q 403 940 396 940 q 415 942 413 940 q 421 945 418 944 q 426 949 424 946 l 443 953 l 446 953 q 449 954 447 953 q 454 956 453 954 l 599 956 q 669 933 631 944 q 742 892 708 921 q 799 815 788 860 q 810 719 810 769 q 770 610 810 657 q 671 535 731 563 q 667 533 668 533 q 664 531 667 532 q 658 527 661 528 q 653 525 656 526 l 649 525 q 636 519 638 525 q 596 514 621 514 q 557 521 581 514 q 542 517 550 517 l 404 517 q 393 518 394 517 l 389 518 q 368 519 382 518 q 351 524 354 521 m 265 919 q 267 934 265 926 q 282 944 269 942 l 285 944 q 308 911 308 929 q 308 901 308 908 q 306 888 307 894 q 303 874 306 881 q 297 867 301 868 q 290 872 294 867 q 282 885 286 878 q 274 897 278 892 q 271 904 271 903 q 268 910 271 904 q 265 919 265 915 m 861 160 l 888 117 q 884 116 889 115 q 870 115 879 117 q 850 109 861 114 q 829 92 839 104 q 839 108 833 97 q 850 131 844 119 q 858 151 856 143 q 861 160 861 160 m 814 643 l 825 622 q 821 611 821 618 q 808 596 811 603 q 782 575 797 590 q 792 592 786 581 q 803 615 797 603 q 811 635 808 626 q 814 643 814 643 z "},"D":{"ha":1001,"x_min":0,"x_max":974,"o":"m 99 -11 l 156 -1 l 197 -1 q 295 -2 246 -1 q 394 -3 344 -3 l 417 -3 q 471 1 440 -3 q 514 15 501 4 q 409 20 457 19 q 325 24 361 21 q 267 36 289 28 q 243 65 246 44 q 236 133 239 99 q 233 222 233 168 l 233 871 q 228 891 231 882 q 225 913 225 900 q 231 932 225 925 q 246 944 238 939 q 263 955 254 950 q 278 967 272 960 l 253 967 l 226 967 q 199 965 214 967 q 173 962 185 964 q 153 956 161 960 q 144 947 144 953 l 144 942 q 149 933 146 940 q 154 919 151 926 q 160 904 157 911 q 164 896 163 897 l 164 747 q 159 733 163 742 q 153 713 156 724 q 147 694 150 703 q 144 682 144 686 l 144 489 q 159 472 153 483 q 169 449 165 461 q 176 424 174 436 q 178 401 178 411 q 144 343 153 368 q 136 274 136 318 q 137 249 136 264 q 140 220 138 235 q 149 194 143 206 q 168 176 156 182 l 168 43 l 164 33 l 160 33 l 156 33 q 146 46 150 36 q 138 65 142 56 q 133 82 135 75 q 132 89 132 89 q 95 69 111 83 q 65 41 79 56 q 35 14 50 26 q 0 -1 19 1 l 65 -1 q 85 -5 72 -1 q 99 -11 99 -8 m 842 440 q 827 334 842 390 q 787 224 813 278 q 724 127 761 171 q 643 58 688 83 q 626 53 639 56 q 599 48 613 51 q 574 38 585 44 q 564 17 564 31 l 588 17 q 603 22 589 17 q 635 36 617 28 q 674 53 654 44 q 706 68 693 63 q 758 103 736 83 q 801 147 781 124 q 844 192 822 169 q 893 233 865 214 q 924 276 910 243 q 950 347 939 308 q 967 423 961 386 q 974 478 974 460 q 971 527 974 500 q 964 581 968 554 q 953 632 960 607 q 940 676 947 657 q 909 730 933 696 q 855 798 885 764 q 794 858 825 832 q 743 886 764 883 q 738 888 743 888 q 728 888 733 889 q 717 887 722 888 q 710 886 711 886 q 701 894 708 888 q 686 906 694 900 q 671 917 678 913 q 663 922 664 922 q 643 932 653 932 q 499 966 576 958 q 351 974 422 974 l 351 957 q 413 949 375 954 q 490 935 450 943 q 565 915 529 926 q 619 886 600 903 q 629 876 621 883 q 648 860 638 868 q 667 844 658 851 q 678 835 676 836 q 699 825 686 829 q 725 815 713 821 q 748 803 738 810 q 761 783 758 796 q 786 715 772 746 q 818 646 800 683 q 840 548 839 600 q 842 440 842 496 m 6 961 q 23 957 11 960 q 48 952 35 954 q 72 947 61 950 q 88 943 83 944 q 101 938 90 943 q 115 933 113 933 q 122 942 119 933 q 125 953 125 950 q 108 968 125 964 q 75 972 90 972 l 61 972 q 33 971 47 972 q 6 961 19 969 z "},"a":{"ha":1001,"x_min":3,"x_max":971,"o":"m 4 0 l 3 0 l 349 0 q 327 13 349 11 q 279 21 306 14 q 231 49 253 28 q 210 124 210 71 q 215 157 210 133 q 231 210 221 181 q 252 272 240 240 q 275 329 264 303 q 297 373 286 356 q 314 390 307 390 l 613 390 q 640 352 622 390 q 674 265 657 314 q 703 172 690 217 q 715 115 715 128 q 700 75 715 93 q 667 44 685 57 q 633 22 649 31 q 618 8 618 13 l 618 4 q 638 1 624 1 q 664 0 653 0 l 676 0 l 686 0 q 738 3 710 0 q 786 14 765 7 q 794 18 789 14 q 800 22 800 22 l 803 22 q 803 31 804 22 q 801 49 803 39 q 797 67 799 60 q 797 74 796 75 l 828 35 l 847 19 q 853 13 854 19 q 854 4 851 7 l 971 4 q 960 17 971 11 q 935 28 950 22 q 906 40 921 33 q 885 57 892 47 q 815 169 842 107 q 810 184 814 174 q 801 206 806 194 q 792 228 796 218 q 786 243 788 239 q 785 253 786 246 q 782 267 783 260 q 779 281 781 275 q 778 289 778 288 q 658 618 718 457 q 544 947 597 779 q 540 957 544 950 q 531 964 535 964 l 528 964 q 506 944 514 953 q 493 927 497 936 q 488 906 489 918 q 486 872 486 893 q 481 878 482 872 q 478 890 479 883 q 474 901 476 896 q 467 907 472 907 q 465 906 467 907 q 460 904 463 904 q 422 785 446 842 q 382 665 397 728 l 163 99 q 156 90 163 97 q 139 74 149 83 q 119 56 129 65 q 104 40 110 46 q 74 27 93 29 q 42 25 54 25 l 4 0 m 336 467 q 337 483 336 479 q 343 500 338 488 q 356 534 347 510 q 376 586 365 558 q 396 638 386 614 q 410 672 406 663 q 417 700 411 679 q 429 743 422 721 q 445 783 436 765 q 463 800 454 800 l 467 800 q 483 778 476 793 q 494 753 490 763 q 515 698 500 736 q 545 617 529 660 q 576 537 561 575 q 596 483 590 499 l 596 467 q 592 451 596 457 q 572 444 588 444 l 353 444 q 338 452 340 444 q 336 467 336 460 m 514 924 q 537 906 526 924 q 546 874 547 888 l 542 774 q 530 793 535 774 q 522 836 525 813 q 516 882 518 860 q 514 910 514 904 l 514 924 z "},"b":{"ha":1001,"x_min":4,"x_max":976,"o":"m 436 986 q 306 976 369 979 q 175 969 242 972 q 115 972 144 971 q 51 972 85 972 l 36 972 q 17 970 29 972 q 4 965 4 968 l 4 961 q 61 951 31 957 q 119 937 92 946 q 169 913 147 928 q 203 874 192 897 q 206 854 204 868 q 210 824 208 840 q 214 794 213 808 q 215 774 215 779 q 217 760 217 771 q 219 740 218 750 l 224 708 q 221 671 226 688 q 215 647 215 654 l 215 628 q 215 597 215 618 q 214 551 214 576 l 214 468 q 213 426 214 444 q 213 400 213 408 q 211 385 213 397 q 208 358 210 372 q 204 330 206 343 q 203 313 203 317 l 203 147 q 185 78 201 104 q 143 37 169 51 q 81 17 117 22 q 6 13 46 13 l 6 0 l 54 0 l 132 0 l 169 0 l 199 0 l 233 0 l 251 8 q 256 19 256 11 q 257 33 257 28 q 254 139 257 92 q 251 242 251 186 l 251 271 l 240 303 l 240 326 q 250 353 247 344 q 253 364 253 361 q 252 368 253 367 q 251 375 251 369 q 247 387 251 379 q 253 394 243 394 q 263 393 260 394 q 271 385 267 392 q 273 359 271 381 q 275 329 275 338 q 274 256 275 293 q 276 180 274 218 q 284 103 278 142 q 306 29 290 65 q 324 6 313 14 q 360 0 336 -3 l 369 0 q 406 -4 388 -6 q 443 -10 425 -3 q 460 -7 451 -10 q 478 -4 469 -4 l 478 -6 q 485 -4 479 -4 q 493 -8 489 -4 q 513 -4 504 -15 q 525 -6 524 -4 q 593 -3 558 -3 q 661 -4 628 -4 q 747 11 710 0 q 810 35 783 22 q 853 62 836 49 q 878 82 869 75 q 897 98 881 85 q 928 122 914 111 q 932 132 928 125 q 941 147 936 139 q 951 160 946 154 q 957 168 956 167 q 972 217 968 188 q 976 271 976 247 q 969 310 976 286 q 953 343 963 333 q 946 348 950 343 q 938 358 942 353 q 932 369 935 364 q 929 372 929 374 q 934 356 929 371 q 943 328 939 340 q 949 314 947 315 q 950 303 949 313 q 952 288 951 294 q 953 279 953 281 q 951 276 951 278 q 950 274 951 275 q 938 299 946 288 q 926 325 931 311 q 919 338 926 335 q 911 392 914 364 q 889 432 908 419 q 872 442 885 435 q 860 449 860 449 q 874 424 865 435 q 876 393 883 413 q 880 383 876 393 q 881 372 883 372 q 870 391 876 375 q 856 425 864 407 q 836 458 847 443 q 810 472 825 472 q 800 473 807 472 q 785 474 793 474 q 769 476 776 475 q 761 479 763 478 q 735 485 754 479 q 701 494 715 492 q 786 533 754 511 q 829 565 818 556 q 849 586 833 569 q 879 614 864 603 q 883 624 879 617 q 892 638 888 631 q 901 652 897 646 q 907 660 906 658 q 922 709 918 679 q 926 763 926 739 q 919 801 926 778 q 904 835 913 825 q 897 840 901 835 q 890 850 893 844 q 883 860 886 856 q 881 864 881 865 q 885 847 881 863 q 894 819 890 832 q 900 806 899 807 q 901 795 900 804 q 903 779 903 786 q 904 771 904 772 q 896 753 901 763 q 881 744 890 744 q 877 753 872 744 q 879 768 882 761 q 877 787 878 778 q 876 807 876 796 q 871 869 876 839 q 840 915 865 900 q 824 925 836 918 q 813 932 813 932 q 826 907 817 918 q 828 876 835 896 q 831 866 828 876 q 832 856 835 856 q 822 874 828 858 q 807 908 815 890 q 788 941 799 926 q 761 956 776 956 q 751 956 758 956 q 737 958 744 957 q 722 960 729 958 q 714 963 715 961 q 699 965 710 963 q 678 971 689 968 q 657 976 667 974 q 644 979 647 979 q 634 980 643 979 q 611 982 625 981 q 590 983 597 983 q 569 985 588 983 q 536 983 551 986 q 533 985 535 985 q 531 986 532 985 q 527 987 528 986 q 524 988 526 988 l 469 988 q 458 985 463 986 q 453 985 454 985 l 443 985 q 436 986 442 986 m 508 471 l 546 472 q 567 468 556 464 q 616 465 592 464 q 664 464 640 467 l 668 464 q 730 443 699 454 q 790 408 761 432 q 846 331 835 376 q 857 236 857 286 q 839 160 857 194 q 790 99 821 126 q 720 53 760 72 q 638 24 681 35 l 496 24 q 461 28 476 21 q 438 29 450 28 q 414 35 425 31 q 398 38 406 36 q 383 43 390 39 q 364 61 375 49 q 352 74 356 65 q 349 92 349 82 q 347 102 347 97 q 346 114 346 107 q 344 120 344 118 q 343 122 343 122 q 341 152 343 131 q 337 197 339 174 q 333 240 335 219 q 331 269 331 261 l 331 313 q 331 336 331 317 q 332 378 332 356 q 333 418 332 400 q 333 436 333 436 q 334 445 333 442 q 335 453 335 449 q 352 467 342 461 q 372 474 363 474 l 431 474 l 431 471 l 508 471 m 351 524 l 343 528 q 333 614 335 569 q 331 701 331 658 l 331 788 q 333 828 331 803 q 335 867 335 853 q 338 883 336 874 q 340 903 339 893 q 349 910 347 906 q 357 920 350 919 q 367 928 364 921 q 379 935 376 928 l 392 939 l 393 939 q 403 940 396 940 q 415 942 413 940 q 421 945 418 944 q 426 949 424 946 l 443 953 l 446 953 q 449 954 447 953 q 454 956 453 954 l 599 956 q 669 933 631 944 q 742 892 708 921 q 799 815 788 860 q 810 719 810 769 q 770 610 810 657 q 671 535 731 563 q 667 533 668 533 q 664 531 667 532 q 658 527 661 528 q 653 525 656 526 l 649 525 q 636 519 638 525 q 596 514 621 514 q 557 521 581 514 q 542 517 550 517 l 404 517 q 393 518 394 517 l 389 518 q 368 519 382 518 q 351 524 354 521 m 265 919 q 267 934 265 926 q 282 944 269 942 l 285 944 q 308 911 308 929 q 308 901 308 908 q 306 888 307 894 q 303 874 306 881 q 297 867 301 868 q 290 872 294 867 q 282 885 286 878 q 274 897 278 892 q 271 904 271 903 q 268 910 271 904 q 265 919 265 915 m 861 160 l 888 117 q 884 116 889 115 q 870 115 879 117 q 850 109 861 114 q 829 92 839 104 q 839 108 833 97 q 850 131 844 119 q 858 151 856 143 q 861 160 861 160 m 814 643 l 825 622 q 821 611 821 618 q 808 596 811 603 q 782 575 797 590 q 792 592 786 581 q 803 615 797 603 q 811 635 808 626 q 814 643 814 643 z "},"c":{"ha":832,"x_min":0,"x_max":794,"o":"m 743 131 q 735 114 732 118 q 742 108 738 110 q 748 103 747 106 q 735 90 749 100 q 708 78 725 85 q 681 64 692 71 q 633 47 657 50 q 581 44 610 43 q 563 45 576 44 q 535 47 550 46 q 508 49 521 47 q 489 51 494 50 q 444 62 469 58 q 403 74 419 65 q 386 82 396 78 q 367 90 376 86 q 350 95 357 93 q 342 97 343 97 l 221 167 q 217 174 221 171 q 215 179 217 174 q 213 185 214 185 q 203 200 211 190 q 185 221 194 210 q 166 242 175 232 q 154 256 157 251 q 144 285 151 274 q 129 308 136 296 q 122 357 125 328 q 116 417 118 386 q 113 477 114 449 q 113 524 113 506 q 118 582 113 554 q 132 639 124 610 q 135 653 132 642 q 139 668 139 665 q 192 770 153 728 q 282 851 231 813 q 317 863 301 858 q 349 874 333 867 q 368 879 358 879 q 390 883 379 879 q 399 885 392 883 q 415 890 407 888 q 431 895 424 893 q 440 899 438 897 l 474 899 q 531 897 507 899 q 577 891 556 896 q 620 878 599 886 q 669 856 642 869 q 674 851 669 856 q 683 842 678 847 q 694 834 689 838 q 700 831 699 831 q 713 832 700 828 q 728 836 725 836 q 735 816 729 833 q 747 778 740 799 q 761 741 754 758 q 772 719 768 724 l 772 744 q 772 776 772 758 q 771 810 771 793 q 772 839 771 826 q 775 856 772 851 q 769 870 775 861 q 756 889 763 879 q 746 907 750 899 q 746 919 742 915 l 715 935 q 708 942 715 936 q 693 951 700 947 q 685 956 686 956 q 665 958 678 958 q 646 960 653 957 q 627 960 643 961 q 607 960 611 960 q 576 965 589 963 q 552 970 564 968 q 528 974 540 972 q 499 975 515 975 q 432 974 467 975 q 363 971 397 974 q 294 960 328 968 q 235 939 261 953 q 204 914 215 928 q 175 893 193 900 q 169 892 172 893 q 167 892 167 892 q 151 874 156 883 q 138 858 146 864 q 110 839 121 847 q 90 822 99 831 q 75 801 82 813 q 58 774 68 790 q 31 708 42 744 q 15 632 21 671 q 8 554 10 593 q 6 482 6 515 q 3 433 6 463 q 1 371 1 403 q 4 310 0 339 q 21 264 8 281 q 31 255 21 261 q 40 246 40 249 q 46 229 44 240 q 49 206 47 218 q 53 186 50 194 q 64 178 56 178 l 68 178 q 76 184 69 181 q 85 188 82 188 l 90 182 q 96 147 90 167 q 117 118 101 128 q 126 115 122 114 q 133 111 129 117 q 201 54 156 75 q 299 22 246 33 q 407 8 353 11 q 503 4 461 4 q 601 5 565 3 q 660 11 636 7 q 703 20 683 15 q 754 29 722 25 q 771 42 763 29 q 785 72 779 56 q 791 103 790 89 q 783 119 792 118 q 792 140 789 121 q 794 181 794 158 q 789 222 793 203 q 776 242 785 240 q 776 231 776 240 q 774 210 775 221 q 773 191 774 200 q 772 182 772 182 l 743 131 m 178 124 q 173 122 178 119 q 162 127 168 124 q 148 135 156 131 q 135 139 140 139 q 135 148 135 140 q 138 165 136 156 q 146 174 140 174 l 149 174 q 159 165 149 174 q 171 154 169 157 l 178 124 m 47 513 q 48 528 47 518 q 58 538 49 538 q 61 529 58 535 q 68 517 64 524 q 75 506 72 511 q 78 499 78 500 q 74 492 78 499 q 66 478 71 486 q 57 464 61 471 q 53 456 53 457 q 49 475 50 458 q 47 503 47 492 l 47 513 m 171 826 q 176 840 171 829 q 189 861 182 850 q 203 881 196 872 q 215 890 211 890 q 214 879 215 888 q 210 862 213 871 q 207 845 208 853 q 206 836 206 838 q 202 828 206 836 q 195 813 199 821 q 189 797 192 804 q 186 789 186 790 q 176 808 182 792 q 171 826 171 824 z "},"d":{"ha":1001,"x_min":0,"x_max":974,"o":"m 99 -11 l 156 -1 l 197 -1 q 295 -2 246 -1 q 394 -3 344 -3 l 417 -3 q 471 1 440 -3 q 514 15 501 4 q 409 20 457 19 q 325 24 361 21 q 267 36 289 28 q 243 65 246 44 q 236 133 239 99 q 233 222 233 168 l 233 871 q 228 891 231 882 q 225 913 225 900 q 231 932 225 925 q 246 944 238 939 q 263 955 254 950 q 278 967 272 960 l 253 967 l 226 967 q 199 965 214 967 q 173 962 185 964 q 153 956 161 960 q 144 947 144 953 l 144 942 q 149 933 146 940 q 154 919 151 926 q 160 904 157 911 q 164 896 163 897 l 164 747 q 159 733 163 742 q 153 713 156 724 q 147 694 150 703 q 144 682 144 686 l 144 489 q 159 472 153 483 q 169 449 165 461 q 176 424 174 436 q 178 401 178 411 q 144 343 153 368 q 136 274 136 318 q 137 249 136 264 q 140 220 138 235 q 149 194 143 206 q 168 176 156 182 l 168 43 l 164 33 l 160 33 l 156 33 q 146 46 150 36 q 138 65 142 56 q 133 82 135 75 q 132 89 132 89 q 95 69 111 83 q 65 41 79 56 q 35 14 50 26 q 0 -1 19 1 l 65 -1 q 85 -5 72 -1 q 99 -11 99 -8 m 842 440 q 827 334 842 390 q 787 224 813 278 q 724 127 761 171 q 643 58 688 83 q 626 53 639 56 q 599 48 613 51 q 574 38 585 44 q 564 17 564 31 l 588 17 q 603 22 589 17 q 635 36 617 28 q 674 53 654 44 q 706 68 693 63 q 758 103 736 83 q 801 147 781 124 q 844 192 822 169 q 893 233 865 214 q 924 276 910 243 q 950 347 939 308 q 967 423 961 386 q 974 478 974 460 q 971 527 974 500 q 964 581 968 554 q 953 632 960 607 q 940 676 947 657 q 909 730 933 696 q 855 798 885 764 q 794 858 825 832 q 743 886 764 883 q 738 888 743 888 q 728 888 733 889 q 717 887 722 888 q 710 886 711 886 q 701 894 708 888 q 686 906 694 900 q 671 917 678 913 q 663 922 664 922 q 643 932 653 932 q 499 966 576 958 q 351 974 422 974 l 351 957 q 413 949 375 954 q 490 935 450 943 q 565 915 529 926 q 619 886 600 903 q 629 876 621 883 q 648 860 638 868 q 667 844 658 851 q 678 835 676 836 q 699 825 686 829 q 725 815 713 821 q 748 803 738 810 q 761 783 758 796 q 787 715 772 746 q 819 647 801 685 q 841 549 840 601 q 842 440 842 496 m 6 961 q 23 957 11 960 q 48 952 35 954 q 72 947 61 950 q 88 943 83 944 q 101 938 90 943 q 115 933 113 933 q 122 942 119 933 q 125 953 125 950 q 108 968 125 964 q 75 972 90 972 l 61 972 q 33 971 47 972 q 6 961 19 969 z "},"e":{"ha":1001,"x_min":0,"x_max":985,"o":"m 1 14 l 1 0 q 90 1 56 0 q 163 1 124 1 l 192 1 l 207 1 q 225 0 218 1 l 243 10 q 248 21 247 13 q 249 35 249 29 q 246 140 249 93 q 243 243 243 188 l 243 249 l 243 274 l 232 306 l 232 329 q 242 356 239 347 q 244 367 244 364 q 244 371 244 369 q 243 378 243 372 q 239 390 243 382 q 244 397 235 397 q 255 396 251 397 q 263 388 258 394 q 265 362 263 383 q 267 332 267 340 q 266 258 267 296 q 267 181 265 219 q 276 105 269 143 q 297 31 282 67 q 315 7 304 15 q 350 0 326 -1 l 525 0 q 753 5 639 0 q 985 7 867 10 q 956 20 964 10 q 949 49 949 31 q 959 127 949 89 q 969 206 969 165 l 969 240 q 940 186 954 217 q 908 131 925 156 q 846 72 885 93 q 762 40 807 50 q 668 27 717 29 q 575 25 619 25 l 481 25 q 430 39 453 33 q 388 53 407 44 q 356 78 369 63 q 333 124 342 94 q 331 153 333 132 q 327 199 329 175 q 323 243 325 222 q 321 272 321 264 l 321 294 l 321 315 q 322 342 321 322 q 323 385 322 363 q 324 427 324 407 q 325 456 325 447 q 342 470 332 464 q 363 476 353 476 l 635 476 q 643 473 635 476 q 654 469 651 469 q 710 446 693 456 q 733 424 726 436 q 747 397 740 413 q 772 357 753 382 l 781 364 l 781 636 q 758 608 760 626 q 750 576 757 589 q 721 550 743 561 q 672 533 699 539 q 618 524 644 526 q 575 521 592 521 l 475 521 l 379 521 q 358 522 372 521 q 342 526 344 524 l 333 531 q 322 660 322 593 q 321 792 321 728 q 323 832 321 807 q 325 871 325 857 q 331 912 328 888 q 333 940 333 936 l 354 965 l 350 969 q 268 971 306 969 q 194 973 231 972 q 122 975 158 974 q 46 976 86 976 l 32 976 q 13 974 25 976 q 0 969 0 972 l 0 965 q 56 956 26 961 q 113 941 86 950 q 163 917 140 932 q 196 878 185 901 q 199 858 197 872 q 203 828 201 844 q 207 798 206 813 q 208 778 208 783 q 210 764 210 775 q 213 743 211 753 l 217 711 q 214 674 219 690 q 208 650 208 657 l 208 631 q 208 584 208 617 q 207 514 207 551 q 206 447 207 478 q 206 403 206 415 q 204 388 206 400 q 201 360 203 375 q 197 333 199 346 q 196 315 196 319 l 196 149 q 178 79 194 106 q 137 38 163 53 q 76 19 111 24 q 1 14 40 14 m 789 947 q 810 933 801 947 q 848 863 832 901 q 875 792 864 824 q 885 799 882 793 q 889 814 888 806 q 890 831 890 822 q 889 846 889 839 l 889 867 q 856 886 864 871 q 847 918 849 901 q 843 949 844 935 q 831 965 842 963 q 762 974 794 971 q 697 976 729 976 l 564 976 l 422 976 q 415 974 422 976 q 407 969 407 972 l 407 965 q 408 961 407 963 q 410 960 410 960 l 647 960 q 703 942 672 944 q 763 940 735 940 q 774 944 769 940 q 789 947 778 947 m 257 924 q 259 939 257 931 q 275 950 261 947 q 300 915 300 935 q 299 906 300 913 q 298 892 299 899 q 295 878 297 885 q 289 871 293 872 q 282 876 286 871 q 274 889 278 882 q 266 901 269 896 q 263 908 263 907 q 260 914 263 908 q 257 924 257 919 m 900 988 q 884 974 892 979 q 868 972 876 969 q 875 932 871 942 q 886 922 879 922 l 896 922 q 900 942 899 922 q 901 975 901 961 q 900 988 901 986 z "},"f":{"ha":997,"x_min":0,"x_max":975,"o":"m 0 963 q 75 958 39 963 q 138 941 111 954 q 180 903 164 928 q 196 835 196 878 l 196 803 q 195 749 196 778 q 194 696 194 721 l 194 665 q 196 648 194 661 q 199 620 197 635 q 203 593 201 606 q 204 578 204 581 l 204 349 l 204 328 q 205 303 204 321 q 206 264 206 285 l 206 224 q 204 199 206 201 q 203 179 204 193 q 199 149 201 165 q 194 120 197 133 q 190 101 192 107 q 158 60 179 76 q 110 35 136 44 q 54 19 83 25 q 0 10 25 14 l 0 6 q 11 2 0 3 q 29 1 22 1 l 42 1 q 113 2 82 1 q 175 3 144 3 q 239 5 206 4 q 317 6 272 6 l 383 6 l 515 1 l 511 10 q 482 18 511 11 q 417 37 453 25 q 352 66 382 49 q 321 107 322 83 q 318 144 319 119 q 317 185 317 168 q 317 319 317 251 q 331 450 318 386 l 339 454 q 355 457 342 456 q 375 458 368 458 l 393 458 q 423 458 407 458 q 451 457 439 457 l 469 457 l 568 457 q 612 454 583 457 q 669 444 640 451 q 722 426 699 438 q 753 399 746 415 q 758 383 757 392 q 760 367 758 375 q 767 351 763 358 q 783 338 772 343 l 785 614 l 776 621 q 751 580 757 596 q 737 552 744 564 q 713 531 729 540 q 658 507 697 521 q 641 502 656 507 q 626 497 626 497 l 358 501 q 335 508 342 501 q 322 524 329 514 l 322 550 q 322 593 322 571 q 321 635 321 615 l 321 664 l 321 685 l 321 710 q 322 738 321 717 q 326 782 324 758 q 330 827 328 806 q 332 857 332 849 q 354 901 340 886 q 387 925 368 917 q 428 940 406 933 q 479 957 451 946 l 497 957 l 525 957 q 553 956 540 957 q 572 956 567 956 q 665 953 615 956 q 763 939 715 950 q 851 906 811 928 q 913 846 890 883 q 944 789 929 819 q 974 735 958 758 l 974 768 q 963 848 974 810 q 956 925 953 886 l 956 958 q 975 975 956 972 q 940 975 958 974 q 907 968 922 976 q 874 951 885 956 q 858 948 863 946 q 852 957 853 950 q 850 975 851 964 q 685 977 767 975 q 524 981 604 979 l 488 981 q 435 981 463 981 q 383 982 407 982 l 350 982 q 306 982 328 988 q 281 961 283 976 l 294 864 q 276 878 285 885 q 262 854 268 871 q 252 821 256 838 q 247 806 249 804 q 248 838 246 808 q 256 944 250 868 q 253 961 256 951 q 246 972 250 971 l 228 983 q 179 981 200 982 q 140 978 158 979 q 101 978 121 978 q 61 978 83 978 l 0 978 l 0 963 m 251 51 q 253 74 251 57 q 254 90 254 90 q 258 115 254 92 q 265 167 261 139 q 274 217 269 194 q 281 240 278 240 q 280 211 283 239 q 275 151 276 183 q 279 92 274 119 q 306 63 285 64 q 311 55 313 63 q 310 46 310 47 q 300 47 310 46 q 264 42 290 47 q 254 43 260 43 l 251 43 l 251 51 z "},"g":{"ha":1001,"x_min":3,"x_max":985,"o":"m 475 969 q 477 969 476 969 q 481 968 478 968 l 482 971 l 510 971 l 514 971 q 516 972 513 971 q 526 974 519 972 l 586 974 l 625 974 q 665 974 643 974 q 728 975 686 975 q 796 966 758 967 q 867 957 833 965 q 923 924 900 949 q 946 844 946 900 l 946 813 l 946 779 q 934 797 938 792 q 928 808 931 803 q 921 819 925 813 q 908 839 917 826 q 847 899 886 876 q 759 932 807 921 q 661 946 711 943 q 568 949 611 949 q 549 949 563 949 q 521 950 536 950 l 521 949 q 519 946 519 947 q 515 943 518 944 q 443 932 468 950 q 425 921 432 928 q 386 897 397 918 q 361 861 365 886 q 353 843 354 853 q 343 826 347 835 q 338 807 339 817 q 328 789 332 799 q 326 769 325 779 l 326 758 q 325 757 326 757 l 325 678 q 326 648 325 658 q 328 618 326 638 q 331 581 329 599 q 335 546 332 564 q 333 542 333 544 q 329 458 322 500 l 329 457 q 328 449 329 453 q 328 440 328 446 q 327 422 328 440 q 326 382 326 404 q 326 340 326 360 q 325 317 325 321 l 325 274 q 327 244 325 265 q 331 200 329 224 q 335 155 333 176 q 338 125 338 133 q 338 123 338 125 q 340 117 339 121 q 341 105 340 110 q 343 94 342 100 q 347 76 343 85 q 358 64 350 68 q 378 46 367 54 q 392 40 385 42 q 407 38 400 39 q 431 32 418 33 q 454 31 443 31 q 489 26 469 24 l 628 26 q 710 56 671 38 q 778 102 749 75 q 826 163 808 129 q 844 239 844 197 l 844 265 q 844 278 844 272 q 842 292 843 285 q 847 316 846 308 q 839 339 847 324 q 838 358 838 349 q 828 372 839 368 q 823 408 825 390 q 803 438 821 426 q 796 447 799 443 q 790 453 793 450 q 783 463 788 458 q 776 471 779 467 l 768 471 l 768 468 q 765 470 765 469 q 761 472 764 471 q 741 482 750 476 q 721 488 732 488 q 711 490 714 488 l 683 490 q 661 503 669 492 l 653 503 q 655 514 651 508 q 665 519 658 519 l 678 519 q 724 522 701 521 q 772 525 747 524 l 781 525 q 777 522 778 524 q 774 519 776 521 q 800 522 788 521 q 825 522 813 522 l 876 522 q 895 527 886 525 q 914 532 904 529 q 940 528 926 533 q 965 525 954 522 q 985 517 978 525 q 973 509 978 514 q 963 499 968 504 q 958 494 960 496 q 953 490 956 493 l 950 490 q 921 478 926 490 q 931 454 915 465 q 933 451 932 453 q 936 449 933 450 q 944 421 938 436 q 947 406 946 414 q 951 392 949 399 l 951 388 l 954 383 l 954 381 q 952 356 953 369 q 960 335 951 343 q 958 329 958 333 q 957 324 958 325 q 960 297 960 306 q 961 269 961 288 q 956 257 958 263 q 951 244 954 251 q 917 123 953 178 q 829 33 882 68 q 825 30 826 31 q 822 26 824 29 q 772 17 796 24 q 724 0 747 11 q 714 6 715 3 q 651 0 686 0 q 583 0 618 0 q 517 -1 550 0 q 504 0 515 0 q 486 -4 499 -10 q 478 0 482 0 q 471 -1 472 0 l 471 0 q 453 -3 463 0 q 436 -6 444 -6 q 400 -1 418 0 q 364 1 382 -1 l 354 1 q 319 8 331 0 q 301 32 308 17 q 280 106 286 68 q 272 183 274 144 q 270 259 269 221 q 271 333 271 297 q 269 363 271 342 q 267 389 267 385 q 259 397 263 396 q 249 399 256 399 q 243 391 239 399 q 247 379 247 383 q 248 372 247 374 q 249 368 249 371 q 246 357 249 365 q 236 331 243 349 l 236 307 l 247 275 l 247 244 q 250 142 247 189 q 253 36 253 94 q 252 22 253 31 q 247 11 251 14 l 229 1 q 211 3 225 3 l 196 3 l 167 3 q 94 2 128 3 q 6 1 60 1 l 6 15 q 80 20 44 15 q 141 40 115 25 q 183 81 167 54 q 200 150 199 107 l 200 317 q 201 334 200 321 q 205 362 203 347 q 208 389 207 376 q 210 404 210 401 q 210 431 210 413 q 211 472 211 449 l 211 556 q 212 601 211 581 q 213 632 213 622 l 213 651 q 218 665 213 658 q 221 693 224 672 l 217 725 q 215 746 215 735 q 213 760 214 757 q 211 780 213 765 q 208 810 210 794 q 203 840 206 826 q 200 860 201 854 q 167 900 189 883 q 117 928 144 917 q 59 947 89 940 q 3 958 29 954 l 3 963 q 15 967 3 965 q 35 969 28 969 l 49 969 q 112 969 82 969 q 171 967 142 968 q 290 967 231 969 q 408 969 349 965 q 425 968 410 968 q 450 967 438 967 q 475 969 463 968 m 260 917 q 263 907 260 913 q 265 901 265 901 q 263 876 265 900 q 259 824 261 853 q 256 772 257 796 q 257 749 254 749 q 269 774 261 750 q 284 828 276 799 q 297 881 292 857 q 303 908 303 906 q 279 942 303 926 l 276 942 q 262 931 264 939 q 260 917 260 924 m 871 376 l 863 381 q 866 399 864 385 q 869 428 868 413 q 872 458 871 444 q 871 475 872 472 q 863 468 868 476 q 853 449 858 460 q 844 428 849 438 q 838 421 840 419 q 846 397 843 411 q 851 370 849 383 q 854 347 853 357 q 858 336 856 338 q 863 347 860 336 q 869 366 867 357 q 871 376 871 375 m 913 315 q 909 287 910 293 q 906 272 908 281 l 922 231 q 924 242 924 231 q 923 266 924 253 q 922 289 922 279 l 922 299 q 933 339 933 319 q 929 381 932 358 q 921 369 926 381 q 913 360 915 358 l 913 315 m 849 163 q 846 154 849 163 q 838 134 843 146 q 826 111 832 122 q 817 94 821 100 q 841 115 829 111 q 861 118 853 118 q 865 124 864 121 q 868 129 865 126 l 849 163 z "},"h":{"ha":1001,"x_min":-19,"x_max":972,"o":"m -19 0 l 292 3 l 300 13 q 294 19 297 15 q 292 22 292 22 q 271 25 288 22 q 250 32 254 28 q 239 40 247 33 q 222 56 231 47 q 206 72 214 64 q 197 82 199 79 q 176 81 182 75 q 168 104 171 88 q 163 156 165 135 q 160 194 161 178 q 160 225 160 211 q 160 254 160 239 q 160 276 160 264 q 158 306 160 290 q 166 289 165 306 q 174 258 167 272 l 182 164 l 193 158 l 190 300 l 193 456 l 213 479 q 231 481 214 479 q 269 485 247 483 q 313 490 290 488 q 349 492 336 492 q 529 491 432 492 q 714 490 626 490 q 746 475 729 490 q 763 440 763 460 l 763 436 q 757 369 760 417 q 751 269 754 322 q 746 169 749 217 q 742 104 743 122 q 722 72 738 89 q 688 39 706 54 q 656 12 669 24 q 642 -6 642 0 l 956 0 q 903 35 924 17 q 869 77 882 54 q 849 130 856 100 q 838 199 842 160 q 847 224 846 213 q 845 247 847 236 q 840 269 843 258 q 838 292 838 281 l 838 446 l 826 515 l 838 599 l 851 689 q 850 760 851 725 q 852 826 849 794 q 867 887 856 858 q 901 939 878 915 q 936 950 921 950 q 972 964 958 950 q 947 974 957 972 q 919 975 936 975 q 774 968 844 975 q 628 964 703 961 q 677 949 654 957 q 717 928 700 942 q 747 894 735 915 q 763 838 758 872 l 763 718 l 763 592 q 757 554 763 579 q 735 521 751 529 q 569 517 643 518 q 417 517 496 517 l 308 517 l 218 517 l 197 542 l 197 632 q 197 759 197 699 q 206 883 196 819 q 235 918 214 903 q 278 944 257 933 q 317 960 300 954 q 335 969 335 967 q 169 974 251 969 q 8 971 88 978 q 83 913 60 954 q 112 820 106 872 q 115 711 118 768 q 113 607 113 654 l 113 425 q 105 406 108 422 q 101 385 101 389 q 107 370 101 382 q 113 356 113 358 l 113 340 l 113 319 q 108 272 110 307 q 104 198 106 238 q 102 123 103 158 q 101 72 101 88 q 82 53 99 65 q 44 30 65 42 q 5 9 24 18 q -19 0 -14 0 z "},"i":{"ha":607,"x_min":8,"x_max":585,"o":"m 244 131 q 237 148 244 142 q 229 165 229 154 q 242 475 229 321 q 254 785 254 629 q 249 849 254 817 q 232 911 244 881 q 210 919 224 922 q 182 921 196 917 q 172 923 179 921 q 157 928 165 925 q 142 934 149 932 q 133 936 135 936 q 87 944 113 942 q 44 957 61 946 l 51 960 l 94 960 q 208 958 153 960 q 322 956 264 956 l 335 956 q 343 957 343 956 q 359 960 344 957 q 374 964 374 964 q 460 969 415 968 q 546 969 504 969 q 567 968 556 969 q 585 960 578 967 q 581 958 582 960 q 579 957 579 957 q 562 954 576 956 q 546 953 547 953 q 529 949 542 951 q 502 943 517 946 q 475 938 488 940 q 460 936 463 936 l 453 936 q 441 939 446 936 q 429 942 436 942 l 426 942 q 419 936 426 936 q 383 881 400 908 q 364 822 367 854 q 363 805 364 818 q 361 775 363 792 q 359 742 360 758 q 358 717 358 725 q 360 695 358 710 q 356 672 363 681 q 349 453 351 564 q 350 233 346 343 q 343 203 343 215 l 343 171 l 343 133 q 349 123 344 131 q 356 113 353 115 q 409 52 369 76 q 499 21 449 28 l 506 21 q 519 20 513 21 q 532 19 526 19 l 542 19 q 551 17 544 19 q 558 14 557 14 l 558 13 q 549 3 558 6 q 526 1 539 1 q 504 2 515 1 q 490 3 493 3 q 442 4 467 3 q 397 6 417 6 q 383 10 386 7 q 374 14 381 14 q 356 10 363 14 q 338 6 349 6 q 322 15 328 6 q 300 24 317 24 q 270 15 283 24 q 229 6 257 6 q 220 8 226 6 q 211 10 214 10 q 109 6 160 10 q 8 3 58 3 q 34 13 8 7 q 94 27 60 18 q 161 51 128 36 q 210 92 194 67 q 213 104 210 94 q 225 117 217 114 q 240 122 235 122 q 244 131 244 122 m 254 92 l 254 86 q 265 62 263 69 q 272 36 267 54 q 279 30 272 29 q 288 31 286 31 l 300 31 q 305 34 301 31 q 308 38 308 38 q 304 45 308 40 q 300 51 300 50 q 298 76 300 57 q 296 100 296 94 q 293 114 294 104 q 290 135 292 124 q 285 154 288 146 q 279 163 283 163 q 272 153 276 163 q 264 131 268 143 q 257 107 260 118 q 254 92 254 96 z "},"j":{"ha":754,"x_min":0,"x_max":719,"o":"m 710 965 q 659 953 679 960 q 624 938 639 947 q 595 913 608 928 q 565 874 582 897 q 561 851 564 867 q 556 819 558 836 q 553 788 554 803 q 551 768 551 774 q 550 749 550 767 l 550 718 q 551 688 550 701 q 551 669 551 674 q 549 626 550 658 q 546 551 547 594 q 542 460 544 508 q 540 369 540 413 q 538 294 539 326 q 538 251 538 263 q 540 187 538 226 q 543 113 543 147 q 542 91 543 101 q 540 72 542 81 l 529 36 q 514 17 525 24 q 492 6 503 10 q 472 2 481 3 q 461 1 463 1 q 450 1 458 1 q 432 0 442 0 l 417 0 q 408 1 410 0 l 433 19 l 436 31 q 452 98 446 74 q 461 135 458 122 q 464 150 464 147 q 463 153 464 153 q 458 158 461 153 q 453 181 456 164 q 448 228 450 197 q 446 311 446 260 l 446 442 l 443 458 q 460 485 460 464 q 444 540 460 513 q 445 544 444 543 q 446 547 446 544 q 447 574 446 556 q 449 614 447 593 q 451 653 450 635 q 451 679 451 672 l 451 825 q 436 861 440 840 q 421 897 432 882 q 347 944 389 929 q 261 965 306 960 l 258 976 l 410 976 q 462 973 438 976 q 514 969 486 969 q 615 974 567 969 q 719 979 664 979 q 710 965 719 971 m 40 410 l 106 397 q 119 392 118 406 q 119 354 121 378 q 114 302 117 331 q 115 251 111 274 q 149 163 126 200 q 217 93 172 125 q 274 62 246 64 q 333 57 301 60 l 356 57 q 395 76 375 57 q 433 151 415 94 q 438 133 432 142 q 443 110 443 125 q 440 69 443 89 q 431 33 438 49 q 413 10 425 18 q 383 6 401 1 q 372 8 383 3 q 360 13 360 13 q 356 8 360 10 q 353 6 353 6 q 351 0 343 0 l 356 0 q 340 0 350 0 q 321 -1 331 0 q 305 -2 311 -1 q 299 -3 299 -3 q 285 -2 296 -3 q 263 -1 275 -1 q 240 -1 250 -1 q 225 0 229 0 q 217 2 224 0 q 204 6 211 4 q 191 10 197 8 q 183 13 185 13 q 177 24 183 13 q 162 53 171 36 q 141 89 153 69 q 118 125 129 108 q 119 115 115 125 q 122 104 122 104 q 126 67 115 85 q 142 35 138 49 q 138 39 142 35 q 128 49 133 43 q 117 59 122 54 q 110 65 113 64 q 60 126 76 85 q 38 203 43 167 q 42 198 36 207 q 54 184 47 189 q 66 186 61 179 q 69 228 71 193 q 42 220 54 228 q 29 201 29 213 l 29 197 q 33 185 29 194 q 36 174 36 176 q 42 160 38 172 q 51 132 46 147 q 56 115 56 117 q 53 119 56 114 q 47 129 50 124 q 39 140 43 135 q 32 144 35 144 q 17 178 24 154 q 10 217 10 201 q 5 253 10 240 q 11 285 0 265 q 12 302 14 288 q 10 328 10 317 l 10 339 q 18 360 22 350 q 17 372 14 369 q 20 380 22 376 q 14 388 18 383 q 5 401 10 393 q 0 422 0 410 l 40 410 m 531 874 q 530 908 531 889 q 517 940 529 928 q 504 915 510 928 q 499 886 499 903 q 504 871 499 883 q 510 853 510 858 q 512 851 510 853 q 517 850 514 850 l 521 844 q 531 856 531 844 l 531 874 m 503 374 q 510 345 504 342 q 517 372 515 349 q 513 431 518 396 q 488 496 507 467 q 486 486 486 494 l 486 468 q 492 449 486 458 q 499 440 497 440 l 503 374 m 36 344 l 69 297 q 81 299 74 296 q 94 333 89 301 q 94 350 97 349 q 85 347 90 351 q 74 337 79 343 q 69 329 69 331 l 36 344 z "},"k":{"ha":1006,"x_min":-6,"x_max":969,"o":"m 178 1 q 198 8 182 1 q 217 14 214 14 l 226 14 q 251 8 242 14 q 285 1 261 1 q 309 4 299 1 q 331 7 319 7 l 335 7 q 408 -1 369 -1 q 415 -1 411 -1 q 419 4 419 0 l 419 7 q 417 8 418 7 q 415 10 415 10 q 329 37 361 22 q 281 76 297 51 q 260 138 265 100 q 256 236 256 176 q 255 488 256 363 q 254 739 254 613 l 254 746 q 253 753 254 747 q 251 767 253 760 q 249 782 250 775 q 249 792 249 789 q 250 814 249 800 q 253 842 251 828 q 257 871 256 857 q 258 893 258 885 q 286 922 264 910 q 333 944 308 935 q 376 960 357 953 q 396 974 396 967 q 321 973 357 974 q 249 972 285 972 q 238 974 242 972 q 226 976 233 976 q 209 974 218 976 q 192 972 200 972 q 167 974 179 972 q 143 976 156 976 l 136 976 q 128 974 135 976 q 115 972 121 972 l 13 972 q 10 963 13 968 q 11 956 7 957 q 78 944 47 953 q 143 917 110 936 l 151 910 q 158 906 154 907 q 161 906 161 906 q 169 918 167 906 q 178 933 172 931 l 181 933 q 196 917 196 933 q 188 893 196 903 q 169 872 181 883 l 169 851 l 169 817 q 170 765 169 793 q 171 713 171 738 l 171 679 q 167 516 171 596 q 164 356 164 436 l 164 308 q 167 297 167 300 q 168 286 168 293 l 168 279 q 167 265 168 276 q 165 240 165 253 q 163 215 164 226 q 161 201 161 203 q 153 126 157 156 q 136 76 149 96 q 99 42 124 56 q 31 14 75 28 q 21 13 29 14 q 10 10 13 13 q -1 3 0 7 q -6 -1 -3 0 q 4 -4 8 -4 l 22 4 l 46 0 q 113 1 79 1 q 178 1 146 0 m 696 151 l 692 142 l 692 75 q 683 80 688 75 q 672 92 678 85 q 663 106 667 99 q 660 117 660 113 q 669 141 660 129 q 679 168 679 153 q 662 200 679 189 q 633 225 644 211 q 529 355 581 288 q 419 481 478 422 q 402 509 413 497 q 392 540 392 521 q 392 553 392 547 q 396 564 393 558 l 563 757 q 591 788 576 776 q 621 815 606 800 q 635 830 625 819 q 656 852 644 840 q 676 874 667 864 q 690 889 686 885 q 699 905 692 892 q 708 922 706 918 l 711 926 l 715 926 q 721 924 719 926 q 728 922 722 922 q 750 928 740 922 q 768 941 760 933 q 783 954 776 949 q 794 960 790 960 l 803 960 q 838 972 815 972 l 843 972 q 844 975 843 974 q 844 979 844 976 l 813 979 q 804 980 810 979 q 792 982 799 981 q 756 974 776 975 q 725 976 735 974 q 717 973 719 974 q 708 972 715 972 l 706 972 q 692 976 703 972 q 681 982 682 979 q 673 979 679 982 q 665 976 667 976 l 547 976 l 547 972 q 597 947 576 961 q 618 901 618 933 q 613 881 618 894 q 601 855 608 868 q 585 829 593 842 q 572 811 578 817 q 567 802 572 808 q 555 788 561 796 q 543 775 549 781 q 536 768 538 769 q 531 756 535 765 q 526 746 526 747 q 519 733 525 742 q 511 724 513 725 q 499 710 508 721 q 477 688 489 700 q 456 665 465 675 q 444 651 446 654 q 441 644 443 650 q 438 639 439 639 q 428 628 435 636 q 413 610 421 619 q 399 594 406 601 q 390 585 392 586 q 385 577 388 582 q 381 571 383 572 q 371 558 378 567 q 356 541 364 550 q 341 523 349 532 q 331 510 333 514 q 317 494 325 504 q 310 472 310 483 l 310 460 q 353 412 335 436 q 392 360 371 388 q 430 317 411 340 q 468 271 449 294 q 481 262 475 264 q 493 254 486 260 q 509 222 500 240 q 528 192 518 203 q 540 185 531 192 q 553 176 550 178 q 576 144 567 165 q 603 113 586 122 l 624 113 q 631 99 631 113 q 635 82 632 86 q 660 58 646 67 q 690 42 675 50 q 745 20 721 29 q 794 6 769 11 q 844 -1 818 1 q 904 -4 871 -4 q 940 1 925 -4 q 969 10 956 6 q 961 15 967 13 l 925 15 q 910 17 918 15 q 897 22 903 18 q 875 26 883 22 q 835 45 853 32 q 794 69 817 58 q 792 58 792 67 q 790 36 792 47 q 781 25 789 25 l 776 25 q 768 81 775 58 q 740 122 761 103 q 718 135 729 133 q 696 151 707 136 m 178 36 l 178 64 q 181 90 179 74 q 183 120 182 106 q 185 146 185 135 q 186 157 186 157 l 206 179 l 213 179 q 213 158 213 174 q 215 123 214 142 q 216 88 215 104 q 217 64 217 71 l 217 61 q 210 41 217 53 q 194 29 203 29 l 186 29 q 178 36 181 29 m 206 214 q 213 222 206 222 l 213 203 q 206 214 206 203 z "},"l":{"ha":957,"x_min":1,"x_max":929,"o":"m 383 3 q 356 10 356 10 q 340 3 343 10 l 113 3 q 54 0 89 0 q 1 0 21 0 l 1 3 q 18 8 6 4 q 45 15 31 11 q 73 22 60 18 q 92 26 86 25 q 139 54 119 35 q 181 94 158 74 q 185 110 181 97 q 189 125 189 122 q 195 138 189 128 q 201 151 201 149 q 211 207 213 181 q 225 261 210 233 l 225 264 q 217 279 225 275 q 208 292 208 283 q 213 303 208 299 q 217 313 217 308 l 217 318 q 210 324 217 321 q 201 328 204 328 l 201 564 q 215 649 213 604 q 217 732 217 693 q 214 755 217 736 q 208 782 211 774 q 207 794 207 786 l 207 808 q 204 853 207 831 q 189 888 201 875 q 181 894 188 889 q 167 908 175 900 q 151 922 158 915 q 139 931 143 928 q 113 941 133 936 q 69 949 92 946 q 28 956 46 953 q 10 963 10 960 q 16 969 10 968 q 25 969 22 969 l 42 969 q 76 967 53 968 q 122 964 99 965 q 166 962 146 963 q 192 961 186 961 q 214 944 207 953 q 224 926 221 935 q 227 913 226 918 q 232 908 228 908 q 238 919 236 908 q 240 932 240 929 q 249 950 240 939 q 269 959 254 956 q 301 965 283 963 q 339 967 319 967 q 375 968 358 968 l 396 968 q 411 969 410 968 q 420 970 413 969 q 438 972 428 971 q 456 973 447 972 q 467 974 464 974 q 492 972 475 974 q 508 969 508 969 l 508 963 l 367 931 l 318 886 l 313 853 q 315 842 313 846 q 319 831 317 838 l 319 722 l 319 613 l 319 567 q 319 478 319 531 q 317 376 318 426 q 315 283 317 325 q 313 225 314 242 q 309 205 310 213 q 308 185 308 197 q 310 151 308 175 q 318 103 313 128 q 333 58 324 78 q 356 35 342 38 q 374 33 358 32 q 392 35 389 35 q 407 33 394 35 q 435 31 419 32 q 463 28 450 29 q 478 26 475 26 l 547 24 l 658 24 q 781 72 721 35 q 874 160 842 108 q 898 200 886 179 q 929 233 910 221 l 929 208 q 910 160 919 186 q 895 106 901 133 q 885 51 889 78 q 881 0 881 24 q 805 4 840 8 q 731 0 769 0 l 383 3 m 236 158 l 228 31 l 253 35 l 260 201 l 236 158 z "},"m":{"ha":1214,"x_min":4,"x_max":1182,"o":"m 1182 0 q 1165 2 1182 0 q 1127 6 1149 4 q 1083 8 1106 7 q 1051 10 1061 10 l 999 10 q 992 22 992 13 l 992 47 q 989 72 992 61 q 974 82 986 82 l 971 82 q 963 75 963 82 l 963 15 q 947 14 963 15 q 910 10 932 13 q 867 6 889 8 q 831 3 844 4 l 817 3 q 799 3 806 3 q 781 10 793 4 q 813 24 796 21 q 849 33 831 28 q 885 49 867 39 q 922 85 904 60 q 924 72 925 78 q 931 65 924 65 q 938 66 933 65 q 943 72 943 67 q 956 128 946 106 q 967 181 967 151 q 966 193 967 183 q 965 206 965 203 q 949 218 961 218 q 944 210 946 218 q 940 192 942 201 q 935 174 938 182 q 931 164 933 165 q 920 274 925 213 q 913 401 915 336 q 909 528 910 465 q 911 640 908 590 q 907 656 908 644 q 906 671 906 668 q 905 694 906 676 q 903 733 904 713 q 901 773 901 754 q 900 799 900 792 q 897 810 903 808 q 886 811 892 811 l 878 811 q 871 793 878 807 q 861 776 864 779 q 853 763 861 774 q 846 751 846 751 q 812 654 826 703 q 769 561 797 606 l 657 292 q 649 264 654 282 q 636 229 643 246 q 620 201 629 213 q 601 194 611 190 q 594 149 600 179 q 578 90 588 119 q 559 38 569 60 q 539 15 549 15 l 532 15 q 523 58 529 32 q 511 100 517 85 q 485 153 501 128 q 468 206 468 179 l 382 401 l 382 425 q 367 459 378 435 q 346 511 357 483 q 324 563 335 539 q 310 596 314 588 q 296 635 306 608 q 274 690 286 663 q 250 740 263 718 q 229 761 238 761 q 220 756 224 761 q 215 743 217 750 q 213 729 214 736 q 210 719 211 722 l 182 383 l 182 358 q 176 256 178 299 q 174 158 174 213 q 217 40 174 81 q 324 -12 260 0 l 324 -19 q 263 -24 289 -25 q 203 -24 238 -24 l 143 -24 q 131 -18 140 -24 q 118 -12 121 -12 l 114 -12 q 94 -18 103 -12 q 75 -24 85 -24 l 4 -24 l 4 -12 q 17 -6 8 -11 q 37 4 26 -1 q 56 15 47 10 q 69 22 65 19 q 83 33 79 28 q 88 43 86 38 q 91 56 89 49 q 100 72 93 63 q 109 74 103 72 q 118 75 115 75 q 120 80 118 78 q 122 82 122 82 q 124 154 121 117 q 134 231 128 192 q 147 306 140 269 q 158 376 154 343 q 172 549 165 461 q 189 719 178 636 q 192 733 190 722 q 197 758 194 744 q 203 783 200 771 q 207 799 206 794 l 207 831 l 207 865 q 156 931 190 915 q 76 950 121 947 l 71 957 l 101 957 q 123 958 107 957 q 157 960 139 960 q 190 963 175 961 q 210 964 206 964 l 214 964 l 217 964 q 228 951 219 961 q 239 940 236 940 q 249 936 240 940 q 261 932 258 932 q 265 926 265 932 l 265 865 q 276 844 271 858 q 285 817 281 831 q 295 793 289 803 q 313 783 301 783 q 311 797 313 786 q 310 811 310 808 q 306 822 308 814 q 301 838 303 829 q 297 855 299 847 q 294 865 294 863 q 293 874 293 867 l 293 888 q 294 902 293 896 q 294 910 294 908 q 287 921 292 913 q 282 932 282 929 l 282 938 l 282 940 q 289 953 282 943 q 301 964 296 964 l 303 964 l 310 957 q 358 741 315 849 q 447 538 400 633 q 506 382 478 463 q 571 231 533 301 q 580 217 572 221 q 594 213 588 213 q 603 214 597 213 q 608 218 608 215 q 626 283 614 251 q 651 344 638 314 q 678 403 664 374 q 704 464 693 433 q 723 508 710 478 q 752 577 736 539 q 786 658 768 615 q 820 739 804 700 q 849 808 836 778 q 868 853 861 839 q 876 861 871 860 q 887 864 882 863 q 896 867 892 865 q 900 878 900 869 q 890 889 900 883 q 878 897 881 894 l 878 901 q 890 910 882 908 q 897 919 897 913 l 897 922 q 885 933 894 922 q 875 947 875 944 q 875 954 872 947 q 878 961 878 961 q 893 963 888 961 q 906 957 899 964 q 928 822 929 903 q 922 646 928 742 q 930 638 925 642 q 940 632 935 635 q 943 644 943 646 l 943 656 l 943 724 q 945 746 943 729 q 947 763 947 763 q 945 789 947 774 q 943 804 943 804 l 956 818 l 956 846 q 951 897 956 875 q 940 947 947 919 l 938 950 q 943 964 938 963 q 958 965 947 964 q 980 968 968 967 q 1001 971 992 969 q 1014 972 1011 972 q 1035 972 1019 972 q 1069 969 1051 971 q 1102 967 1086 968 q 1124 967 1118 967 l 1124 964 q 1117 961 1124 964 q 1101 954 1110 958 q 1082 946 1092 950 q 1064 940 1072 942 q 1046 938 1053 938 q 1029 926 1036 938 q 1023 915 1026 922 q 1016 899 1019 907 q 1010 885 1013 892 q 1007 878 1007 879 l 1007 443 q 1012 426 1010 440 q 1014 408 1014 411 q 1018 362 1015 396 q 1023 290 1021 328 q 1027 217 1025 251 q 1029 171 1029 183 q 1049 101 1038 131 q 1077 54 1060 72 q 1119 28 1094 36 q 1182 19 1144 19 l 1182 0 m 943 282 q 944 265 943 275 q 956 254 946 254 q 976 274 969 254 q 983 310 983 294 q 982 322 983 318 q 971 326 981 326 q 949 311 956 326 q 943 282 943 296 z "},"n":{"ha":1001,"x_min":0,"x_max":974,"o":"m 847 -6 q 846 -8 846 -7 q 878 -10 867 -15 l 871 -10 q 867 83 876 47 q 844 151 857 119 l 840 181 q 842 192 840 183 q 845 209 843 200 q 849 226 847 218 q 851 235 851 233 q 852 252 851 238 q 853 285 853 267 q 855 322 854 304 q 856 350 856 340 q 860 598 857 476 q 871 846 863 719 q 883 890 881 876 q 890 913 886 904 q 902 931 893 922 q 933 961 911 940 q 943 965 936 964 q 957 967 950 967 q 969 969 964 968 q 974 975 974 971 q 969 981 974 981 q 963 982 965 982 q 951 980 956 982 q 942 978 947 978 l 939 978 q 933 980 938 978 q 925 982 928 982 q 921 980 922 982 q 919 978 919 978 q 885 974 908 975 q 843 974 863 974 l 826 974 l 815 974 q 740 977 776 974 q 663 981 703 981 q 672 961 663 968 q 693 951 681 954 q 719 947 706 949 q 740 943 732 946 q 758 935 751 940 q 778 922 765 929 q 781 920 779 922 q 786 918 783 918 q 822 878 814 908 q 832 818 829 849 l 832 678 q 831 547 832 611 q 829 411 829 482 l 829 408 q 830 381 829 400 q 831 340 831 363 q 831 301 831 319 q 832 274 832 282 l 832 265 q 829 247 832 258 q 821 231 826 235 l 818 231 q 810 234 815 233 q 806 235 806 235 l 469 625 q 466 631 468 626 q 461 638 464 636 q 455 649 460 642 q 445 662 450 656 q 435 674 440 668 q 429 681 431 679 l 290 842 q 268 874 285 851 q 233 919 251 896 q 199 960 215 942 q 181 978 183 978 q 167 974 178 978 q 157 968 157 971 l 153 968 q 79 971 118 968 q 6 976 40 974 q 6 964 7 969 q 6 951 6 958 l 8 951 q 69 938 39 951 q 122 907 99 924 q 165 844 150 881 q 181 767 181 807 l 181 764 q 171 610 172 688 q 169 456 169 533 q 165 302 168 379 q 151 149 163 225 q 149 139 151 146 q 144 129 147 132 q 142 122 144 128 q 135 109 139 115 q 129 97 132 103 q 126 89 126 90 q 127 81 126 89 q 126 71 128 74 q 122 69 126 71 q 117 67 118 68 q 82 45 97 61 q 47 26 67 29 q 28 23 40 26 q 14 19 17 19 q 3 6 6 7 q 0 1 0 4 l 0 -1 q 41 -1 22 -6 q 83 1 60 3 q 108 13 99 13 q 124 11 117 13 q 141 12 132 10 q 160 21 150 14 q 181 44 169 28 l 190 44 q 192 25 190 38 q 200 6 193 13 l 256 6 q 264 5 258 6 q 269 1 269 4 l 278 1 q 308 5 286 4 q 344 6 329 6 l 360 6 l 360 8 q 347 19 360 13 q 315 34 333 26 q 281 49 297 42 q 256 60 264 56 q 230 88 238 71 q 208 121 222 106 q 200 125 204 125 q 193 140 196 128 q 188 168 190 151 q 185 203 186 185 q 185 239 185 222 l 185 274 q 190 513 185 392 q 197 753 194 635 q 201 759 199 754 q 207 764 204 764 l 208 764 l 360 593 q 365 589 360 592 q 374 583 371 586 q 376 581 375 583 q 378 579 378 579 q 384 569 379 576 q 394 552 389 561 q 405 535 400 543 q 411 526 410 528 q 417 522 411 526 q 426 515 422 518 l 438 506 q 443 493 438 504 q 449 481 449 482 q 468 459 458 467 q 488 444 478 451 q 506 426 497 436 q 521 400 514 417 q 533 388 525 396 q 549 369 540 379 q 567 351 558 360 q 578 339 575 342 q 600 308 589 325 q 623 274 611 290 q 648 244 635 257 q 678 228 661 232 q 687 220 683 226 q 693 206 690 214 q 699 189 696 197 q 707 175 703 181 q 742 135 722 156 q 778 93 763 114 q 783 79 779 90 q 788 67 788 68 q 815 33 799 47 q 836 0 832 19 q 847 -3 842 -1 q 856 -6 851 -4 l 847 -6 m 793 104 l 785 182 q 790 170 785 183 q 801 140 794 157 q 813 109 807 124 q 818 94 818 94 l 861 69 l 853 49 q 848 50 851 46 q 840 60 844 54 q 830 72 835 67 q 821 75 825 76 l 793 104 m 826 935 q 829 940 826 940 q 837 927 833 933 q 840 914 840 921 l 840 913 q 840 898 840 910 q 839 886 839 886 q 835 894 838 888 q 831 910 833 901 q 828 925 829 918 q 826 935 826 932 m 186 69 l 190 93 q 188 108 190 96 q 186 125 186 119 q 189 131 186 131 q 192 122 189 129 q 199 107 196 115 q 203 99 203 99 l 203 71 q 201 65 201 71 q 202 56 201 61 q 203 44 203 50 l 203 42 l 186 69 m 321 740 q 331 738 326 740 q 336 732 336 735 l 336 694 q 332 701 335 694 q 327 717 329 708 q 323 733 325 725 q 321 740 321 740 z "},"o":{"ha":1001,"x_min":0,"x_max":975,"o":"m 92 224 l 85 231 q 78 226 83 231 q 69 219 72 222 l 67 219 q 56 228 58 219 q 52 250 53 238 q 50 274 51 263 q 44 292 49 286 q 35 301 44 294 q 26 310 26 307 q 8 350 14 328 q 1 395 3 372 q 1 441 0 418 q 1 483 1 464 q 17 614 1 554 q 65 736 33 674 q 82 766 75 754 q 97 787 89 778 q 114 804 104 796 q 140 825 124 813 q 154 842 150 831 q 169 861 158 853 q 172 862 169 861 q 176 863 174 863 q 204 883 193 869 q 233 908 215 897 q 346 956 285 939 q 469 974 407 974 q 535 971 501 974 q 601 963 568 968 q 622 961 604 963 q 642 958 639 960 q 644 957 642 958 q 653 953 647 956 q 684 940 667 946 q 706 931 701 933 q 711 930 706 931 q 717 926 717 929 q 736 917 725 922 q 758 908 747 913 q 776 899 768 903 q 785 894 783 896 l 885 797 q 924 735 907 774 q 951 652 940 696 q 969 565 963 608 q 975 493 975 522 q 960 383 975 435 q 932 276 944 331 q 903 231 913 257 q 875 183 893 206 q 469 3 719 3 q 380 12 429 3 q 283 40 331 21 q 194 86 235 58 q 133 150 154 114 q 126 154 129 156 q 117 157 122 153 q 97 188 101 167 q 92 224 92 208 m 435 31 q 453 28 440 29 q 479 26 465 26 q 505 24 493 25 q 521 24 517 24 q 584 32 549 21 q 642 57 619 43 q 661 72 653 64 q 681 86 669 81 q 726 131 704 107 q 769 181 749 156 q 776 204 775 188 q 789 224 778 221 l 796 219 l 799 219 l 800 219 q 801 222 800 219 q 806 224 803 224 q 804 236 804 225 q 806 265 804 250 q 807 288 807 281 q 812 297 810 289 q 817 307 814 304 q 831 381 819 339 q 842 461 842 424 q 824 610 842 536 q 774 753 806 685 q 756 783 763 772 q 742 814 749 794 q 731 822 738 815 q 716 835 724 828 q 702 850 708 843 q 694 861 696 857 q 685 871 692 861 q 678 883 678 881 q 672 885 675 883 q 669 888 669 888 q 573 938 619 919 q 464 956 526 956 l 431 956 q 422 952 429 954 q 407 947 415 950 q 392 942 399 944 q 383 940 385 940 q 363 936 372 936 q 344 931 350 936 q 319 912 329 922 q 292 894 310 901 q 208 799 243 854 q 160 682 172 744 q 156 667 160 679 q 153 651 153 654 q 139 593 144 622 q 133 533 133 564 q 138 447 133 496 q 153 357 143 397 q 165 320 157 343 q 176 278 174 297 q 185 260 179 274 q 199 233 192 247 q 212 205 206 218 q 219 188 218 192 q 222 182 221 188 q 224 176 224 176 q 228 168 228 174 l 299 93 q 321 81 301 93 q 351 61 340 68 q 393 44 371 51 q 435 31 415 38 m 153 190 l 153 197 q 153 210 151 200 q 154 221 154 221 l 132 279 q 131 267 131 282 q 133 233 132 253 q 134 197 133 214 q 135 179 135 179 q 149 181 144 179 q 153 190 153 182 m 843 294 l 843 278 q 846 247 843 264 q 857 229 849 229 l 860 229 l 864 231 l 864 233 l 864 235 q 867 246 864 238 q 871 256 871 254 l 860 303 q 856 310 857 310 l 856 311 q 853 313 856 313 q 844 306 846 313 q 843 294 843 300 m 899 386 q 900 376 899 383 q 903 361 901 369 q 908 347 906 353 q 913 340 910 340 q 919 347 917 340 q 922 363 921 354 q 924 379 924 371 q 925 390 925 388 q 920 401 925 394 q 913 410 915 408 q 901 401 903 411 q 899 386 899 390 m 42 518 l 42 511 q 44 504 42 507 q 58 517 47 507 q 69 531 69 528 q 71 544 69 532 q 74 572 72 557 q 76 600 75 588 q 78 615 78 613 q 67 601 74 615 q 56 569 61 588 q 46 536 50 551 q 42 518 42 521 m 897 607 l 914 526 q 938 501 914 501 q 931 526 938 507 q 916 565 924 546 q 902 599 908 585 q 897 607 896 613 z "},"p":{"ha":797,"x_min":0,"x_max":775,"o":"m 7 13 q 0 0 0 6 q 101 4 53 0 q 203 8 150 8 q 255 5 231 8 q 307 1 279 1 l 458 1 l 456 13 q 369 33 411 18 q 296 81 328 49 q 281 117 285 96 q 265 153 276 138 l 265 226 l 265 299 q 266 323 265 304 q 268 363 267 342 q 270 403 269 383 q 271 431 271 422 q 280 451 272 444 q 299 461 288 458 q 322 463 310 464 q 347 463 335 463 l 399 465 q 505 477 458 465 q 583 504 551 489 q 635 535 615 519 q 664 557 656 550 q 673 565 665 558 q 690 578 681 571 q 710 593 700 585 q 728 607 721 601 q 732 617 728 610 q 741 631 736 624 q 750 645 746 639 q 756 653 754 651 q 771 703 767 672 q 775 757 775 733 q 768 796 775 772 q 753 829 761 819 q 746 834 750 829 q 738 844 742 839 q 732 855 735 850 q 729 858 729 860 q 734 842 729 857 q 743 814 739 826 q 749 800 747 801 q 749 792 749 799 q 751 780 750 786 q 753 769 753 774 q 754 765 754 764 l 756 772 q 756 773 757 778 q 752 760 756 768 q 743 745 749 753 q 729 738 738 738 q 726 747 721 738 q 728 763 731 756 q 723 802 725 781 q 715 844 721 824 q 701 881 710 864 q 675 908 692 899 q 659 918 671 911 q 647 925 647 925 q 660 900 651 911 q 663 869 669 889 q 666 859 663 869 q 667 849 669 849 q 656 867 663 851 q 642 901 650 883 q 624 934 635 919 q 597 949 613 949 q 588 949 594 949 q 573 951 581 950 q 558 953 565 951 q 550 956 551 954 q 536 958 546 956 q 515 964 526 961 q 494 969 504 967 q 482 972 485 972 q 472 973 481 972 q 449 975 463 974 q 429 976 436 976 q 418 977 426 976 q 399 978 410 978 q 378 978 388 979 q 364 972 368 976 q 360 970 364 972 q 357 965 357 968 q 345 970 357 965 q 333 972 333 975 q 328 969 333 972 q 316 963 322 967 q 305 957 310 960 q 300 953 300 954 q 347 951 314 949 q 407 953 381 953 q 436 949 425 953 q 506 926 468 938 q 578 885 544 914 q 633 808 622 853 q 644 711 644 763 q 613 613 644 656 q 533 542 582 571 q 426 498 485 513 q 311 483 367 483 q 292 486 306 483 q 276 497 279 489 l 271 536 l 271 667 q 270 735 271 699 q 269 810 269 772 q 272 885 269 847 q 283 956 275 922 l 283 958 l 308 976 q 300 978 307 978 l 283 978 q 267 977 275 978 q 256 976 258 976 q 244 972 254 976 q 223 961 235 968 q 202 944 211 954 q 193 925 193 935 l 171 976 q 132 970 158 969 q 78 974 106 971 q 29 978 51 976 q 1 976 7 981 l 1 963 l 85 942 q 94 940 82 942 q 124 930 107 938 q 157 908 142 922 q 175 867 172 893 q 174 797 169 832 q 179 726 179 761 q 178 683 179 715 q 176 608 178 651 q 172 517 174 565 q 169 426 171 469 q 166 351 167 383 q 165 308 165 319 q 166 290 165 304 q 167 258 167 275 l 167 228 q 165 210 167 211 q 164 190 165 206 q 160 158 163 175 q 156 126 158 142 q 151 104 153 110 q 122 65 135 81 q 92 40 108 50 q 56 24 76 31 q 7 13 36 18 m 186 104 l 186 121 q 196 133 186 133 l 200 128 q 205 126 203 128 q 207 125 207 125 l 207 115 q 208 101 207 108 q 208 86 208 93 l 208 78 q 208 56 208 61 q 200 38 207 50 q 187 69 188 50 q 186 104 186 89 m 649 635 l 674 592 q 669 591 675 590 q 656 590 664 592 q 636 583 647 589 q 614 563 625 576 q 622 575 615 564 q 634 599 628 586 q 645 624 640 613 q 649 635 650 635 m 214 604 l 243 538 q 238 528 244 538 q 231 510 231 519 l 231 492 q 229 482 231 483 q 224 501 228 482 q 218 542 221 519 q 214 585 215 565 q 214 604 213 604 z "},"q":{"ha":1017,"x_min":0,"x_max":976,"o":"m 968 32 q 895 82 936 64 q 818 124 854 100 q 875 181 847 149 q 903 228 893 203 q 932 274 913 254 q 960 380 944 328 q 975 490 975 432 q 969 563 975 519 q 951 649 963 606 q 924 732 940 693 q 885 794 907 771 l 785 892 q 776 897 783 893 q 758 905 768 900 q 736 915 747 910 q 717 924 725 919 q 711 927 717 926 q 706 928 706 928 q 684 937 701 931 q 653 950 667 943 q 644 954 647 953 q 642 956 642 956 q 622 958 639 957 q 601 960 604 960 q 535 968 568 965 q 469 971 501 971 q 346 953 407 971 q 233 906 285 936 q 204 881 215 894 q 176 860 193 867 q 172 859 174 860 q 169 858 169 858 q 154 839 158 850 q 140 822 150 828 q 114 801 124 810 q 97 784 104 793 q 82 763 89 775 q 65 733 75 751 q 17 611 33 671 q 1 481 1 551 q 1 438 1 461 q 1 392 0 415 q 8 347 3 369 q 26 307 14 325 q 35 298 26 304 q 44 289 44 292 q 50 272 49 283 q 52 247 51 260 q 56 226 53 235 q 67 217 58 217 l 69 217 q 78 224 72 219 q 85 228 83 228 l 92 221 q 97 185 92 206 q 117 154 101 164 q 126 151 122 150 q 133 147 129 153 q 194 83 154 111 q 283 37 235 56 q 380 9 331 18 q 469 0 429 0 q 746 71 626 0 q 759 60 753 65 q 772 50 765 56 q 861 0 824 32 l 886 0 l 900 0 l 914 0 l 971 0 q 976 14 976 4 q 968 32 975 24 m 638 160 q 671 132 654 146 q 704 104 688 118 q 692 94 697 99 q 681 83 686 89 q 661 69 669 78 q 642 54 653 61 q 584 29 619 40 q 521 21 549 18 q 505 22 517 21 q 479 23 493 22 q 453 25 465 24 q 435 28 440 26 q 393 42 415 35 q 351 58 371 49 q 338 67 346 63 q 321 78 329 72 q 306 87 313 83 q 299 90 300 90 l 228 165 q 224 174 228 171 q 222 179 224 174 q 219 185 221 185 q 212 202 218 189 q 199 230 206 215 q 185 258 192 244 q 176 275 179 271 q 165 317 174 294 q 153 354 157 340 q 138 444 143 394 q 133 531 133 493 q 139 590 133 561 q 153 649 144 619 q 156 664 153 651 q 160 679 160 676 q 208 797 172 742 q 292 892 243 851 q 319 909 310 899 q 344 928 329 919 q 363 933 350 933 q 383 938 372 933 q 392 940 385 938 q 407 944 399 942 q 422 949 415 947 q 431 953 429 951 l 464 953 q 573 935 526 953 q 669 885 619 917 q 672 883 669 885 q 678 881 675 881 q 685 868 678 878 q 694 858 692 858 q 702 847 696 854 q 716 833 708 840 q 731 819 724 825 q 742 811 738 813 q 756 781 749 792 q 774 750 763 769 q 824 608 806 682 q 842 458 842 533 q 831 378 842 421 q 817 304 819 336 q 812 294 814 301 q 807 285 810 286 q 806 263 807 278 q 804 233 804 247 q 806 221 804 222 q 801 219 803 221 q 800 217 800 217 l 796 217 l 789 221 q 781 214 783 219 q 776 201 778 208 q 774 188 775 194 q 769 178 772 182 q 768 175 768 176 l 767 175 q 763 181 764 178 q 758 186 761 183 q 725 192 739 174 q 722 195 724 193 q 718 200 721 197 q 694 214 704 200 q 690 219 692 217 q 686 224 688 222 q 665 265 671 242 q 650 279 653 278 q 621 282 635 290 q 607 256 607 274 l 607 254 q 606 253 606 254 q 599 240 601 246 q 600 226 596 233 q 631 168 603 190 q 638 160 633 161 m 932 551 q 933 549 932 550 q 933 547 933 549 q 935 532 939 538 q 936 529 936 532 l 936 517 q 935 513 936 514 q 935 511 935 513 q 937 501 936 504 q 938 499 938 497 q 918 504 924 499 q 917 506 918 506 q 911 508 914 506 q 910 510 911 510 q 910 511 910 511 q 908 514 908 513 l 908 517 q 906 526 906 519 q 907 535 906 533 q 906 544 904 543 l 903 553 q 891 569 900 564 q 885 586 882 574 q 885 598 881 593 q 897 601 890 603 l 897 604 q 897 606 896 607 q 899 601 897 604 q 911 592 910 599 q 914 585 914 589 q 931 554 929 572 q 932 551 931 551 m 772 89 q 769 108 761 97 q 789 111 778 119 q 803 100 797 107 q 817 88 808 93 l 821 88 q 836 74 836 88 q 821 60 836 60 q 794 69 806 60 q 772 89 783 79 m 42 515 q 46 533 42 518 q 56 567 50 549 q 67 599 61 585 q 78 613 74 613 q 76 597 78 610 q 74 569 75 585 q 71 542 72 554 q 69 528 69 529 q 58 515 69 525 q 44 501 47 504 q 42 508 42 504 l 42 515 m 843 292 q 844 303 843 297 q 853 310 846 310 q 856 308 856 310 l 856 307 q 860 300 857 307 l 871 253 q 867 243 871 251 q 864 232 864 235 l 864 228 l 860 226 l 857 226 q 846 244 849 226 q 843 275 843 261 l 843 292 m 153 188 q 149 178 153 179 q 135 176 144 176 q 134 194 135 176 q 133 231 133 211 q 131 265 132 250 q 132 276 131 279 l 154 218 q 153 208 154 218 q 153 194 151 197 l 153 188 m 899 383 q 901 398 899 388 q 913 407 903 408 q 920 399 915 406 q 925 388 925 392 q 924 376 925 385 q 922 360 924 368 q 919 344 921 351 q 913 338 917 338 q 908 344 910 338 q 903 358 906 350 q 900 374 901 367 q 899 383 899 381 m 94 364 q 81 349 94 349 q 67 364 67 349 q 81 379 67 379 q 94 364 94 379 m 851 783 q 838 768 851 768 q 824 783 824 768 q 838 799 824 799 q 851 783 851 799 m 679 181 q 665 165 679 165 q 651 181 651 165 q 665 196 651 196 q 679 181 679 196 z "},"r":{"ha":874,"x_min":1,"x_max":1068,"o":"m 11 15 q 1 1 1 10 q 106 6 57 1 q 207 11 154 11 q 259 8 235 11 q 311 4 283 4 q 385 8 349 4 q 460 11 422 11 l 460 15 q 374 36 415 21 q 300 83 332 51 q 285 119 289 99 q 269 156 281 140 l 269 229 l 269 301 q 270 326 269 307 q 272 365 271 344 q 274 406 274 386 q 275 433 275 425 q 284 454 276 447 q 303 464 292 461 q 328 466 315 467 q 353 465 340 465 q 460 442 422 465 q 524 384 499 419 q 573 305 550 349 q 635 219 596 261 q 685 163 658 190 q 740 107 713 136 q 757 87 749 99 q 776 65 765 75 q 799 47 786 54 q 831 40 813 40 q 844 54 844 40 q 838 72 844 63 q 823 93 831 82 q 808 117 815 104 q 801 146 801 131 q 806 163 801 157 q 810 181 810 169 q 794 200 806 186 q 771 228 783 214 q 748 256 758 243 q 733 275 738 269 q 726 281 731 275 q 721 286 721 286 q 706 294 718 289 q 693 301 693 299 q 683 316 692 301 q 663 353 675 331 q 638 401 651 375 q 612 451 624 428 q 592 490 600 474 q 585 508 585 506 q 594 529 585 521 q 617 542 604 538 q 644 552 631 547 q 667 564 658 557 q 676 573 668 565 q 695 590 685 581 q 716 608 706 599 q 733 624 726 618 q 737 631 733 626 q 745 641 740 636 q 754 650 750 646 q 760 656 758 654 q 775 706 771 675 q 779 760 779 736 q 774 792 779 775 q 760 819 768 810 q 753 828 754 819 q 751 833 751 836 q 752 817 751 831 q 753 803 753 803 q 756 791 753 800 q 760 779 760 782 l 760 775 q 754 752 760 764 q 733 740 749 740 q 719 747 724 740 q 713 760 715 753 q 710 800 710 778 q 710 844 711 822 q 702 883 708 865 q 679 911 696 901 q 663 921 675 914 q 651 928 651 928 q 665 903 656 914 q 667 872 674 892 q 665 871 667 872 q 660 869 663 869 q 651 885 656 872 q 641 913 647 899 q 625 940 635 928 q 601 951 615 951 q 592 952 599 951 q 577 953 585 953 q 563 956 569 954 q 554 958 556 957 q 540 961 550 958 q 519 967 531 964 q 499 972 508 969 q 486 975 489 975 l 429 975 l 368 975 q 365 973 368 975 q 361 968 361 971 q 349 973 361 968 q 338 975 338 978 q 339 972 338 975 q 340 965 340 968 q 390 959 360 960 q 440 951 421 958 q 512 921 472 940 q 582 888 551 901 q 627 806 606 847 q 649 714 649 765 q 617 617 649 660 q 536 546 585 575 q 428 501 488 517 q 315 486 369 486 q 297 489 310 486 q 281 500 283 492 l 275 539 l 275 669 q 274 738 275 701 q 274 813 274 775 q 276 888 274 850 q 288 958 279 925 l 288 961 q 273 966 285 964 q 254 968 261 968 q 241 966 251 968 q 228 961 231 964 l 208 961 q 218 890 214 924 q 219 819 222 856 l 217 810 l 214 810 q 205 824 208 810 q 199 853 201 838 q 194 883 196 869 q 193 897 193 897 q 181 814 188 863 q 174 731 174 765 l 174 688 q 173 613 174 657 q 172 521 172 568 q 170 429 171 474 q 169 354 169 385 l 169 311 q 170 292 169 307 q 171 261 171 278 l 171 231 q 169 213 171 214 q 168 193 169 208 q 165 161 167 178 q 160 128 163 144 q 156 107 157 113 q 126 68 139 83 q 97 43 113 53 q 60 27 81 33 q 11 15 40 21 m 190 107 l 190 124 q 200 136 190 136 l 204 131 q 209 129 207 131 q 211 128 211 128 l 211 97 l 211 67 q 204 40 211 58 q 191 72 192 53 q 190 107 190 92 m 211 189 q 214 186 214 189 q 211 181 214 183 q 208 185 208 181 q 211 189 208 189 m 861 6 l 858 1 q 866 -1 861 1 q 874 1 871 -4 q 885 22 881 19 q 891 19 889 24 q 896 7 893 14 q 903 0 899 0 q 918 7 910 7 q 952 0 932 7 q 993 -7 972 -7 q 986 6 989 -3 q 989 15 983 15 q 975 25 982 24 q 957 39 968 26 q 937 54 949 47 q 913 74 925 61 l 908 74 q 896 88 904 75 q 878 115 888 101 q 862 135 869 128 q 851 132 854 142 q 865 76 857 92 q 867 44 872 60 q 861 6 874 19 m 1018 7 q 1040 1 1031 6 q 1061 -11 1050 -3 q 1062 -19 1068 -18 q 1044 -19 1056 -19 q 1033 -18 1038 -19 q 1017 -8 1018 -15 q 1018 7 1015 0 m 186 956 l 189 956 q 109 968 149 969 q 29 956 69 967 q 33 950 33 953 q 32 944 33 947 q 31 938 31 940 q 33 936 31 936 q 76 933 61 936 q 101 926 92 931 q 117 917 110 922 q 135 906 124 911 l 171 858 q 175 894 172 875 q 180 928 178 913 q 184 953 182 944 q 186 956 186 961 z "},"s":{"ha":692,"x_min":6,"x_max":668,"o":"m 626 943 l 594 946 q 572 936 589 936 l 565 940 q 494 957 529 947 q 419 967 458 967 q 354 962 389 967 q 286 947 319 957 q 224 919 253 936 q 176 879 196 903 q 161 863 168 865 q 154 846 154 861 q 155 833 154 844 q 156 807 156 821 q 156 781 156 793 q 157 768 157 769 q 152 719 157 740 q 150 671 147 699 q 151 658 150 668 q 149 649 151 649 q 138 667 142 649 q 132 696 135 685 q 130 716 131 707 q 129 733 129 725 q 133 785 129 761 q 136 842 136 808 l 124 840 q 117 828 124 840 q 107 807 110 815 q 96 779 101 799 q 90 753 90 760 q 88 734 90 753 q 86 704 86 715 q 88 683 86 700 q 90 661 90 667 q 106 617 103 640 q 126 575 110 594 q 194 513 156 540 q 276 460 233 485 q 361 413 318 435 q 442 367 404 390 q 472 352 458 360 q 492 329 485 344 q 535 267 519 310 q 550 178 550 225 q 532 161 550 163 q 458 51 515 86 q 321 17 401 17 q 244 28 275 17 q 188 56 213 39 q 142 95 163 74 q 96 138 121 117 q 93 119 96 132 q 88 104 90 107 q 88 96 88 103 q 89 81 89 89 q 90 65 89 72 q 90 57 90 58 l 86 57 q 75 72 78 57 q 71 108 72 88 q 69 149 69 129 q 64 178 68 169 q 53 197 60 185 q 39 224 46 210 q 25 251 32 238 q 14 272 18 264 l 6 279 l 6 263 l 6 242 q 10 234 6 242 q 14 224 14 226 q 19 193 15 215 q 26 147 22 171 q 33 101 29 124 q 38 71 36 79 q 49 60 40 64 q 64 53 57 56 q 90 36 78 46 q 118 24 101 26 q 310 -3 215 -3 q 383 6 339 -3 q 470 29 426 14 q 550 65 514 44 q 601 111 586 86 q 624 144 613 128 q 646 176 636 160 q 662 211 656 193 q 668 251 668 229 q 636 368 668 321 q 555 451 604 415 q 448 516 506 488 q 338 575 390 544 q 245 644 285 606 q 194 736 206 682 q 188 760 192 749 q 185 783 185 771 q 206 853 185 822 q 258 906 226 885 q 330 938 290 928 q 406 943 369 947 q 417 942 407 943 q 441 938 428 940 q 468 932 454 935 q 490 926 482 929 q 530 903 518 922 q 558 861 542 885 q 572 828 568 849 q 578 788 575 808 q 586 751 582 768 q 601 729 590 735 l 608 736 q 611 760 608 739 q 617 790 614 781 q 616 810 617 794 q 615 843 615 826 l 615 876 q 617 897 615 896 q 620 923 617 917 q 626 943 624 929 z "},"t":{"ha":1001,"x_min":4,"x_max":976,"o":"m 906 954 q 815 949 865 944 q 718 953 765 953 l 647 963 l 569 951 q 525 948 546 944 q 482 951 504 951 l 360 951 q 309 957 343 960 q 242 954 275 954 l 106 950 l 25 971 l 25 963 q 24 949 25 957 q 24 935 24 942 l 24 926 q 14 847 24 886 q 4 769 4 807 q 5 756 4 763 q 13 744 6 750 q 75 847 32 803 q 185 903 118 890 q 223 904 196 903 q 280 906 250 906 q 337 908 310 907 q 375 910 364 910 l 394 910 q 444 863 444 910 l 444 819 q 444 797 444 808 q 442 775 443 786 q 435 615 436 699 q 433 453 433 532 l 433 335 q 440 322 440 332 q 433 301 440 311 q 426 278 426 290 q 430 253 426 265 q 433 226 433 242 q 426 185 433 211 q 415 146 418 160 q 390 86 404 110 q 356 48 376 63 q 307 26 336 33 q 236 13 278 18 q 247 6 239 10 q 261 0 256 1 q 276 3 264 0 q 290 6 288 6 l 717 6 q 722 8 717 6 q 726 13 726 10 l 726 15 l 726 18 q 711 20 722 18 q 686 26 700 22 q 660 32 672 29 q 643 36 649 35 q 588 63 607 44 q 560 104 569 81 q 547 156 550 128 q 539 211 543 183 q 538 224 539 213 q 538 251 538 236 q 537 285 538 268 q 536 311 536 301 l 536 315 l 536 318 q 537 338 536 324 q 538 367 538 351 q 538 397 538 383 q 539 415 539 411 l 539 910 q 654 913 594 910 q 769 908 714 915 q 871 876 825 900 q 943 800 917 853 q 958 769 947 786 q 968 751 968 751 l 976 751 q 972 811 976 782 q 968 872 968 840 l 968 910 q 972 920 968 910 q 976 933 976 931 q 975 944 976 935 q 972 966 974 954 q 969 979 969 978 q 953 972 969 979 q 922 960 936 965 q 906 954 908 956 m 433 131 l 444 136 l 444 235 q 456 265 456 250 q 471 294 457 281 l 476 288 l 476 183 q 474 174 476 181 q 471 164 471 167 l 471 161 q 478 111 471 138 q 485 58 485 85 q 483 46 485 49 q 465 43 481 43 q 447 46 461 43 q 433 58 433 49 l 433 131 z "},"u":{"ha":1017,"x_min":0,"x_max":993,"o":"m 69 960 l 0 956 l 0 950 q 1 942 0 942 l 10 942 q 29 941 18 942 q 43 940 40 940 q 56 939 58 940 q 54 935 54 938 l 64 935 q 90 928 72 935 q 114 921 107 921 q 122 917 122 921 q 123 911 122 915 q 125 900 124 907 q 128 876 126 892 q 131 844 129 860 q 133 815 132 828 q 133 801 133 803 l 133 471 q 131 427 131 446 q 132 385 132 408 q 133 304 132 344 q 142 225 135 264 q 164 151 149 186 q 208 86 179 115 q 218 76 213 83 q 231 60 224 68 q 248 45 239 51 q 268 39 257 39 q 273 40 269 39 q 276 46 276 40 l 292 101 l 294 104 l 299 110 q 308 97 307 110 q 309 68 310 85 q 309 36 308 51 q 318 15 310 21 q 414 -8 361 -4 q 515 -12 467 -12 q 583 -8 542 -12 q 665 10 625 -3 q 735 45 706 22 q 764 104 764 68 l 754 104 q 576 31 681 31 q 503 34 542 31 q 428 49 465 38 q 358 79 390 60 q 301 131 325 99 q 274 172 286 149 q 254 214 263 194 q 248 238 251 224 q 241 266 244 253 q 235 289 238 279 q 232 299 232 299 l 232 842 q 219 877 221 854 q 218 918 218 900 q 220 931 218 922 q 222 939 222 939 l 225 944 l 236 929 q 240 865 222 899 q 281 908 260 889 q 332 939 301 928 q 346 940 336 940 q 365 940 356 939 q 382 944 375 940 q 389 956 389 947 l 171 956 q 160 953 167 956 q 153 950 153 950 l 147 950 l 142 950 q 125 954 126 953 q 117 956 124 956 l 104 956 l 69 960 m 810 960 q 816 903 810 931 q 829 847 822 875 q 842 789 836 818 q 849 729 849 760 l 849 372 q 842 297 849 340 q 824 222 835 254 q 804 169 815 197 q 786 115 793 142 q 801 119 793 115 q 813 131 810 124 q 849 216 836 172 q 867 304 861 260 q 873 395 872 349 q 874 489 874 442 l 874 519 l 874 569 q 874 621 874 597 q 876 649 875 644 q 880 742 879 697 q 890 827 881 788 q 922 899 899 867 q 993 956 944 932 q 972 959 988 956 q 954 963 956 963 l 951 963 l 947 963 q 933 961 943 963 q 910 959 922 960 q 889 957 899 958 q 876 956 879 956 l 876 847 q 868 842 876 842 l 867 842 l 864 842 q 859 897 861 869 q 854 953 857 925 q 849 956 854 956 l 840 956 q 825 958 838 956 q 810 960 813 960 m 204 172 l 201 154 l 199 153 q 211 140 204 153 q 218 124 218 126 q 216 124 218 121 q 211 130 214 126 q 206 136 208 133 q 204 138 204 139 q 192 156 189 143 q 204 172 196 169 m 157 271 q 157 312 160 292 q 150 351 154 332 q 142 392 146 371 q 138 435 138 413 l 153 435 q 164 383 158 410 q 181 331 169 356 q 190 294 182 322 q 204 246 197 267 l 204 243 l 204 240 q 203 234 204 236 q 201 232 201 232 q 185 240 193 232 q 172 254 182 243 q 157 271 161 265 m 193 804 l 174 925 l 204 921 q 207 903 206 921 q 208 876 208 886 q 207 868 208 876 q 206 854 206 860 q 206 825 206 835 q 204 792 207 815 l 193 804 m 657 956 q 666 949 660 953 q 676 944 672 944 q 687 942 678 943 q 707 941 696 942 q 728 940 718 940 q 739 939 738 939 q 752 932 744 938 q 768 921 760 926 q 785 910 776 915 q 799 906 793 906 l 799 915 q 796 943 799 928 q 788 958 793 958 l 657 956 z "},"v":{"ha":983,"x_min":7,"x_max":969,"o":"m 358 243 q 375 208 372 229 q 378 190 376 199 q 382 169 379 181 q 398 122 393 142 q 415 78 403 101 l 425 63 l 429 24 q 435 7 429 17 q 447 -3 440 -3 q 463 -1 453 -3 q 483 2 472 0 q 501 7 493 4 q 513 14 510 10 q 535 72 521 39 q 563 140 549 106 q 590 208 578 175 q 610 265 603 240 q 615 278 611 268 q 621 292 619 288 q 624 299 621 292 q 631 313 628 306 q 637 328 635 321 q 639 336 639 335 q 642 347 640 336 q 643 361 644 358 q 647 368 644 364 q 650 375 650 372 q 659 396 654 381 q 664 411 664 411 q 670 435 669 425 q 670 455 671 446 q 670 473 669 464 q 676 494 671 482 q 685 514 679 506 q 694 533 692 522 q 724 600 706 569 q 754 667 742 631 q 769 717 764 692 q 790 765 775 742 l 804 801 l 824 831 q 833 861 821 850 q 851 886 844 872 l 861 906 q 864 910 861 907 q 867 915 867 913 q 875 919 868 915 q 890 929 882 924 q 905 940 897 935 q 917 949 913 946 q 936 958 924 956 q 960 968 949 961 l 969 975 q 964 978 967 976 q 960 979 961 979 l 885 975 q 879 970 881 975 q 876 960 878 965 q 872 951 874 956 q 865 946 869 946 q 859 942 863 949 q 854 936 856 935 q 846 935 849 931 q 843 932 843 939 l 838 932 q 833 936 833 932 q 836 956 833 944 q 839 975 839 968 l 819 960 l 806 904 q 808 894 806 903 q 813 874 811 885 q 815 863 815 863 l 814 863 l 811 863 q 809 868 811 863 q 805 881 807 874 q 801 896 803 889 q 799 904 799 903 q 792 923 796 911 q 789 943 789 935 q 790 948 788 943 q 797 959 793 953 q 802 970 800 965 q 800 975 804 975 l 661 975 q 660 974 661 975 q 660 971 660 972 l 660 968 l 660 967 l 661 964 q 708 956 690 958 q 738 949 726 953 q 758 940 750 946 q 775 922 765 935 q 781 909 778 922 q 786 893 783 896 q 788 871 792 879 q 783 851 785 863 l 781 828 q 772 804 778 819 q 759 772 765 789 q 747 738 753 754 q 738 714 740 722 q 732 699 738 711 q 720 673 726 688 q 709 647 714 658 q 704 632 704 635 q 666 507 682 565 q 628 386 650 449 q 610 333 619 360 q 582 278 601 306 q 576 261 582 276 q 560 223 569 246 q 540 173 551 200 q 520 123 529 146 q 505 85 511 100 q 499 69 499 69 q 487 86 493 69 q 474 128 481 103 q 461 182 468 153 q 448 236 454 211 q 436 278 442 261 q 426 294 431 294 q 437 231 429 263 q 447 167 444 199 l 454 104 q 463 88 456 97 q 465 78 469 78 q 456 85 463 78 q 447 94 449 92 l 406 243 q 394 278 393 265 q 400 299 394 290 q 412 314 406 307 q 417 333 418 321 q 404 379 415 350 q 389 425 393 408 q 380 438 388 428 q 364 459 372 447 q 349 481 356 471 q 342 493 342 490 q 312 584 325 538 q 282 675 299 631 q 265 717 275 694 q 245 764 256 740 q 226 810 235 788 q 214 854 218 833 l 214 861 q 217 897 214 869 q 228 942 221 924 q 234 951 231 950 q 240 948 238 951 q 244 940 242 944 q 246 936 246 936 l 250 931 l 256 936 q 287 948 272 943 q 318 958 301 953 l 325 965 l 325 967 l 325 969 q 324 972 325 971 q 324 974 324 974 l 294 974 q 234 970 264 974 q 171 967 204 967 l 157 967 l 96 967 q 82 972 93 969 q 65 975 71 975 q 53 970 60 975 q 43 965 47 965 l 39 965 q 29 970 36 967 q 21 974 22 974 l 19 974 q 12 971 17 974 q 7 965 7 968 q 17 955 7 954 q 35 951 28 956 l 47 943 q 57 940 54 939 q 61 935 60 942 q 72 927 63 935 q 89 913 82 919 q 97 906 96 907 l 121 849 q 138 806 124 843 q 174 716 153 769 q 218 601 194 663 q 263 486 242 540 q 299 392 283 432 q 319 342 315 351 q 325 335 322 335 q 331 337 328 336 q 337 334 333 338 q 344 314 340 331 q 347 300 344 310 q 351 279 349 290 q 356 258 354 268 q 358 243 358 247 m 143 935 q 151 940 143 940 q 165 928 158 940 q 171 913 171 917 q 173 891 171 908 q 175 863 175 874 q 174 854 175 854 q 166 865 171 854 q 156 890 161 876 q 147 917 151 904 q 143 935 143 931 z "}}}
